<?xml version="1.0" standalone="no"?>
<!DOCTYPE svg PUBLIC "-//W3C//DTD SVG 1.1//EN" "http://www.w3.org/Graphics/SVG/1.1/DTD/svg11.dtd">
<svg xmlns="http://www.w3.org/2000/svg">
<defs >
<font id="RethinkSans" horiz-adv-x="565" ><font-face
    font-family="Rethink Sans"
    units-per-em="1000"
    panose-1="0 0 0 0 0 0 0 0 0 0"
    ascent="992"
    descent="-310"
    alphabetic="0" />
<glyph unicode=" " horiz-adv-x="230" />
<glyph unicode="!" horiz-adv-x="286" d="M87 221L73 700H210L195 221H87ZM143 -12Q108 -12 84 12T60 71Q60 106 84 130T143 154Q178 154 202 130T226 71Q226 37 202 13T143 -12Z" />
<glyph unicode="&quot;" horiz-adv-x="456" d="M233 455L288 701H423L321 455H233ZM41 455L96 701H231L129 455H41Z" />
<glyph unicode="#" horiz-adv-x="860" d="M140 0L177 175H33V290H202L233 436H86V551H258L295 723H415L378 551H568L605 723H725L689 551H819V436H664L633 290H766V175H608L571 0H450L488 175H298L261 0H140ZM322 290H512L544 436H354L322 290Z" />
<glyph unicode="$" horiz-adv-x="590" d="M255 -86V-9Q194 -1 146 26T69 99T39 211H174Q176 173 197 144T255 103V307L246 310Q177 333 135 363T75 431T56 512Q56 572 82 614T153 680T255 710V791H324V710Q382 705 428 680T502 613T531 510H394Q393 540 375 564T324
599V413L359 401Q385 392 417 378T480 341T529 282T549 194Q549 133 520 89T440 19T324 -11V-86H255ZM324 97Q365 102 389 125T413 185Q413 207 406 223T380 254T324 282V97ZM255 442V600Q227 593 209 573T190 521Q190 494 207 476T255 442Z" />
<glyph unicode="%" horiz-adv-x="872" d="M174 0L569 700H694L299 0H174ZM212 356Q164 356 125 377T63 439Q40 480 40 534Q40 589 63 629T125 691Q164 712 213 712Q261 712 299 691T361 629Q372 609 378 586T384 534Q384 479 361 439T299 378Q261 356 212 356ZM212
445Q241 445 262 467T283 534Q283 578 263 601T212 624Q182 624 162 601T141 534Q141 490 161 468T212 445ZM660 -12Q612 -12 573 9T511 71Q488 112 488 166Q488 221 511 260T573 322Q612 343 661 343Q709 343 747 322T809 261Q820 241 826 218T832 166Q832 111
809 71T748 10Q710 -12 660 -12ZM660 77Q690 77 710 99T731 166Q731 210 711 233T660 256Q630 256 610 233T589 166Q589 122 609 100T660 77Z" />
<glyph unicode="&amp;" horiz-adv-x="713" d="M278 -12Q231 -12 189 2T114 45T62 112T43 202Q43 237 54 269T85 330T136 382L145 389L136 402Q116 431 107 459T97 518Q97 576 124 619T200 687T312 712Q375 712 423 688T499 618T527 510H400Q400 531 391 551T362
584T310 597Q281 597 262 585T234 555T225 518Q225 481 252 447T328 365L449 244L549 405H685L532 161L693 0H532L464 68L454 58Q419 23 374 6T278 -12ZM286 105Q312 105 335 114T384 148L223 308Q195 286 183 262T171 212Q171 182 187 158T229 120T286 105Z" />
<glyph unicode="&apos;" horiz-adv-x="241" d="M31 454L86 700H221L119 454H31Z" />
<glyph unicode="(" horiz-adv-x="399" d="M239 -145Q183 -89 140 -16T71 146Q58 190 52 237T45 333Q45 432 71 520T140 682Q184 756 239 811H367V799Q277 704 224 585T171 333Q171 201 224 82T367 -133V-145H239Z" />
<glyph unicode=")" horiz-adv-x="399" d="M32 -145V-133Q122 -38 175 81T228 333Q228 465 175 584T32 799V811H160Q188 783 213 751T260 682Q304 609 329 521T354 333Q354 284 348 237T329 146Q304 58 260 -15T160 -145H32Z" />
<glyph unicode="*" horiz-adv-x="499" d="M211 360V480L107 420L68 489L171 549L68 608L107 677L211 617V737H290V617L394 677L434 608L330 549L434 489L394 420L290 480V360H211Z" />
<glyph unicode="+" horiz-adv-x="600" d="M246 53V236H58V343H246V526H355V343H542V236H355V53H246Z" />
<glyph unicode="," horiz-adv-x="230" d="M14 -116L71 133H195L98 -116H14Z" />
<glyph unicode="-" horiz-adv-x="433" d="M54 236V343H379V236H54Z" />
<glyph unicode="." horiz-adv-x="226" d="M113 -12Q78 -12 54 12T30 71Q30 106 54 130T113 154Q148 154 172 130T196 71Q196 37 172 13T113 -12Z" />
<glyph unicode="/" horiz-adv-x="421" d="M23 -111L273 777H398L147 -111H23Z" />
<glyph unicode="0" horiz-adv-x="580" d="M291 -12Q195 -12 137 36T53 166T27 350Q27 452 53 534T137 664T291 712Q387 712 444 665T528 536T554 350Q554 246 528 164T445 35T291 -12ZM291 102Q360 102 392 168T424 350Q424 465 392 531T291 598Q222 598 190 532T157
350Q157 235 189 169T291 102Z" />
<glyph unicode="1" horiz-adv-x="580" d="M79 0V109H267V557L85 516V614L321 700H388V109H553V0H79Z" />
<glyph unicode="2" horiz-adv-x="580" d="M53 0V92Q53 92 63 102T90 131T129 172T177 222T229 276Q273 322 310 360T370 433T393 500Q393 547 365 575T289 604Q252 604 227 587T190 542T178 481H54Q56 556 86 607T169 685T292 712Q370 712 420 684T494 608T518
502Q518 453 497 412T439 330T357 245Q330 218 309 197T271 159T245 131T229 115T223 109H535V0H53Z" />
<glyph unicode="3" horiz-adv-x="580" d="M292 -12Q218 -12 162 14T74 91T40 216H164Q165 165 199 131T292 97Q348 97 383 128T418 220Q418 277 383 307T293 337Q272 337 254 332T219 317L148 399L361 591H61V700H519V594L341 433Q391 429 428 411T491 363T528
298T541 221Q541 148 510 96T422 16T292 -12Z" />
<glyph unicode="4" horiz-adv-x="580" d="M352 0V130H32V232L267 700H393L167 241H360V423H480V241H561V130H480V0H352Z" />
<glyph unicode="5" horiz-adv-x="580" d="M296 -12Q224 -12 168 13T79 86T40 197H165Q174 154 209 126T296 97Q334 97 362 116T407 167T423 240Q423 303 388 340T298 377Q253 377 220 355T173 300H50L110 700H498V588H206L174 426Q196 450 234 465T319 481Q394
481 444 448T520 360Q533 332 539 303T546 241Q546 169 515 112T428 22T296 -12Z" />
<glyph unicode="6" horiz-adv-x="580" d="M311 -12Q236 -12 185 17T101 95Q70 144 56 204T42 327Q42 444 73 530T164 664Q193 688 229 700T307 712Q376 712 424 684T499 609Q513 586 520 561T530 510H413Q404 556 378 581T306 606Q264 606 233 579T186 497T167
357Q190 398 235 425T332 452Q387 452 436 424T514 345Q544 294 544 225Q544 162 515 108T433 21Q381 -12 311 -12ZM304 98Q338 98 364 113T406 157T421 220Q421 276 388 310T302 344Q269 344 242 328T200 284T184 222Q184 186 199 158T242 114T304 98Z" />
<glyph unicode="7" horiz-adv-x="580" d="M134 0L412 591H35V700H547V609L267 0H134Z" />
<glyph unicode="8" horiz-adv-x="580" d="M291 -12Q224 -12 169 13T80 85T46 195Q46 257 75 305T162 376Q116 398 90 437T63 525Q63 585 94 627T177 690T291 712Q353 712 404 691T487 627T518 525Q518 476 491 436T419 376Q476 354 505 305T535 195Q535 145 515
107T461 42T382 2T291 -12ZM292 95Q345 95 377 124T410 206Q410 261 379 290T292 319Q237 319 205 290T172 206Q172 157 202 126T292 95ZM291 414Q336 414 364 439T392 510Q392 557 365 582T291 608Q244 608 217 583T190 510Q190 465 218 440T291 414Z" />
<glyph unicode="9" horiz-adv-x="580" d="M274 -12Q205 -12 157 16T82 91Q56 136 51 190H168Q177 144 203 119T275 94Q318 94 348 121T396 204T414 343Q392 302 347 275T249 248Q194 248 145 276T67 355Q37 406 37 475Q37 538 66 592T148 679Q201 712 270 712Q345
712 397 683T480 605Q511 556 525 496T539 373Q539 256 508 170T417 36Q388 12 352 0T274 -12ZM279 356Q312 356 339 372T381 416T397 478Q397 514 382 542T339 586T277 602Q243 602 217 587T175 544T160 480Q160 424 193 390T279 356Z" />
<glyph unicode=":" horiz-adv-x="242" d="M120 346Q85 346 61 370T37 429Q37 464 61 488T120 512Q155 512 179 488T203 429Q203 395 179 371T120 346ZM120 -12Q85 -12 61 12T37 71Q37 106 61 130T120 154Q155 154 179 130T203 71Q203 37 179 13T120 -12Z" />
<glyph unicode=";" horiz-adv-x="266" d="M24 -116L81 133H205L108 -116H24ZM144 346Q109 346 85 370T61 429Q61 464 85 488T144 512Q179 512 203 488T227 429Q227 395 203 371T144 346Z" />
<glyph unicode="&lt;" horiz-adv-x="600" d="M331 133L108 359L331 584H493L268 359L493 133H331Z" />
<glyph unicode="=" horiz-adv-x="600" d="M88 345V457H512V345H88ZM88 123V235H512V123H88Z" />
<glyph unicode="&gt;" horiz-adv-x="600" d="M108 133L332 359L108 584H269L493 359L269 133H108Z" />
<glyph unicode="?" horiz-adv-x="527" d="M137 218L133 383H179Q230 383 272 392T339 427Q364 452 364 503Q364 551 335 578T258 606Q208 606 180 579T152 504H31Q30 564 57 611T136 685Q162 699 192 705T259 712Q326 712 377 688T459 616Q473 593 480 565T488
502Q488 433 458 388T375 321Q349 310 319 305T253 298L250 218H137ZM194 -12Q159 -12 135 12T111 71Q111 106 135 130T194 154Q229 154 253 130T277 71Q277 37 253 13T194 -12Z" />
<glyph unicode="@" horiz-adv-x="1022" d="M517 -212Q414 -212 332 -179T191 -88T101 49T70 218Q70 314 104 394T199 532T342 622T521 654Q615 654 695 625T835 541T928 413T962 247Q962 175 940 118T873 28T766 -5Q719 -5 686 17T635 79Q612 42 576 18T484 -7Q422
-7 376 24T304 106T279 219Q279 281 305 332T377 413T484 443Q525 443 562 427T623 374V433H730V150Q730 122 743 108T780 93Q814 93 833 118T859 178T867 245Q867 345 822 416T698 526T521 565Q446 565 382 540T269 469T193 359T166 218Q166 148 190 86T260 -22T371
-95T517 -122Q567 -122 613 -112T701 -81L730 -167Q710 -177 685 -185T631 -200Q574 -212 517 -212ZM507 90Q562 90 593 127T625 218Q625 254 610 283T569 330T507 347Q456 347 422 312T388 219Q388 164 420 127T507 90Z" />
<glyph unicode="A" horiz-adv-x="694" d="M19 0L275 700H419L675 0H539L484 159H209L153 0H19ZM245 262H448L346 553L245 262Z" />
<glyph unicode="B" horiz-adv-x="623" d="M64 0V700H329Q438 700 495 652T553 524Q553 466 525 430T455 375Q490 362 519 336T567 275T585 197Q585 142 558 97T480 26T355 0H64ZM192 109H343Q400 109 427 135T455 210Q455 259 426 285T341 311H192V109ZM192 420H318Q372
420 397 441T422 506Q422 547 398 569T316 591H192V420Z" />
<glyph unicode="C" horiz-adv-x="729" d="M381 -12Q273 -12 197 35T81 163T41 349Q41 453 80 535T195 664T381 712Q507 712 587 650T688 474H547Q534 531 492 563T379 596Q315 596 269 566T197 481T172 349Q172 273 197 218T268 133T379 103Q449 103 491 133T547
218H688Q668 110 588 49T381 -12Z" />
<glyph unicode="D" horiz-adv-x="703" d="M64 0V700H303Q428 700 507 656T624 533T662 350Q662 238 621 160T499 41T303 0H64ZM192 110H297Q386 110 437 139T509 222T531 350Q531 475 474 533T297 591H192V110Z" />
<glyph unicode="E" horiz-adv-x="562" d="M64 0V700H513V591H192V424H467V315H192V109H513V0H64Z" />
<glyph unicode="F" horiz-adv-x="532" d="M64 0V700H505V591H192V416H466V307H192V0H64Z" />
<glyph unicode="G" horiz-adv-x="765" d="M370 -12Q271 -12 197 33T82 159T41 346Q41 449 81 532T199 663T391 712Q514 712 595 653T700 490H557Q541 539 499 566T391 594Q321 594 272 564T198 479T172 345Q172 268 197 214T270 131T382 102Q472 102 520 148T581
270H358V378H713V0H595L585 92Q551 42 500 15T370 -12Z" />
<glyph unicode="H" horiz-adv-x="698" d="M64 0V700H192V425H506V700H634V0H506V316H192V0H64Z" />
<glyph unicode="I" horiz-adv-x="256" d="M64 0V700H192V0H64Z" />
<glyph unicode="J" horiz-adv-x="524" d="M247 -12Q145 -12 84 45T22 209H150Q151 160 173 131T244 102Q290 102 311 129T332 202V700H460V202Q460 99 403 44T247 -12Z" />
<glyph unicode="K" horiz-adv-x="632" d="M595 700L347 431L616 0H465L261 338L192 261V0H64V700H192V431L439 700H595Z" />
<glyph unicode="L" horiz-adv-x="535" d="M64 0V700H192V109H494V0H64Z" />
<glyph unicode="M" horiz-adv-x="827" d="M64 0V700H216L415 248L611 700H763V0H635V472L464 89H363L192 472V0H64Z" />
<glyph unicode="N" horiz-adv-x="713" d="M64 0V700H192L521 211V700H649V0H521L192 488V0H64Z" />
<glyph unicode="O" horiz-adv-x="797" d="M398 -12Q328 -12 264 13T149 85T70 199T41 350Q41 434 70 501T149 615T263 687T398 712Q469 712 533 687T648 615T727 501T756 350Q756 266 727 199T648 85T534 13T398 -12ZM398 104Q454 104 506 130T591 212T624 350Q624
434 591 489T506 570T398 597Q343 597 291 571T206 489T173 350Q173 267 206 212T291 131T398 104Z" />
<glyph unicode="P" horiz-adv-x="599" d="M64 0V700H323Q396 700 451 676T539 604T571 490Q571 423 539 376T452 304T323 279H192V0H64ZM192 388H320Q387 388 414 416T441 490Q441 534 414 562T320 591H192V388Z" />
<glyph unicode="Q" horiz-adv-x="802" d="M683 -12L613 56Q567 23 512 6T398 -12Q328 -12 264 13T149 85T70 199T41 350Q41 434 70 501T149 615T263 687T398 712Q469 712 533 687T648 615T727 501T756 350Q756 289 741 237T696 143L767 76L683 -12ZM173 350Q173
267 206 212T291 131T398 104Q436 104 468 112T527 139L419 243L503 331L604 232Q614 255 619 283T624 350Q624 434 591 489T506 570T398 597Q343 597 291 571T206 489T173 350Z" />
<glyph unicode="R" horiz-adv-x="615" d="M64 0V700H307Q380 700 433 677T517 608T547 498Q547 423 507 378T398 316L593 0H442L270 295H192V0H64ZM192 404H304Q349 404 373 416T407 450T417 498Q417 525 408 546T374 579T304 591H192V404Z" />
<glyph unicode="S" horiz-adv-x="589" d="M303 -12Q230 -12 171 13T76 87T39 211H174Q176 162 209 129T302 96Q353 96 383 120T413 185Q413 206 407 222T382 252T332 279T246 310Q177 333 135 363T75 430T56 512Q56 578 87 622T172 689T291 712Q357 712 410 689T497
621T531 510H394Q393 548 365 576T286 604Q246 604 218 583T190 521Q190 491 212 470T273 434T359 401Q385 392 417 378T480 341T529 282T549 194Q549 130 517 84T429 13T303 -12Z" />
<glyph unicode="T" horiz-adv-x="582" d="M227 0V591H23V700H560V591H355V0H227Z" />
<glyph unicode="U" horiz-adv-x="673" d="M334 -12Q238 -12 178 26T89 129T60 268V700H188V267Q188 185 227 145T337 105Q406 105 446 145T486 267V700H614V268Q614 189 589 135T523 49T432 3T334 -12Z" />
<glyph unicode="V" horiz-adv-x="691" d="M267 0L11 700H148L346 131L545 700H680L424 0H267Z" />
<glyph unicode="W" horiz-adv-x="997" d="M261 0L18 700H149L338 121L413 355L292 700H421L499 455L576 700H706L584 355L659 121L848 700H979L736 0H584L499 254L413 0H261Z" />
<glyph unicode="X" horiz-adv-x="651" d="M29 0L251 381L61 700H206L327 497L440 700H585L398 381L625 0H480L323 264L174 0H29Z" />
<glyph unicode="Y" horiz-adv-x="617" d="M245 0V281L10 700H155L310 409L464 700H607L373 281V0H245Z" />
<glyph unicode="Z" horiz-adv-x="558" d="M43 0V98L364 592H46V700H513V602L190 109H515V0H43Z" />
<glyph unicode="[" horiz-adv-x="360" d="M68 -170V811H306V707H188V-65H306V-170H68Z" />
<glyph unicode="\" horiz-adv-x="421" d="M273 -111L23 777H148L398 -111H273Z" />
<glyph unicode="]" horiz-adv-x="360" d="M54 -170V-65H172V707H54V811H292V-170H54Z" />
<glyph unicode="^" horiz-adv-x="665" d="M33 170L272 700H394L632 170H502L333 549L163 170H33Z" />
<glyph unicode="_" horiz-adv-x="681" d="M54 -160V-38H627V-160H54Z" />
<glyph unicode="`" horiz-adv-x="500" d="M347 539L121 647V751L347 629V539Z" />
<glyph unicode="a" horiz-adv-x="555" d="M197 -12Q153 -12 115 6T54 57T30 137Q30 192 57 227T131 279T238 296H356Q356 330 346 353T315 388T264 401Q229 401 202 386T168 334H40Q45 388 77 427T159 487T266 508Q336 508 384 482T459 409T485 296V145Q487 123
501 115T538 107V0Q491 0 460 9T408 35T374 80Q351 41 303 15T197 -12ZM234 91Q267 91 294 106T339 148T356 210V214H246Q224 214 204 208T172 188T160 151Q160 120 181 106T234 91Z" />
<glyph unicode="b" horiz-adv-x="598" d="M339 -12Q289 -12 246 7T173 68V0H45V700H172V426Q200 467 244 487T339 508Q410 508 461 474T541 381T569 250Q569 179 541 119T462 24T339 -12ZM305 100Q345 100 375 120T422 174T439 250Q439 297 421 329T372 379T305
396Q266 396 237 377T190 325T173 248Q173 204 190 171T238 119T305 100Z" />
<glyph unicode="c" horiz-adv-x="544" d="M278 -12Q203 -12 147 21T60 113T29 248Q29 323 59 382T146 474T278 508Q368 508 430 463T515 330H378Q369 359 344 379T277 400Q236 400 210 379T172 324T159 248Q159 207 171 173T210 118T277 97Q316 97 341 114T378
166H515Q502 110 469 70T387 9T278 -12Z" />
<glyph unicode="d" horiz-adv-x="598" d="M259 -12Q187 -12 136 23T57 118T29 250Q29 322 57 380T137 473T259 508Q307 508 350 488T424 430V700H553V0H424V71Q399 30 354 9T259 -12ZM292 100Q332 100 361 119T408 171T425 248Q425 301 404 333T352 381T291 396Q252
396 223 377T176 326T159 250Q159 208 176 174T223 120T292 100Z" />
<glyph unicode="e" horiz-adv-x="553" d="M282 -12Q204 -12 148 22T60 115T29 248Q29 327 61 385T150 475T282 508Q356 508 411 476T498 388T530 259Q530 246 529 234T526 210H158Q161 175 176 149T218 108T279 93Q314 93 339 108T380 154H517Q503 110 472 72T394
11T282 -12ZM159 295H398Q397 345 362 374T278 403Q237 403 202 378T159 295Z" />
<glyph unicode="f" horiz-adv-x="309" d="M58 0V389H0V496H58V534Q58 624 103 662T227 700H269V591H247Q214 591 200 578T186 534V496H275V389H186V0H58Z" />
<glyph unicode="g" horiz-adv-x="527" d="M264 -232Q196 -232 142 -217T57 -169T25 -81Q25 -46 40 -21T86 24Q60 39 47 62T34 115Q34 181 96 217Q74 240 62 269T50 331Q50 385 76 424T148 486T253 508Q296 508 332 496H510V400H441Q447 383 451 366T456 331Q456
279 429 239T357 177T253 154Q228 154 207 158T166 173Q144 162 144 138Q144 94 217 94H308Q368 94 410 78T475 26T497 -63Q497 -115 466 -153T382 -211T264 -232ZM264 -132Q312 -132 345 -117T379 -70Q379 -11 297 -11H225Q185 -11 164 -26T142 -70Q142 -93 159
-106T204 -126T264 -132ZM252 254Q290 254 314 275T339 331Q339 364 315 386T252 408Q214 408 191 386T167 331Q167 297 189 276T252 254Z" />
<glyph unicode="h" horiz-adv-x="562" d="M45 0V700H172V438Q198 473 241 490T329 508Q415 508 470 453T525 292V0H398V275Q398 331 370 365T286 400Q231 400 202 366T172 275V0H45Z" />
<glyph unicode="i" horiz-adv-x="227" d="M114 560Q80 560 56 584T31 643Q31 678 55 702T114 726Q149 726 173 702T197 643Q197 609 173 585T114 560ZM50 0V496H178V0H50Z" />
<glyph unicode="j" horiz-adv-x="228" d="M-37 -220V-111H-10Q22 -111 36 -98T51 -54V496H179V-54Q179 -116 157 -152T97 -204T10 -220H-37ZM116 560Q81 560 57 584T33 643Q33 678 57 702T116 726Q151 726 175 702T199 643Q199 609 175 585T116 560Z" />
<glyph unicode="k" horiz-adv-x="523" d="M45 0V700H173V286L338 496H503L285 247L506 0H341L173 211V0H45Z" />
<glyph unicode="l" horiz-adv-x="219" d="M45 0V700H173V0H45Z" />
<glyph unicode="m" horiz-adv-x="906" d="M45 0V496H172V439Q197 474 236 491T318 508Q374 508 422 485T498 411Q523 457 567 482T665 508Q722 508 768 485T842 413T869 293V0H742V275Q742 331 715 364T632 397Q577 397 549 364T521 275V0H394V275Q394 332 366
364T284 397Q239 397 206 369T172 275V0H45Z" />
<glyph unicode="n" horiz-adv-x="562" d="M45 0V496H172V438Q198 473 241 490T329 508Q415 508 470 453T525 292V0H398V275Q398 331 370 365T286 400Q231 400 202 366T172 275V0H45Z" />
<glyph unicode="o" horiz-adv-x="582" d="M287 -12Q212 -12 154 20T62 112T29 248Q29 329 64 387T159 477T291 508Q366 508 425 476T518 385T553 248Q553 173 519 114T426 22T287 -12ZM289 99Q329 99 358 119T405 174T422 250Q422 297 404 330T355 380T289 397Q250
397 221 378T175 326T158 248Q158 204 175 170T223 118T289 99Z" />
<glyph unicode="p" horiz-adv-x="598" d="M45 -220V496H172V427Q201 467 244 487T339 508Q411 508 462 473T541 380T569 250Q569 179 541 119T462 24T339 -12Q276 -12 235 14T173 68V-220H45ZM305 100Q345 100 375 120T422 175T439 250Q439 297 421 329T372 379T305
396Q267 396 237 377T190 325T172 248Q172 207 189 173T236 120T305 100Z" />
<glyph unicode="q" horiz-adv-x="599" d="M426 -220V65Q407 40 366 15T262 -11Q195 -11 143 23T61 116T29 249Q29 321 59 379T142 472T264 507Q312 507 355 489T426 434V496H554V-220H426ZM292 100Q325 100 356 116T406 166T426 248Q426 291 409 324T361 376T292
396Q253 396 223 376T177 323T160 249Q160 207 177 173T223 120T292 100Z" />
<glyph unicode="r" horiz-adv-x="342" d="M45 0V496H172V422Q198 464 238 486T327 508V374H293Q232 374 202 345T172 248V0H45Z" />
<glyph unicode="s" horiz-adv-x="474" d="M248 -12Q192 -12 143 8T63 67T28 156H156Q161 124 187 106T247 88Q275 88 299 100T324 140Q324 161 306 173T264 192T220 204Q170 216 129 232T64 278T40 357Q40 405 67 439T140 490T239 508Q322 508 379 466T441 342H320Q317
374 294 390T235 407Q207 407 185 397T163 359Q163 339 181 327T224 307T268 294Q320 281 359 264T422 218T446 140Q446 91 419 57T346 6T248 -12Z" />
<glyph unicode="t" horiz-adv-x="351" d="M240 0Q160 0 120 39T79 156V389H15V496H79V617H207V496H320V389H207V155Q207 127 222 117T261 107H320V0H240Z" />
<glyph unicode="u" horiz-adv-x="562" d="M239 -12Q175 -12 130 15T61 91T37 202V496H164V221Q164 166 192 131T276 96Q333 96 361 130T389 221V496H517V0H389V58Q364 24 324 6T239 -12Z" />
<glyph unicode="v" horiz-adv-x="524" d="M185 0L-1 496H135L263 115L390 496H525L339 0H185Z" />
<glyph unicode="w" horiz-adv-x="747" d="M145 0L-3 496H126L215 119L311 496H446L540 120L629 496H751L604 1H467L375 347L283 0H145Z" />
<glyph unicode="x" horiz-adv-x="472" d="M0 0L164 249L-2 496H142L244 343L337 496H473L308 249L475 0H332L228 154L136 0H0Z" />
<glyph unicode="y" horiz-adv-x="535" d="M91 -220L200 23L-1 496H142L270 158L401 496H536L226 -220H91Z" />
<glyph unicode="z" horiz-adv-x="413" d="M22 0V103L242 392H23V496H388V394L167 105H391V0H22Z" />
<glyph unicode="{" horiz-adv-x="462" d="M338 -173Q261 -173 214 -131T167 -7Q167 26 172 53T182 110T188 174Q188 208 167 234T89 268V371Q145 378 166 403T188 465Q188 503 183 530T172 584T167 646Q167 727 214 769T338 811H401V705H362Q326 705 308 687T290
634Q290 615 292 596T300 556Q305 536 307 512T309 460Q309 407 283 370T200 320V318Q257 306 283 269T309 178Q309 150 307 127T300 83Q295 63 293 44T290 4Q290 -31 308 -49T362 -67H401V-173H338Z" />
<glyph unicode="|" horiz-adv-x="264" d="M68 -100V720H196V-100H68Z" />
<glyph unicode="}" horiz-adv-x="462" d="M61 -173V-67H100Q136 -67 154 -49T172 4Q172 24 170 43T163 83Q158 103 156 126T153 178Q153 231 179 268T262 318V320Q205 332 179 369T153 460Q153 488 155 512T163 556Q168 576 170 595T172 634Q172 669 154 687T100
705H61V811H124Q201 811 248 769T295 646Q295 611 290 584T280 530T274 465Q274 429 295 404T373 371V268Q317 261 296 235T274 174Q274 139 279 110T290 54T295 -7Q295 -89 248 -131T124 -173H61Z" />
<glyph unicode="~" horiz-adv-x="600" d="M387 228Q358 228 335 238T291 261T250 285T206 295Q178 295 162 279T141 229H46Q62 323 106 365T213 408Q242 408 266 398T310 375T351 352T395 342Q421 342 438 359T459 408H555Q540 314 496 271T387 228Z" />
<glyph unicode="&#xa0;" horiz-adv-x="238" />
<glyph unicode="&#xa1;" horiz-adv-x="296" d="M78 -139L92 340H200L215 -139H78ZM148 407Q113 407 89 431T65 490Q65 525 89 549T148 573Q183 573 207 549T231 490Q231 456 207 432T148 407Z" />
<glyph unicode="&#xa2;" horiz-adv-x="600" d="M247 -104V-6Q188 7 144 42T74 130Q61 156 55 185T49 248Q49 313 74 366T144 454Q166 471 192 483T247 502V600H365V503Q438 489 487 442T551 322H416Q406 358 377 378T307 399Q272 399 243 381T197 330T180 248Q180
201 197 167T243 115T307 97Q347 97 376 117T416 174H551Q536 103 487 55T365 -7V-104H247Z" />
<glyph unicode="&#xa3;" horiz-adv-x="621" d="M76 0V75Q102 101 120 127T147 186T157 263Q157 271 157 280T154 298H40V386H126Q117 412 111 440T104 499Q104 568 133 615T214 687T331 712Q389 712 431 695T502 648T545 579T562 496H444Q442 543 414 574T333
606Q304 606 279 594T240 558T225 495Q225 469 233 442T251 386H438V298H275Q277 289 277 280T278 263Q278 222 262 180T209 102H565V0H76Z" />
<glyph unicode="&#xa4;" horiz-adv-x="555" d="M115 81L63 134L120 191Q87 235 87 298Q87 329 95 356T121 405L63 464L115 516L178 453Q221 475 279 475Q335 475 378 453L440 516L492 464L435 406Q452 384 461 357T470 298Q470 267 462 240T436 190L492 134L440
81L379 142Q333 119 278 119Q220 119 176 142L115 81ZM278 201Q299 201 318 211T350 242T363 297Q363 348 337 371T278 394Q245 394 220 371T194 297Q194 246 219 224T278 201Z" />
<glyph unicode="&#xa5;" horiz-adv-x="641" d="M257 0V150H57V238H257V249L223 314H57V402H177L21 700H166L321 366L476 700H620L465 402H585V313H419L385 249V238H585V150H385V0H257Z" />
<glyph unicode="&#xa6;" horiz-adv-x="264" d="M68 394V720H196V394H68ZM68 -100V226H196V-100H68Z" />
<glyph unicode="&#xa7;" horiz-adv-x="609" d="M301 -232Q234 -232 180 -208T95 -138T61 -30H198Q199 -53 211 -74T246 -110T303 -124Q328 -124 350 -116T386 -89T401 -41Q401 -3 378 14T320 45Q301 51 279 58T233 73Q184 90 141 115T70 181T43 280Q43 361 99
417Q72 456 72 512Q71 574 101 619T186 688T307 712Q375 712 428 688T514 619T547 510H410Q409 530 399 552T367 589T305 604Q264 606 235 584T206 521Q206 486 228 467Q250 448 288 436Q307 429 328 422T375 407Q401 398 424 388T470 364Q492 351 509 335T539
299Q565 258 565 200Q565 181 562 162T551 126Q538 90 509 63Q536 24 536 -32Q536 -97 504 -141T419 -209T301 -232ZM408 134Q429 157 429 191Q429 218 418 235T389 265T347 288Q334 294 317 300T282 313T249 324T226 334Q219 337 213 340T200 346Q179 324 179
289Q179 263 190 245T219 214T260 192Q277 185 302 176T351 157T391 141T408 134Z" />
<glyph unicode="&#xa8;" horiz-adv-x="500" d="M160 560Q125 560 101 584T77 643Q77 678 101 702T160 726Q195 726 219 702T243 643Q243 608 219 584T160 560ZM382 560Q347 560 323 584T299 643Q299 678 323 702T382 726Q417 726 441 702T465 643Q465 608 441
584T382 560Z" />
<glyph unicode="&#xa9;" horiz-adv-x="786" d="M393 -6Q290 -6 212 40T89 167Q44 247 44 352Q44 456 88 536T212 663Q290 708 393 708Q497 708 575 663T698 537Q742 455 742 352Q742 247 698 167T576 40Q497 -6 393 -6ZM394 123Q332 123 283 150T204 230Q175 282
175 352Q175 423 203 474T282 553Q307 567 335 574T394 581Q471 581 527 539T601 422H489Q478 455 453 473T391 492Q344 492 313 457T281 352Q281 282 312 247T391 211Q429 211 453 230T489 281H601Q584 209 528 166T394 123ZM393 41Q486 41 553 80T657 189Q693
260 693 352Q693 445 657 515T553 624Q519 643 480 652T393 662Q301 662 234 624T131 515Q94 445 94 352Q94 259 130 189T234 80Q302 41 393 41Z" />
<glyph unicode="&#xaa;" horiz-adv-x="404" d="M146 347Q118 347 91 359T47 394T29 450Q29 490 49 514T102 550T174 561H257Q256 593 240 614T191 635Q168 635 151 623T128 588H39Q47 627 68 654T122 696T194 710Q224 710 251 701T300 674T334 627T347 559V464Q347
446 357 438T384 429V354H367Q332 354 306 367T267 406Q247 377 217 362T146 347ZM172 418Q195 418 214 428T245 458T257 504H180Q158 504 139 494T120 460Q120 438 135 428T172 418Z" />
<glyph unicode="&#xab;" horiz-adv-x="505" d="M334 120L244 295L334 470H455L362 295L455 120H334ZM133 120L42 295L133 470H253L160 295L253 120H133Z" />
<glyph unicode="&#xac;" horiz-adv-x="600" d="M429 201V338H44V437H557V201H429Z" />
<glyph unicode="&#xae;" horiz-adv-x="367" d="M184 425Q145 425 112 444T60 496T40 568Q40 608 59 640T112 692T184 712Q224 712 256 693T307 641T327 568Q327 529 308 497T256 445T184 425ZM117 496Q118 498 124 509T138 533T152 557T158 568Q129 578 129 607Q129
622 139 636T177 651H231V496H203V561H185Q185 561 180 552T168 530T156 507T150 496H117ZM184 448Q217 448 244 464T288 508T304 568Q304 601 288 628T245 672T184 688Q151 688 124 672T81 629T64 568Q64 535 80 508T124 465T184 448ZM184 585H203V628H181Q156
628 156 607Q156 596 164 591T184 585Z" />
<glyph unicode="&#xaf;" horiz-adv-x="500" d="M73 599V690H427V599H73Z" />
<glyph unicode="&#xb0;" horiz-adv-x="360" d="M180 426Q141 426 109 443T56 493T36 569Q36 613 56 645T108 694T180 712Q242 712 283 674T325 569Q325 503 284 465T180 426ZM180 508Q205 508 222 525T240 569Q240 597 223 613T180 630Q156 630 139 614T122 569Q122
542 139 525T180 508Z" />
<glyph unicode="&#xb1;" horiz-adv-x="600" d="M246 154V282H54V389H246V516H355V389H547V282H355V154H246ZM54 0V112H547V0H54Z" />
<glyph unicode="&#xb2;" horiz-adv-x="311" d="M30 347V402Q49 422 63 437T89 463T108 483T122 498T135 511Q160 537 177 557T194 595Q194 615 183 626T152 638Q127 638 117 622T106 586H31Q33 643 66 674T153 705Q206 705 237 677T269 596Q269 560 249 533T197
475L138 415H278V347H30Z" />
<glyph unicode="&#xb3;" horiz-adv-x="316" d="M159 342Q102 342 66 372T30 459H105Q105 437 119 424T159 410Q184 410 198 423T212 461Q212 485 197 497T159 510Q151 510 142 508T122 498L79 548L172 632H40V700H275V638L199 569Q239 561 262 532T286 462Q286
407 252 375T159 342Z" />
<glyph unicode="&#xb4;" horiz-adv-x="500" d="M137 539V629L363 751V647L137 539Z" />
<glyph unicode="&#xb5;" horiz-adv-x="617" d="M65 -220V496H193V228Q193 164 219 130T301 96Q355 96 389 134T423 240V496H551V0H439L429 84Q405 40 362 14T260 -12Q240 -12 224 -8T193 4V-220H65Z" />
<glyph unicode="&#xb6;" horiz-adv-x="641" d="M285 -100V283H268Q185 283 133 311T56 388Q43 411 37 437T31 491Q31 547 56 594T134 671Q160 685 193 692T268 700H573V-100H465V602H393V-100H285Z" />
<glyph unicode="&#xb7;" horiz-adv-x="240" d="M120 255Q85 255 61 279T37 338Q37 373 61 397T120 421Q155 421 179 397T203 338Q203 304 179 280T120 255Z" />
<glyph unicode="&#xb8;" horiz-adv-x="500" d="M120 -263V-189H232Q285 -189 285 -153Q285 -118 232 -118H171V17H251V-50Q286 -49 315 -60T363 -95T381 -155Q381 -191 363 -215T316 -251T251 -263H120Z" />
<glyph unicode="&#xb9;" horiz-adv-x="306" d="M40 347V415H130V614L43 594V656L163 700H204V415H284V347H40Z" />
<glyph unicode="&#xba;" horiz-adv-x="419" d="M207 349Q156 349 116 371T53 435T29 531Q29 589 54 629T120 690T210 712Q261 712 301 690T366 627T390 531Q390 480 368 439T304 373T207 349ZM207 426Q237 426 257 440T288 478T299 531Q299 575 276 605T209 635Q180
635 160 621T130 584T119 531Q119 487 142 457T207 426Z" />
<glyph unicode="&#xbb;" horiz-adv-x="505" d="M252 120L345 295L252 470H373L463 295L373 120H252ZM50 120L143 295L50 470H171L261 295L171 120H50Z" />
<glyph unicode="&#xbc;" horiz-adv-x="765" d="M80 0L600 700H698L178 0H80ZM35 347V415H125V614L38 594V656L158 700H199V415H279V347H35ZM608 0V63H444V122L560 353H638L529 132H612V220H685V132H724V63H685V0H608Z" />
<glyph unicode="&#xbd;" horiz-adv-x="770" d="M35 347V415H125V614L38 594V656L158 700H199V415H279V347H35ZM86 0L606 700H704L184 0H86ZM477 0V55L582 164Q607 190 624 210T641 248Q641 268 630 279T599 291Q574 291 564 275T553 239H478Q480 296 513 327T600
358Q653 358 684 330T716 249Q716 213 696 186T644 128L585 68H725V0H477Z" />
<glyph unicode="&#xbe;" horiz-adv-x="775" d="M90 0L610 700H708L188 0H90ZM618 0V63H454V122L570 353H648L539 132H622V220H695V132H734V63H695V0H618ZM169 342Q112 342 76 372T40 459H115Q115 437 129 424T169 410Q194 410 208 423T222 461Q222 485 207 497T169
510Q161 510 152 508T132 498L89 548L182 632H50V700H285V638L209 569Q249 561 272 532T296 462Q296 407 262 375T169 342Z" />
<glyph unicode="&#xbf;" horiz-adv-x="527" d="M268 -156Q201 -156 150 -131T68 -60Q39 -11 39 54Q39 123 69 168T152 235Q178 246 209 251T274 258L277 338H390L394 173H348Q297 173 255 164T188 129Q163 104 163 53Q163 5 192 -22T269 -50Q319 -50 347 -23T375
52H496Q497 -8 470 -55T391 -129Q340 -156 268 -156ZM333 402Q299 402 275 426T250 485Q250 520 274 544T333 568Q368 568 392 544T416 485Q416 451 392 427T333 402Z" />
<glyph unicode="&#xc0;" horiz-adv-x="694" d="M19 0L275 700H419L675 0H539L484 159H209L153 0H19ZM245 262H448L346 553L245 262ZM460 740L234 848V952L460 830V740Z" />
<glyph unicode="&#xc1;" horiz-adv-x="694" d="M19 0L275 700H419L675 0H539L484 159H209L153 0H19ZM245 262H448L346 553L245 262ZM234 740V830L460 952V848L234 740Z" />
<glyph unicode="&#xc2;" horiz-adv-x="694" d="M19 0L275 700H419L675 0H539L484 159H209L153 0H19ZM245 262H448L346 553L245 262ZM201 747V839L347 919L493 839V747L347 829L201 747Z" />
<glyph unicode="&#xc3;" horiz-adv-x="694" d="M19 0L275 700H419L675 0H539L484 159H209L153 0H19ZM245 262H448L346 553L245 262ZM405 752Q378 752 359 763T323 786T282 798Q247 798 239 753H171Q181 817 211 847T288 877Q316 877 334 866T370 843T411 831Q428
831 439 842T454 876H522Q513 812 482 782T405 752Z" />
<glyph unicode="&#xc4;" horiz-adv-x="694" d="M19 0L275 700H419L675 0H539L484 159H209L153 0H19ZM245 262H448L346 553L245 262ZM236 768Q201 768 177 792T153 851Q153 886 177 910T236 934Q271 934 295 910T319 851Q319 816 295 792T236 768ZM458 768Q423
768 399 792T375 851Q375 886 399 910T458 934Q493 934 517 910T541 851Q541 816 517 792T458 768Z" />
<glyph unicode="&#xc5;" horiz-adv-x="694" d="M19 0L275 700H419L675 0H539L484 159H209L153 0H19ZM245 262H448L346 553L245 262ZM346 751Q300 751 267 781T233 863Q233 915 266 945T346 975Q394 975 427 945T461 863Q461 811 428 781T346 751ZM346 809Q369
809 384 824T399 863Q399 888 384 902T346 917Q325 917 310 903T295 863Q295 839 310 824T346 809Z" />
<glyph unicode="&#xc6;" horiz-adv-x="931" d="M19 0L398 700H881V591H610V424H837V315H610V109H881V0H482V136H232L158 0H19ZM286 237H482V602L286 237Z" />
<glyph unicode="&#xc7;" horiz-adv-x="729" d="M381 -12Q273 -12 197 35T81 163T41 349Q41 453 80 535T195 664T381 712Q507 712 587 650T688 474H547Q534 531 492 563T379 596Q315 596 269 566T197 481T172 349Q172 273 197 218T268 133T379 103Q449 103 491
133T547 218H688Q668 110 588 49T381 -12ZM289 -263V-189H401Q454 -189 454 -153Q454 -118 401 -118H340V17H420V-50Q455 -49 484 -60T532 -95T550 -155Q550 -191 532 -215T485 -251T420 -263H289Z" />
<glyph unicode="&#xc8;" horiz-adv-x="562" d="M64 0V700H513V591H192V424H467V315H192V109H513V0H64ZM394 740L168 848V952L394 830V740Z" />
<glyph unicode="&#xc9;" horiz-adv-x="562" d="M64 0V700H513V591H192V424H467V315H192V109H513V0H64ZM168 740V830L394 952V848L168 740Z" />
<glyph unicode="&#xca;" horiz-adv-x="562" d="M64 0V700H513V591H192V424H467V315H192V109H513V0H64ZM135 747V839L281 919L427 839V747L281 829L135 747Z" />
<glyph unicode="&#xcb;" horiz-adv-x="562" d="M64 0V700H513V591H192V424H467V315H192V109H513V0H64ZM170 768Q135 768 111 792T87 851Q87 886 111 910T170 934Q205 934 229 910T253 851Q253 816 229 792T170 768ZM392 768Q357 768 333 792T309 851Q309 886 333
910T392 934Q427 934 451 910T475 851Q475 816 451 792T392 768Z" />
<glyph unicode="&#xcc;" horiz-adv-x="256" d="M64 0V700H192V0H64ZM241 740L15 848V952L241 830V740Z" />
<glyph unicode="&#xcd;" horiz-adv-x="256" d="M64 0V700H192V0H64ZM15 740V830L241 952V848L15 740Z" />
<glyph unicode="&#xce;" horiz-adv-x="256" d="M64 0V700H192V0H64ZM238 747V839L384 919L530 839V747L384 829L238 747Z" />
<glyph unicode="&#xcf;" horiz-adv-x="256" d="M64 0V700H192V0H64ZM273 768Q238 768 214 792T190 851Q190 886 214 910T273 934Q308 934 332 910T356 851Q356 816 332 792T273 768ZM495 768Q460 768 436 792T412 851Q412 886 436 910T495 934Q530 934 554 910T578
851Q578 816 554 792T495 768Z" />
<glyph unicode="&#xd0;" horiz-adv-x="716" d="M77 0V295H2V405H77V700H316Q441 700 520 656T637 533T675 350Q675 238 634 160T512 41T316 0H77ZM205 110H310Q399 110 450 139T522 222T544 350Q544 475 487 533T310 591H205V405H382V295H205V110Z" />
<glyph unicode="&#xd1;" horiz-adv-x="713" d="M64 0V700H192L521 211V700H649V0H521L192 488V0H64ZM415 752Q388 752 369 763T333 786T292 798Q257 798 249 753H181Q191 817 221 847T298 877Q326 877 344 866T380 843T421 831Q438 831 449 842T464 876H532Q523
812 492 782T415 752Z" />
<glyph unicode="&#xd2;" horiz-adv-x="797" d="M398 -12Q328 -12 264 13T149 85T70 199T41 350Q41 434 70 501T149 615T263 687T398 712Q469 712 533 687T648 615T727 501T756 350Q756 266 727 199T648 85T534 13T398 -12ZM398 104Q454 104 506 130T591 212T624
350Q624 434 591 489T506 570T398 597Q343 597 291 571T206 489T173 350Q173 267 206 212T291 131T398 104ZM512 740L286 848V952L512 830V740Z" />
<glyph unicode="&#xd3;" horiz-adv-x="797" d="M398 -12Q328 -12 264 13T149 85T70 199T41 350Q41 434 70 501T149 615T263 687T398 712Q469 712 533 687T648 615T727 501T756 350Q756 266 727 199T648 85T534 13T398 -12ZM398 104Q454 104 506 130T591 212T624
350Q624 434 591 489T506 570T398 597Q343 597 291 571T206 489T173 350Q173 267 206 212T291 131T398 104ZM286 740V830L512 952V848L286 740Z" />
<glyph unicode="&#xd4;" horiz-adv-x="797" d="M398 -12Q328 -12 264 13T149 85T70 199T41 350Q41 434 70 501T149 615T263 687T398 712Q469 712 533 687T648 615T727 501T756 350Q756 266 727 199T648 85T534 13T398 -12ZM398 104Q454 104 506 130T591 212T624
350Q624 434 591 489T506 570T398 597Q343 597 291 571T206 489T173 350Q173 267 206 212T291 131T398 104ZM253 747V839L399 919L545 839V747L399 829L253 747Z" />
<glyph unicode="&#xd5;" horiz-adv-x="797" d="M398 -12Q328 -12 264 13T149 85T70 199T41 350Q41 434 70 501T149 615T263 687T398 712Q469 712 533 687T648 615T727 501T756 350Q756 266 727 199T648 85T534 13T398 -12ZM398 104Q454 104 506 130T591 212T624
350Q624 434 591 489T506 570T398 597Q343 597 291 571T206 489T173 350Q173 267 206 212T291 131T398 104ZM457 752Q430 752 411 763T375 786T334 798Q299 798 291 753H223Q233 817 263 847T340 877Q368 877 386 866T422 843T463 831Q480 831 491 842T506 876H574Q565
812 534 782T457 752Z" />
<glyph unicode="&#xd6;" horiz-adv-x="797" d="M398 -12Q328 -12 264 13T149 85T70 199T41 350Q41 434 70 501T149 615T263 687T398 712Q469 712 533 687T648 615T727 501T756 350Q756 266 727 199T648 85T534 13T398 -12ZM398 104Q454 104 506 130T591 212T624
350Q624 434 591 489T506 570T398 597Q343 597 291 571T206 489T173 350Q173 267 206 212T291 131T398 104ZM288 768Q253 768 229 792T205 851Q205 886 229 910T288 934Q323 934 347 910T371 851Q371 816 347 792T288 768ZM510 768Q475 768 451 792T427 851Q427
886 451 910T510 934Q545 934 569 910T593 851Q593 816 569 792T510 768Z" />
<glyph unicode="&#xd7;" horiz-adv-x="600" d="M176 89L100 164L225 290L103 412L179 488L301 365L426 491L501 415L376 290L499 167L423 92L301 215L176 89Z" />
<glyph unicode="&#xd8;" horiz-adv-x="776" d="M391 -12Q332 -12 281 3T189 46L149 0H27L120 109Q82 155 62 216T41 350Q41 455 84 537T205 665T391 712Q448 712 498 698T590 656L628 700H750L659 595Q699 548 720 486T741 350Q741 245 698 164T577 35T391 -12ZM391
103Q458 103 507 133T583 218T611 350Q611 393 602 429T575 497L267 138Q320 103 391 103ZM204 207L511 564Q460 597 391 597Q325 597 276 567T199 482T171 350Q171 309 179 273T204 207Z" />
<glyph unicode="&#xd9;" horiz-adv-x="673" d="M334 -12Q238 -12 178 26T89 129T60 268V700H188V267Q188 185 227 145T337 105Q406 105 446 145T486 267V700H614V268Q614 189 589 135T523 49T432 3T334 -12ZM450 740L224 848V952L450 830V740Z" />
<glyph unicode="&#xda;" horiz-adv-x="673" d="M334 -12Q238 -12 178 26T89 129T60 268V700H188V267Q188 185 227 145T337 105Q406 105 446 145T486 267V700H614V268Q614 189 589 135T523 49T432 3T334 -12ZM224 740V830L450 952V848L224 740Z" />
<glyph unicode="&#xdb;" horiz-adv-x="673" d="M334 -12Q238 -12 178 26T89 129T60 268V700H188V267Q188 185 227 145T337 105Q406 105 446 145T486 267V700H614V268Q614 189 589 135T523 49T432 3T334 -12ZM191 747V839L337 919L483 839V747L337 829L191 747Z" />
<glyph unicode="&#xdc;" horiz-adv-x="673" d="M334 -12Q238 -12 178 26T89 129T60 268V700H188V267Q188 185 227 145T337 105Q406 105 446 145T486 267V700H614V268Q614 189 589 135T523 49T432 3T334 -12ZM226 768Q191 768 167 792T143 851Q143 886 167 910T226
934Q261 934 285 910T309 851Q309 816 285 792T226 768ZM448 768Q413 768 389 792T365 851Q365 886 389 910T448 934Q483 934 507 910T531 851Q531 816 507 792T448 768Z" />
<glyph unicode="&#xdd;" horiz-adv-x="617" d="M245 0V281L10 700H155L310 409L464 700H607L373 281V0H245ZM196 740V830L422 952V848L196 740Z" />
<glyph unicode="&#xde;" horiz-adv-x="599" d="M64 0V700H192V565H323Q407 565 462 537T544 460Q571 411 571 349Q571 292 545 244T464 166Q409 136 323 136H192V0H64ZM192 239H315Q382 239 411 269T441 349Q441 401 412 430T315 460H192V239Z" />
<glyph unicode="&#xdf;" horiz-adv-x="667" d="M454 -10Q369 -10 308 35T236 175H357Q362 133 387 109T452 85Q487 85 509 101T531 151Q531 178 518 193T484 219T438 238Q402 251 367 266T308 306T284 370Q284 397 297 417T329 450Q339 457 348 463T367 476Q383
488 397 503T411 543Q411 587 377 606T299 625Q256 625 228 610T187 567T174 499V0H46V509Q46 582 80 631T172 706T304 732Q369 732 422 712T506 652T538 556Q538 526 526 505T495 470T457 442Q443 433 428 421T413 390Q413 375 423 365T455 345T515 321Q578 298
617 262T656 159Q656 106 630 68T559 10T454 -10Z" />
<glyph unicode="&#xe0;" horiz-adv-x="555" d="M197 -12Q153 -12 115 6T54 57T30 137Q30 192 57 227T131 279T238 296H356Q356 330 346 353T315 388T264 401Q229 401 202 386T168 334H40Q45 388 77 427T159 487T266 508Q336 508 384 482T459 409T485 296V145Q487
123 501 115T538 107V0Q491 0 460 9T408 35T374 80Q351 41 303 15T197 -12ZM234 91Q267 91 294 106T339 148T356 210V214H246Q224 214 204 208T172 188T160 151Q160 120 181 106T234 91ZM379 539L153 647V751L379 629V539Z" />
<glyph unicode="&#xe1;" horiz-adv-x="555" d="M197 -12Q153 -12 115 6T54 57T30 137Q30 192 57 227T131 279T238 296H356Q356 330 346 353T315 388T264 401Q229 401 202 386T168 334H40Q45 388 77 427T159 487T266 508Q336 508 384 482T459 409T485 296V145Q487
123 501 115T538 107V0Q491 0 460 9T408 35T374 80Q351 41 303 15T197 -12ZM234 91Q267 91 294 106T339 148T356 210V214H246Q224 214 204 208T172 188T160 151Q160 120 181 106T234 91ZM153 539V629L379 751V647L153 539Z" />
<glyph unicode="&#xe2;" horiz-adv-x="555" d="M197 -12Q153 -12 115 6T54 57T30 137Q30 192 57 227T131 279T238 296H356Q356 330 346 353T315 388T264 401Q229 401 202 386T168 334H40Q45 388 77 427T159 487T266 508Q336 508 384 482T459 409T485 296V145Q487
123 501 115T538 107V0Q491 0 460 9T408 35T374 80Q351 41 303 15T197 -12ZM234 91Q267 91 294 106T339 148T356 210V214H246Q224 214 204 208T172 188T160 151Q160 120 181 106T234 91ZM120 554V646L266 726L412 646V554L266 636L120 554Z" />
<glyph unicode="&#xe3;" horiz-adv-x="555" d="M197 -12Q153 -12 115 6T54 57T30 137Q30 192 57 227T131 279T238 296H356Q356 330 346 353T315 388T264 401Q229 401 202 386T168 334H40Q45 388 77 427T159 487T266 508Q336 508 384 482T459 409T485 296V145Q487
123 501 115T538 107V0Q491 0 460 9T408 35T374 80Q351 41 303 15T197 -12ZM234 91Q267 91 294 106T339 148T356 210V214H246Q224 214 204 208T172 188T160 151Q160 120 181 106T234 91ZM324 579Q297 579 278 590T242 613T201 625Q183 625 173 614T158 580H90Q100
644 130 674T207 704Q235 704 253 693T289 670T330 658Q347 658 358 669T373 703H441Q432 639 401 609T324 579Z" />
<glyph unicode="&#xe4;" horiz-adv-x="555" d="M197 -12Q153 -12 115 6T54 57T30 137Q30 192 57 227T131 279T238 296H356Q356 330 346 353T315 388T264 401Q229 401 202 386T168 334H40Q45 388 77 427T159 487T266 508Q336 508 384 482T459 409T485 296V145Q487
123 501 115T538 107V0Q491 0 460 9T408 35T374 80Q351 41 303 15T197 -12ZM234 91Q267 91 294 106T339 148T356 210V214H246Q224 214 204 208T172 188T160 151Q160 120 181 106T234 91ZM155 560Q120 560 96 584T72 643Q72 678 96 702T155 726Q190 726 214 702T238
643Q238 608 214 584T155 560ZM377 560Q342 560 318 584T294 643Q294 678 318 702T377 726Q412 726 436 702T460 643Q460 608 436 584T377 560Z" />
<glyph unicode="&#xe5;" horiz-adv-x="555" d="M197 -12Q153 -12 115 6T54 57T30 137Q30 192 57 227T131 279T238 296H356Q356 330 346 353T315 388T264 401Q229 401 202 386T168 334H40Q45 388 77 427T159 487T266 508Q336 508 384 482T459 409T485 296V145Q487
123 501 115T538 107V0Q491 0 460 9T408 35T374 80Q351 41 303 15T197 -12ZM234 91Q267 91 294 106T339 148T356 210V214H246Q224 214 204 208T172 188T160 151Q160 120 181 106T234 91ZM265 545Q219 545 186 575T152 657Q152 709 185 739T265 769Q313 769 346
739T380 657Q380 605 347 575T265 545ZM265 603Q288 603 303 618T318 657Q318 682 303 696T265 711Q244 711 229 697T214 657Q214 633 229 618T265 603Z" />
<glyph unicode="&#xe6;" horiz-adv-x="901" d="M225 -12Q171 -12 127 6T56 58T30 139Q30 186 53 221T123 276T242 296H375Q375 354 347 379T277 404Q240 404 212 386T177 333H52Q58 391 91 430T173 488T277 508Q336 508 382 490T456 436Q489 470 534 489T632 508Q702
508 757 478T845 393T878 264Q878 254 878 242T876 216H506Q510 177 527 150T572 108T631 93Q669 93 695 110T735 154H864Q850 109 819 72T740 11T632 -12Q567 -12 514 15T426 90Q396 46 348 17T225 -12ZM243 88Q277 88 303 104T347 147T370 207V216H258Q209 216
187 198T165 152Q165 123 186 106T243 88ZM508 296H749Q745 347 713 375T633 404Q588 404 553 377T508 296Z" />
<glyph unicode="&#xe7;" horiz-adv-x="544" d="M278 -12Q203 -12 147 21T60 113T29 248Q29 323 59 382T146 474T278 508Q368 508 430 463T515 330H378Q369 359 344 379T277 400Q236 400 210 379T172 324T159 248Q159 207 171 173T210 118T277 97Q316 97 341 114T378
166H515Q502 110 469 70T387 9T278 -12ZM184 -263V-189H296Q349 -189 349 -153Q349 -118 296 -118H235V17H315V-50Q350 -49 379 -60T427 -95T445 -155Q445 -191 427 -215T380 -251T315 -263H184Z" />
<glyph unicode="&#xe8;" horiz-adv-x="553" d="M282 -12Q204 -12 148 22T60 115T29 248Q29 327 61 385T150 475T282 508Q356 508 411 476T498 388T530 259Q530 246 529 234T526 210H158Q161 175 176 149T218 108T279 93Q314 93 339 108T380 154H517Q503 110 472
72T394 11T282 -12ZM159 295H398Q397 345 362 374T278 403Q237 403 202 378T159 295ZM390 539L164 647V751L390 629V539Z" />
<glyph unicode="&#xe9;" horiz-adv-x="553" d="M282 -12Q204 -12 148 22T60 115T29 248Q29 327 61 385T150 475T282 508Q356 508 411 476T498 388T530 259Q530 246 529 234T526 210H158Q161 175 176 149T218 108T279 93Q314 93 339 108T380 154H517Q503 110 472
72T394 11T282 -12ZM159 295H398Q397 345 362 374T278 403Q237 403 202 378T159 295ZM164 539V629L390 751V647L164 539Z" />
<glyph unicode="&#xea;" horiz-adv-x="553" d="M282 -12Q204 -12 148 22T60 115T29 248Q29 327 61 385T150 475T282 508Q356 508 411 476T498 388T530 259Q530 246 529 234T526 210H158Q161 175 176 149T218 108T279 93Q314 93 339 108T380 154H517Q503 110 472
72T394 11T282 -12ZM159 295H398Q397 345 362 374T278 403Q237 403 202 378T159 295ZM131 554V646L277 726L423 646V554L277 636L131 554Z" />
<glyph unicode="&#xeb;" horiz-adv-x="553" d="M282 -12Q204 -12 148 22T60 115T29 248Q29 327 61 385T150 475T282 508Q356 508 411 476T498 388T530 259Q530 246 529 234T526 210H158Q161 175 176 149T218 108T279 93Q314 93 339 108T380 154H517Q503 110 472
72T394 11T282 -12ZM159 295H398Q397 345 362 374T278 403Q237 403 202 378T159 295ZM166 560Q131 560 107 584T83 643Q83 678 107 702T166 726Q201 726 225 702T249 643Q249 608 225 584T166 560ZM388 560Q353 560 329 584T305 643Q305 678 329 702T388 726Q423
726 447 702T471 643Q471 608 447 584T388 560Z" />
<glyph unicode="&#xec;" horiz-adv-x="219" d="M45 0V496H173V0H45ZM479 539L253 647V751L479 629V539Z" />
<glyph unicode="&#xed;" horiz-adv-x="219" d="M45 0V496H173V0H45ZM253 539V629L479 751V647L253 539Z" />
<glyph unicode="&#xee;" horiz-adv-x="219" d="M45 0V496H173V0H45ZM220 554V646L366 726L512 646V554L366 636L220 554Z" />
<glyph unicode="&#xef;" horiz-adv-x="219" d="M45 0V496H173V0H45ZM265 560Q230 560 206 584T182 643Q182 678 206 702T265 726Q300 726 324 702T348 643Q348 608 324 584T265 560ZM467 560Q432 560 408 584T384 643Q384 678 408 702T467 726Q502 726 526 702T550
643Q550 608 526 584T467 560Z" />
<glyph unicode="&#xf0;" horiz-adv-x="605" d="M299 -12Q220 -12 160 22T64 115Q47 144 38 176T29 246Q29 320 64 378T157 470Q216 503 290 503Q330 503 366 492T434 456Q423 487 407 517T370 578L244 537V614L321 639Q307 656 292 671T259 700H380Q388 693 396
685T413 669L535 709V632L465 609Q521 534 548 451T576 289Q576 197 539 130T439 25Q377 -12 299 -12ZM303 99Q346 99 378 118T428 170T446 247Q446 300 424 332T368 380T302 395Q261 395 229 376T179 325T161 249Q161 207 179 173T230 119T303 99Z" />
<glyph unicode="&#xf1;" horiz-adv-x="562" d="M45 0V496H172V438Q198 473 241 490T329 508Q415 508 470 453T525 292V0H398V275Q398 331 370 365T286 400Q231 400 202 366T172 275V0H45ZM344 579Q317 579 298 590T262 613T221 625Q203 625 193 614T178 580H110Q120
644 150 674T227 704Q255 704 273 693T309 670T350 658Q367 658 378 669T393 703H461Q452 639 421 609T344 579Z" />
<glyph unicode="&#xf2;" horiz-adv-x="582" d="M287 -12Q212 -12 154 20T62 112T29 248Q29 329 64 387T159 477T291 508Q366 508 425 476T518 385T553 248Q553 173 519 114T426 22T287 -12ZM289 99Q329 99 358 119T405 174T422 250Q422 297 404 330T355 380T289
397Q250 397 221 378T175 326T158 248Q158 204 175 170T223 118T289 99ZM404 539L178 647V751L404 629V539Z" />
<glyph unicode="&#xf3;" horiz-adv-x="582" d="M287 -12Q212 -12 154 20T62 112T29 248Q29 329 64 387T159 477T291 508Q366 508 425 476T518 385T553 248Q553 173 519 114T426 22T287 -12ZM289 99Q329 99 358 119T405 174T422 250Q422 297 404 330T355 380T289
397Q250 397 221 378T175 326T158 248Q158 204 175 170T223 118T289 99ZM178 539V629L404 751V647L178 539Z" />
<glyph unicode="&#xf4;" horiz-adv-x="582" d="M287 -12Q212 -12 154 20T62 112T29 248Q29 329 64 387T159 477T291 508Q366 508 425 476T518 385T553 248Q553 173 519 114T426 22T287 -12ZM289 99Q329 99 358 119T405 174T422 250Q422 297 404 330T355 380T289
397Q250 397 221 378T175 326T158 248Q158 204 175 170T223 118T289 99ZM145 554V646L291 726L437 646V554L291 636L145 554Z" />
<glyph unicode="&#xf5;" horiz-adv-x="582" d="M287 -12Q212 -12 154 20T62 112T29 248Q29 329 64 387T159 477T291 508Q366 508 425 476T518 385T553 248Q553 173 519 114T426 22T287 -12ZM289 99Q329 99 358 119T405 174T422 250Q422 297 404 330T355 380T289
397Q250 397 221 378T175 326T158 248Q158 204 175 170T223 118T289 99ZM349 579Q322 579 303 590T267 613T226 625Q208 625 198 614T183 580H115Q125 644 155 674T232 704Q260 704 278 693T314 670T355 658Q372 658 383 669T398 703H466Q457 639 426 609T349 579Z"
/>
<glyph unicode="&#xf6;" horiz-adv-x="582" d="M287 -12Q212 -12 154 20T62 112T29 248Q29 329 64 387T159 477T291 508Q366 508 425 476T518 385T553 248Q553 173 519 114T426 22T287 -12ZM289 99Q329 99 358 119T405 174T422 250Q422 297 404 330T355 380T289
397Q250 397 221 378T175 326T158 248Q158 204 175 170T223 118T289 99ZM180 560Q145 560 121 584T97 643Q97 678 121 702T180 726Q215 726 239 702T263 643Q263 608 239 584T180 560ZM402 560Q367 560 343 584T319 643Q319 678 343 702T402 726Q437 726 461 702T485
643Q485 608 461 584T402 560Z" />
<glyph unicode="&#xf7;" horiz-adv-x="600" d="M75 236V343H525V236H75ZM300 22Q263 22 240 46T217 104Q217 140 240 164T300 188Q337 188 360 164T383 104Q383 70 360 46T300 22ZM300 392Q263 392 240 416T217 475Q217 511 240 534T300 558Q337 558 360 535T383
475Q383 441 360 417T300 392Z" />
<glyph unicode="&#xf8;" horiz-adv-x="582" d="M287 -12Q205 -12 145 25L123 0H21L87 75Q59 108 44 152T29 248Q29 329 64 387T159 477T291 508Q332 508 368 498T436 469L459 496H561L494 420Q522 387 537 344T553 248Q553 173 519 114T426 22T287 -12ZM289 99Q329
99 358 119T405 174T422 250Q422 271 419 289T407 322L226 116Q254 99 289 99ZM174 173L356 379Q326 397 289 397Q250 397 221 378T175 326T158 248Q158 227 162 209T174 173Z" />
<glyph unicode="&#xf9;" horiz-adv-x="562" d="M239 -12Q175 -12 130 15T61 91T37 202V496H164V221Q164 166 192 131T276 96Q333 96 361 130T389 221V496H517V0H389V58Q364 24 324 6T239 -12ZM393 539L167 647V751L393 629V539Z" />
<glyph unicode="&#xfa;" horiz-adv-x="562" d="M239 -12Q175 -12 130 15T61 91T37 202V496H164V221Q164 166 192 131T276 96Q333 96 361 130T389 221V496H517V0H389V58Q364 24 324 6T239 -12ZM167 539V629L393 751V647L167 539Z" />
<glyph unicode="&#xfb;" horiz-adv-x="562" d="M239 -12Q175 -12 130 15T61 91T37 202V496H164V221Q164 166 192 131T276 96Q333 96 361 130T389 221V496H517V0H389V58Q364 24 324 6T239 -12ZM134 554V646L280 726L426 646V554L280 636L134 554Z" />
<glyph unicode="&#xfc;" horiz-adv-x="562" d="M239 -12Q175 -12 130 15T61 91T37 202V496H164V221Q164 166 192 131T276 96Q333 96 361 130T389 221V496H517V0H389V58Q364 24 324 6T239 -12ZM169 560Q134 560 110 584T86 643Q86 678 110 702T169 726Q204 726
228 702T252 643Q252 608 228 584T169 560ZM391 560Q356 560 332 584T308 643Q308 678 332 702T391 726Q426 726 450 702T474 643Q474 608 450 584T391 560Z" />
<glyph unicode="&#xfd;" horiz-adv-x="535" d="M91 -220L200 23L-1 496H142L270 158L401 496H536L226 -220H91ZM155 539V629L381 751V647L155 539Z" />
<glyph unicode="&#xfe;" horiz-adv-x="612" d="M45 -220V700H173V425Q197 458 236 483T339 508Q413 508 467 473T552 378T583 247Q583 174 552 116T466 23T339 -12Q283 -12 241 9T173 68V-220H45ZM312 100Q353 100 384 118T434 170T453 247Q453 291 435 324T385
377T312 396Q271 396 239 377T189 325T171 248Q171 205 189 172T239 119T312 100Z" />
<glyph unicode="&#xff;" horiz-adv-x="535" d="M91 -220L200 23L-1 496H142L270 158L401 496H536L226 -220H91ZM157 560Q122 560 98 584T74 643Q74 678 98 702T157 726Q192 726 216 702T240 643Q240 608 216 584T157 560ZM379 560Q344 560 320 584T296 643Q296
678 320 702T379 726Q414 726 438 702T462 643Q462 608 438 584T379 560Z" />
<glyph unicode="&#x2013;" horiz-adv-x="648" d="M54 236V343H594V236H54Z" />
<glyph unicode="&#x2014;" horiz-adv-x="868" d="M54 236V343H814V236H54Z" />
<glyph unicode="&#x2018;" horiz-adv-x="264" d="M33 454L135 700H222L168 454H33Z" />
<glyph unicode="&#x2019;" horiz-adv-x="264" d="M41 454L96 700H231L129 454H41Z" />
<glyph unicode="&#x201a;" horiz-adv-x="240" d="M14 -113L69 133H204L102 -113H14Z" />
<glyph unicode="&#x201c;" horiz-adv-x="456" d="M226 454L328 700H415L360 454H226ZM33 454L135 700H222L168 454H33Z" />
<glyph unicode="&#x201d;" horiz-adv-x="456" d="M233 455L288 701H423L321 455H233ZM41 455L96 701H231L129 455H41Z" />
<glyph unicode="&#x201e;" horiz-adv-x="432" d="M14 -113L69 133H204L102 -113H14ZM207 -113L262 133H396L295 -113H207Z" />
<glyph unicode="&#x2022;" horiz-adv-x="380" d="M189 198Q152 198 122 216T73 265T54 333Q54 371 72 402T121 451T189 469Q228 469 258 451T307 402T325 333Q325 295 307 265T259 216T189 198Z" />
<glyph unicode="&#x2039;" horiz-adv-x="303" d="M133 120L42 295L133 470H253L160 295L253 120H133Z" />
<glyph unicode="&#x203a;" horiz-adv-x="303" d="M50 120L143 295L50 470H171L261 295L171 120H50Z" />
</font>
</defs>
</svg>
