<?xml version="1.0" standalone="no"?>
<!DOCTYPE svg PUBLIC "-//W3C//DTD SVG 1.1//EN" "http://www.w3.org/Graphics/SVG/1.1/DTD/svg11.dtd">
<svg xmlns="http://www.w3.org/2000/svg">
<defs >
<font id="RethinkSans" horiz-adv-x="560" ><font-face
    font-family="Rethink Sans"
    units-per-em="1000"
    panose-1="0 0 0 0 0 0 0 0 0 0"
    ascent="992"
    descent="-310"
    alphabetic="0" />
<glyph unicode=" " horiz-adv-x="238" />
<glyph unicode="!" horiz-adv-x="278" d="M71 221L141 700H278L179 221H71ZM108 -12Q73 -12 49 12T25 71Q25 106 49 130T108 154Q143 154 167 130T191 71Q191 37 167 13T108 -12Z" />
<glyph unicode="&quot;" horiz-adv-x="441" d="M268 454L365 700H500L355 454H268ZM71 454L168 700H303L158 454H71Z" />
<glyph unicode="#" horiz-adv-x="840" d="M82 0L150 175H6L26 290H195L252 436H106L125 551H297L364 723H485L418 551H607L675 723H795L728 551H859L839 436H683L626 290H759L739 175H581L513 0H392L461 175H271L202 0H82ZM316 290H505L563 436H373L316 290Z" />
<glyph unicode="$" horiz-adv-x="584" d="M194 -87L208 -9Q126 3 76 49T25 172Q25 181 26 191T28 211H164Q163 206 163 201T163 191Q163 159 180 136T227 103L264 312Q256 314 248 317T231 323Q165 347 130 389T95 488Q95 554 127 602T214 679T335 711L349 792H415L400
710Q480 701 527 657T575 541Q575 534 575 526T573 510H436Q437 515 437 519T437 527Q437 551 423 570T381 599L348 413Q356 410 365 407T382 401Q453 376 496 332T539 219Q539 145 502 95T405 18T273 -12L260 -87H194ZM292 96Q343 100 371 129T400 202Q400 234
379 254T326 288L292 96ZM287 438L315 602Q277 595 255 570T233 511Q233 485 247 468T287 438Z" />
<glyph unicode="%" horiz-adv-x="853" d="M121 0L639 700H764L246 0H121ZM227 356Q162 356 120 395T77 501Q77 560 104 608T177 684Q223 712 280 712Q344 712 386 673T428 567Q428 508 402 460T330 384Q284 356 227 356ZM237 444Q262 444 282 459T314 500T327
558Q327 591 311 608T268 625Q244 625 224 610T191 569T178 511Q178 478 194 461T237 444ZM610 -12Q568 -12 534 5T480 56T460 133Q460 192 487 239T560 315Q606 343 663 343Q727 343 769 305T811 199Q811 140 785 93T713 17Q690 2 665 -5T610 -12ZM620 76Q646
76 666 91T698 133T710 189Q710 223 694 240T652 257Q627 257 607 242T574 200T562 142Q562 109 578 93T620 76Z" />
<glyph unicode="&amp;" horiz-adv-x="688" d="M217 -12Q161 -12 115 9T43 69T16 162Q16 207 32 247T78 322T145 382L155 389L148 402Q138 422 133 443T127 485Q127 530 146 571T199 643T279 693T379 712Q435 712 476 693T539 638T562 552Q562 542 561 532T558
510H431Q432 515 432 519T433 528Q433 546 426 562T402 587T357 597Q335 597 317 590T285 569T264 538T256 502Q256 471 277 440T334 365L433 244L562 405H698L502 161L634 0H473L417 68L406 58Q364 24 317 6T217 -12ZM246 105Q272 105 295 113T339 138L351 148L219
308L205 299Q179 282 164 254T148 195Q148 157 175 131T246 105Z" />
<glyph unicode="&apos;" horiz-adv-x="244" d="M71 454L169 700H304L159 454H71Z" />
<glyph unicode="(" horiz-adv-x="380" d="M160 -145Q106 -80 73 14T40 217Q40 327 75 435T175 640Q207 688 246 731T329 811H456L455 799Q364 718 300 625T201 433Q184 383 176 333T167 233Q167 131 200 37T291 -133L288 -145H160Z" />
<glyph unicode=")" horiz-adv-x="380" d="M-46 -145L-44 -133Q46 -52 110 41T209 234Q226 284 234 333T243 433Q243 535 211 629T119 799L122 811H250Q304 746 337 652T370 449Q370 339 335 231T235 27Q203 -22 165 -64T82 -145H-46Z" />
<glyph unicode="*" horiz-adv-x="486" d="M217 360L238 480L123 420L97 489L210 549L117 608L169 677L262 617L283 737H362L341 617L456 677L483 608L369 549L463 489L410 420L317 480L296 360H217Z" />
<glyph unicode="+" horiz-adv-x="600" d="M212 53L244 236H56L75 343H263L295 526H404L372 343H559L540 236H353L321 53H212Z" />
<glyph unicode="," horiz-adv-x="212" d="M-62 -116L39 133H163L22 -116H-62Z" />
<glyph unicode="-" horiz-adv-x="447" d="M53 236L71 343H410L391 236H53Z" />
<glyph unicode="." horiz-adv-x="222" d="M80 -12Q45 -12 21 12T-3 71Q-3 106 21 130T80 154Q115 154 139 130T163 71Q163 37 139 13T80 -12Z" />
<glyph unicode="/" horiz-adv-x="401" d="M-50 -111L356 777H481L74 -111H-50Z" />
<glyph unicode="0" horiz-adv-x="580" d="M245 -12Q171 -12 125 20T57 110T35 241Q35 296 46 360T81 486T144 600T240 681T373 712Q448 712 494 681T561 593T582 464Q582 410 572 346T539 219T478 104T382 20T245 -12ZM265 102Q307 102 338 128T391 195T426 284T445
377T451 455Q451 523 428 560T353 598Q311 598 280 575T227 514T192 430T172 335T166 246Q166 178 190 140T265 102Z" />
<glyph unicode="1" horiz-adv-x="580" d="M35 0L54 109H242L321 557L132 516L150 614L401 700H468L363 109H528L509 0H35Z" />
<glyph unicode="2" horiz-adv-x="580" d="M9 0L25 93L251 289Q278 313 310 341T372 400T421 462T440 521Q440 555 418 579T352 604Q296 604 262 568T219 481H95Q111 556 150 607T246 685T374 712Q442 712 484 688T547 624T568 537Q568 491 550 451T500 376T432
309T358 245L198 109H510L491 0H9Z" />
<glyph unicode="3" horiz-adv-x="580" d="M246 -12Q147 -12 89 35T30 171Q30 184 31 193T34 216H158Q157 210 157 205T156 194Q156 151 184 124T265 97Q315 97 348 119T398 175T415 245Q415 290 386 313T309 337Q288 337 268 332T231 317L174 400L419 591H121L141
700H599L580 594L374 433Q431 429 468 403T522 337T540 254Q540 202 521 155T463 70T371 10T246 -12Z" />
<glyph unicode="4" horiz-adv-x="580" d="M308 0L331 130H11L29 232L347 700H475L168 241H359L391 423H511L479 241H560L540 130H459L436 0H308Z" />
<glyph unicode="5" horiz-adv-x="580" d="M252 -12Q184 -12 134 12T57 79T30 179Q30 183 30 189T32 197H157Q157 168 171 145T211 110T269 97Q324 97 358 123T408 188T425 264Q425 314 397 345T321 377Q267 377 233 352T183 300H60L191 700H578L559 588H266L206
426Q230 447 268 464T358 481Q408 481 444 465T504 420T539 357T551 284Q551 199 512 132T404 27T252 -12Z" />
<glyph unicode="6" horiz-adv-x="580" d="M274 -12Q208 -12 166 11T99 72T65 153T55 235Q55 354 84 443T161 592T266 682T382 712Q438 712 475 693T533 644T563 578T568 510H456Q456 554 435 580T368 606Q322 606 286 576T225 492T184 366Q216 406 259 429T357
452Q392 452 424 440T482 403T523 342T539 257Q539 180 503 119T407 23T274 -12ZM283 98Q327 98 357 118T404 170T421 238Q421 284 394 314T318 344Q278 344 247 326T197 276T178 204Q178 156 206 127T283 98Z" />
<glyph unicode="7" horiz-adv-x="580" d="M83 0L465 591H90L110 700H622L606 609L218 0H83Z" />
<glyph unicode="8" horiz-adv-x="580" d="M250 -12Q198 -12 157 1T89 38T47 96T32 171Q32 219 52 260T107 331T188 376Q150 396 128 428T105 501Q105 558 137 606T229 683T371 712Q466 712 517 668T568 550Q568 510 554 480T518 429T474 395T436 376Q486 356 508
317T531 228Q531 164 497 109T400 21T250 -12ZM266 95Q297 95 330 109T385 152T408 225Q408 271 378 295T301 319Q279 319 254 312T207 289T171 250T157 190Q157 147 187 121T266 95ZM322 414Q352 414 379 428T424 467T442 526Q442 565 418 586T351 608Q318 608
290 594T245 556T228 498Q228 470 240 452T274 424T322 414Z" />
<glyph unicode="9" horiz-adv-x="580" d="M235 -12Q179 -12 142 7T84 56T54 122T49 190H161Q161 147 182 121T249 94Q295 94 331 124T393 208T433 334Q401 294 358 271T260 248Q226 248 193 260T135 297T94 358T78 443Q78 520 114 581T210 677T343 712Q409 712
451 689T518 628T552 547T562 465Q562 347 533 258T456 108T351 18T235 -12ZM299 356Q339 356 370 374T420 424T439 496Q439 544 411 573T334 602Q291 602 260 582T213 531T196 462Q196 416 223 386T299 356Z" />
<glyph unicode=":" horiz-adv-x="222" d="M144 346Q109 346 85 370T61 429Q61 464 85 488T144 512Q179 512 203 488T227 429Q227 395 203 371T144 346ZM80 -12Q45 -12 21 12T-3 71Q-3 106 21 130T80 154Q115 154 139 130T163 71Q163 37 139 13T80 -12Z" />
<glyph unicode=";" horiz-adv-x="245" d="M-53 -116L48 133H172L31 -116H-53ZM168 346Q133 346 109 370T85 429Q85 464 109 488T168 512Q203 512 227 488T251 429Q251 395 227 371T168 346Z" />
<glyph unicode="&lt;" horiz-adv-x="600" d="M312 133L128 359L392 584H552L288 359L473 133H312Z" />
<glyph unicode="=" horiz-adv-x="600" d="M66 123L86 235H511L491 123H66ZM105 345L125 457H549L530 345H105Z" />
<glyph unicode="&gt;" horiz-adv-x="600" d="M88 133L352 359L167 584H328L512 359L249 133H88Z" />
<glyph unicode="?" horiz-adv-x="507" d="M119 218L144 383H189Q247 383 294 395T370 438Q398 467 398 522Q398 560 374 583T308 606Q258 606 225 579T183 504H62Q72 564 107 611T200 685Q256 712 328 712Q417 712 470 665T524 537Q524 461 489 408T391 327Q360
313 325 306T249 298L231 218H119ZM153 -12Q118 -12 94 12T70 71Q70 106 94 130T153 154Q188 154 212 130T236 71Q236 37 212 13T153 -12Z" />
<glyph unicode="@" horiz-adv-x="1029" d="M434 -212Q313 -212 229 -167T100 -44T55 135Q55 216 81 292T155 434T269 549T416 626T590 654Q702 654 787 613T919 497T967 322Q967 265 951 207T904 101T826 24T719 -5Q672 -5 642 17T603 79Q573 42 533 18T437 -7Q383
-7 346 16T288 80T268 171Q268 222 286 270T338 358T417 420T516 443Q557 443 591 427T643 374L653 433H760L710 150Q709 146 709 142T708 133Q708 113 719 103T750 93Q784 93 807 116T844 175T864 247T870 309Q870 389 833 446T729 534T575 565Q486 565 409 532T275
440T185 308T152 153Q152 75 186 13T288 -86T450 -122Q500 -122 548 -112T641 -81L655 -167Q609 -189 549 -200T434 -212ZM477 90Q518 90 550 111T601 168T620 245Q620 289 594 318T522 347Q484 347 451 327T398 272T378 191Q378 147 404 119T477 90Z" />
<glyph unicode="A" horiz-adv-x="681" d="M-31 0L348 700H493L625 0H490L462 162H189L104 0H-31ZM240 260H446L395 556L240 260Z" />
<glyph unicode="B" horiz-adv-x="618" d="M14 0L138 700H403Q501 700 550 656T599 547Q599 513 585 480T542 419T467 375Q498 364 521 340T559 284T573 217Q573 155 539 106T444 29T305 0H14ZM162 109H313Q380 109 412 140T444 225Q444 262 421 286T346 311H197L162
109ZM216 420H342Q390 420 416 433T453 469T464 516Q464 548 443 569T370 591H246L216 420Z" />
<glyph unicode="C" horiz-adv-x="719" d="M331 -12Q254 -12 200 12T112 76T63 167T47 269Q47 361 77 441T163 583T293 678T457 712Q583 712 653 650T724 474H582Q580 532 543 564T437 596Q371 596 322 568T242 493T195 391T179 283Q179 198 224 151T352 103Q421
103 467 133T537 218H679Q639 109 548 49T331 -12Z" />
<glyph unicode="D" horiz-adv-x="696" d="M138 700H377Q483 700 550 665T650 567T683 415Q683 328 659 260T592 143T494 63T378 16T254 0H15L138 700ZM267 110Q345 110 399 134T486 200T535 294T551 404Q551 498 503 544T352 591H247L162 110H267Z" />
<glyph unicode="E" horiz-adv-x="545" d="M14 0L138 700H577L557 591H246L217 424H482L463 315H198L162 109H473L453 0H14Z" />
<glyph unicode="F" horiz-adv-x="525" d="M14 0L138 700H579L559 591H246L216 416H490L470 307H196L142 0H14Z" />
<glyph unicode="G" horiz-adv-x="757" d="M323 -12Q251 -12 199 13T114 81T65 175T49 281Q49 377 80 456T168 593T301 681T467 712Q590 712 663 653T741 490H598Q591 539 554 566T449 594Q379 594 328 568T245 497T197 400T181 291Q181 203 227 153T355 102Q445
102 501 148T583 270H359L379 378H734L667 0H551L555 92Q513 42 458 15T323 -12Z" />
<glyph unicode="H" horiz-adv-x="686" d="M14 0L138 700H266L217 425H531L580 700H708L584 0H456L512 316H198L142 0H14Z" />
<glyph unicode="I" horiz-adv-x="244" d="M14 0L138 700H266L142 0H14Z" />
<glyph unicode="J" horiz-adv-x="502" d="M188 -12Q103 -12 53 32T3 157Q3 169 4 182T8 208H136Q133 192 133 176Q133 142 151 122T206 102Q249 102 274 128T307 196L395 700H523L435 196Q418 97 351 43T188 -12Z" />
<glyph unicode="K" horiz-adv-x="627" d="M14 0L138 700H266L218 431L505 700H666L376 433L566 0H415L272 339L188 261L142 0H14Z" />
<glyph unicode="L" horiz-adv-x="524" d="M14 0L138 700H266L162 109H464L444 0H14Z" />
<glyph unicode="M" horiz-adv-x="815" d="M14 0L138 700H290L409 248L685 700H837L713 0H585L669 472L430 89H329L226 472L142 0H14Z" />
<glyph unicode="N" horiz-adv-x="701" d="M14 0L138 700H266L508 211L595 700H723L599 0H471L228 488L142 0H14Z" />
<glyph unicode="O" horiz-adv-x="784" d="M351 -12Q279 -12 223 12T128 79T69 176T49 290Q49 378 81 454T171 589T305 679T469 712Q545 712 602 687T696 618T752 521T771 411Q771 323 739 246T649 111T515 21T351 -12ZM367 104Q424 104 473 127T559 190T618 285T639
400Q639 460 617 504T554 573T454 597Q397 597 347 574T260 510T202 416T181 301Q181 241 203 197T268 128T367 104Z" />
<glyph unicode="P" horiz-adv-x="589" d="M14 0L138 700H397Q462 700 510 677T585 614T612 518Q612 447 577 393T477 309T322 279H191L142 0H14ZM211 388H339Q407 388 443 417T480 502Q480 544 452 567T374 591H246L211 388Z" />
<glyph unicode="Q" horiz-adv-x="796" d="M351 -12Q279 -12 223 12T128 79T69 176T49 290Q49 378 81 454T171 589T305 679T469 712Q545 712 602 687T696 618T752 521T771 411Q771 334 746 265T675 140L731 76L631 -12L576 53Q527 22 470 5T351 -12ZM181 301Q181
241 203 197T268 128T367 103Q403 103 436 113T500 140L412 243L512 331L593 234Q615 269 627 311T639 400Q639 460 617 504T554 573T454 597Q397 597 347 574T260 510T202 416T181 301Z" />
<glyph unicode="R" horiz-adv-x="597" d="M14 0L138 700H381Q446 700 492 678T564 618T589 527Q589 479 570 437T510 363T404 316L543 0H392L272 295H194L142 0H14ZM214 404H326Q395 404 426 430T457 509Q457 530 448 548T418 579T358 591H246L214 404Z" />
<glyph unicode="S" horiz-adv-x="584" d="M260 -12Q189 -12 136 10T54 74T25 172Q25 180 26 191T28 211H164Q163 205 163 201T163 191Q163 148 193 122T276 95Q334 95 367 124T400 202Q400 227 389 243T357 272T304 296T231 323Q165 347 130 389T95 488Q95 555
129 605T224 684T364 712Q459 712 517 666T575 541Q575 534 575 526T573 510H436Q437 515 437 519T437 527Q437 558 413 581T343 604Q292 604 263 578T233 511Q233 480 253 462Q273 443 307 430T382 401Q450 377 494 333T539 219Q539 149 503 97T405 17T260 -12Z"
/>
<glyph unicode="T" horiz-adv-x="570" d="M177 0L281 591H77L97 700H634L614 591H409L305 0H177Z" />
<glyph unicode="U" horiz-adv-x="666" d="M279 -12Q171 -12 110 43T48 201Q48 232 54 268L130 700H258L182 268Q180 256 179 245T177 223Q177 164 210 135T302 106Q371 106 418 146T479 268L556 700H684L608 268Q594 189 560 135T480 49T382 3T279 -12Z" />
<glyph unicode="V" horiz-adv-x="679" d="M85 700H222L319 132L617 700H754L374 0H217L85 700Z" />
<glyph unicode="W" horiz-adv-x="977" d="M202 0L83 700H214L301 121L417 355L357 700H486L521 455L641 700H771L588 355L622 121L913 700H1044L677 0H525L485 254L354 0H202Z" />
<glyph unicode="X" horiz-adv-x="629" d="M-29 0L260 381L127 700H272L357 497L506 700H651L407 381L567 0H422L312 264L116 0H-29Z" />
<glyph unicode="Y" horiz-adv-x="599" d="M185 0L235 281L74 700H219L322 409L528 700H671L363 281L313 0H185Z" />
<glyph unicode="Z" horiz-adv-x="546" d="M-14 0L4 98L413 593H94L113 700H580L563 602L152 107H477L458 0H-14Z" />
<glyph unicode="[" horiz-adv-x="341" d="M-16 -171L157 810H395L377 706H259L123 -66H241L222 -171H-16Z" />
<glyph unicode="\" horiz-adv-x="401" d="M200 -111L107 777H231L324 -111H200Z" />
<glyph unicode="]" horiz-adv-x="341" d="M-29 -170L-11 -66H107L243 706H125L144 811H382L209 -170H-29Z" />
<glyph unicode="^" horiz-adv-x="645" d="M3 170L335 700H457L602 170H472L370 549L132 170H3Z" />
<glyph unicode="_" horiz-adv-x="661" d="M-27 -160L-6 -38H566L545 -160H-27Z" />
<glyph unicode="`" horiz-adv-x="0" d="M420 539L213 647L232 751L436 629L420 539Z" />
<glyph unicode="a" horiz-adv-x="549" d="M151 -12Q111 -12 78 4T25 49T5 117Q5 175 37 214T122 274T240 295H362Q363 303 363 309T364 323Q364 358 347 379T285 400Q250 400 222 383T178 333H53Q74 389 110 428T196 487T306 508Q367 508 408 488T470 431T492
342Q492 331 491 319T487 292L463 157Q462 153 462 147T461 138Q461 120 473 113T507 106L488 0Q417 0 381 18T334 73Q310 45 282 26T222 -2T151 -12ZM200 90Q233 90 262 105T313 148T344 213H234Q208 213 186 205T150 179T136 137Q136 113 154 102T200 90Z" />
<glyph unicode="b" horiz-adv-x="603" d="M293 -12Q238 -12 199 11T140 68L114 0H1L124 700H252L205 433Q233 464 275 486T378 508Q431 508 469 489T531 439T568 370T580 294Q580 230 559 175T498 77T407 12T293 -12ZM286 100Q334 100 370 123T427 186T447 272Q447
325 415 360T328 396Q275 396 239 370T185 303T167 220Q167 168 199 134T286 100Z" />
<glyph unicode="c" horiz-adv-x="558" d="M241 -12Q172 -12 124 16T50 92T24 201Q24 266 47 321T112 419T210 484T332 508Q428 508 485 457T543 316H408Q408 356 381 377T313 399Q274 399 245 382T196 337T166 277T156 213Q156 160 185 129T260 97Q301 97 335
118T385 180H519Q495 113 450 71T350 8T241 -12Z" />
<glyph unicode="d" horiz-adv-x="605" d="M223 -12Q171 -12 133 7T72 59T37 130T25 208Q25 277 48 332T112 427T202 487T305 508Q367 508 405 486T462 428L510 700H638L515 0H400L398 71Q370 38 328 13T223 -12ZM272 100Q313 100 343 116T394 159T424 217T435
280Q435 332 404 364T319 396Q277 396 246 380T196 338T167 282T157 223Q157 171 187 136T272 100Z" />
<glyph unicode="e" horiz-adv-x="556" d="M240 -12Q141 -12 83 45T24 199Q24 263 46 319T110 417T207 484T331 508Q396 508 443 484T516 415T542 311Q542 287 538 262T527 217H151Q150 213 150 209T150 200Q150 150 180 122T258 93Q296 93 325 110T374 156H504Q477
99 434 62T341 7T240 -12ZM167 297H414Q415 301 415 304T415 308Q416 352 388 378T314 404Q268 404 227 378T167 297Z" />
<glyph unicode="f" horiz-adv-x="315" d="M29 0L98 389H40L59 496H116L123 534Q140 624 192 662T322 700H364L344 591H322Q289 591 273 578T251 534L244 496H334L315 389H226L157 0H29Z" />
<glyph unicode="g" horiz-adv-x="517" d="M172 -232Q110 -232 62 -216T-15 -168T-43 -92Q-43 -51 -22 -22T39 24Q20 36 10 56T0 98Q0 141 26 174T88 223Q71 245 63 273T57 331Q62 385 91 424T169 486T276 508Q318 508 354 496H546L529 400H454Q459 383 462 366T463
331Q459 279 429 239T351 177T245 154Q220 154 197 159T155 175Q137 172 125 161T113 134Q113 94 178 94H273Q353 94 395 58T438 -41Q438 -103 405 -146T312 -210T172 -232ZM189 -132Q219 -132 248 -127T296 -106T316 -62Q316 -39 299 -25T244 -11H172Q135 -11
106 -25T77 -74Q77 -103 110 -117T189 -132ZM253 254Q291 254 317 275T346 331Q349 364 327 386T266 408Q228 408 203 386T174 331Q171 297 192 276T253 254Z" />
<glyph unicode="h" horiz-adv-x="569" d="M2 0L125 700H253L204 420Q235 460 281 484T384 508Q462 508 503 467T544 345Q544 315 538 280L488 0H360L408 268Q410 280 411 290T412 311Q412 355 391 377T323 400Q270 400 229 362T175 256L130 0H2Z" />
<glyph unicode="i" horiz-adv-x="230" d="M7 0L94 496H222L135 0H7ZM185 566Q152 566 129 589T105 646Q105 680 128 703T185 726Q218 726 241 703T265 646Q265 613 242 590T185 566Z" />
<glyph unicode="j" horiz-adv-x="228" d="M-138 -220L-119 -111H-80Q-47 -111 -31 -98T-8 -54L88 496H216L120 -54Q104 -144 52 -182T-80 -220H-138ZM179 566Q146 566 123 589T99 646Q99 679 122 702T179 726Q212 726 235 703T259 646Q259 613 236 590T179 566Z" />
<glyph unicode="k" horiz-adv-x="506" d="M1 0L125 700H252L180 286L382 496H544L285 247L462 0H305L166 211L129 0H1Z" />
<glyph unicode="l" horiz-adv-x="220" d="M1 0L125 700H253L129 0H1Z" />
<glyph unicode="m" horiz-adv-x="888" d="M2 0L89 496H202L201 426Q230 464 270 486T361 508Q416 508 455 485T512 417Q545 459 592 483T692 508Q745 508 783 489T842 433T863 341Q863 313 857 280L807 0H679L726 268Q728 279 729 289T730 308Q730 353 709 376T647
400Q617 400 590 386T544 342T516 271L468 0H341L388 268Q390 279 391 290T392 310Q392 354 371 377T310 400Q278 400 251 383T203 334T175 256L130 0H2Z" />
<glyph unicode="n" horiz-adv-x="569" d="M2 0L89 496H202L199 414Q230 457 277 482T382 508Q459 508 501 466T544 343Q544 329 543 313T538 280L488 0H360L408 268Q410 276 411 289T412 310Q412 400 323 400Q288 400 257 383T205 335T176 260L130 0H2Z" />
<glyph unicode="o" horiz-adv-x="575" d="M246 -12Q179 -12 130 17T53 97T25 209Q25 272 48 326T112 422T207 485T326 508Q385 508 427 489T497 437T537 367T550 289Q550 226 527 171T463 75T366 11T246 -12ZM268 99Q314 99 349 122T403 185T423 272Q423 325 392
361T308 397Q261 397 226 373T172 308T152 220Q152 168 184 134T268 99Z" />
<glyph unicode="p" horiz-adv-x="605" d="M-36 -220L89 496H204L205 425Q235 462 277 485T379 508Q429 508 466 491T529 443T568 374T581 294Q581 230 560 175T500 77T409 12T294 -12Q240 -12 200 11T142 68L92 -220H-36ZM288 100Q336 100 372 123T429 186T449
272Q449 325 417 360T330 396Q276 396 240 370T186 303T168 220Q168 168 201 134T288 100Z" />
<glyph unicode="q" horiz-adv-x="605" d="M349 -220L398 71Q370 38 328 13T223 -12Q171 -12 133 7T72 59T37 130T25 208Q25 277 48 332T112 427T202 487T305 508Q367 508 405 486T462 428L488 496H602L477 -220H349ZM272 100Q313 100 343 116T394 159T424 217T435
280Q435 332 404 364T319 396Q277 396 246 380T196 338T167 282T157 223Q157 171 187 136T272 100Z" />
<glyph unicode="r" horiz-adv-x="363" d="M2 0L89 496H204L200 406Q235 452 286 480T401 508L377 373H342Q300 373 265 361T206 318T172 235L130 0H2Z" />
<glyph unicode="s" horiz-adv-x="493" d="M214 -12Q147 -12 99 11T27 73T7 165H135Q134 130 158 108T230 86Q272 86 295 104T319 150Q319 175 294 186T230 207Q210 212 190 218T150 233Q111 249 86 275T60 342Q60 391 88 428T167 486T282 508Q370 508 421 466T470
352H347Q346 378 325 394T268 410Q232 410 210 395T187 356Q187 334 213 323T283 301Q331 290 369 274T428 232T450 166Q450 114 420 74T337 11T214 -12Z" />
<glyph unicode="t" horiz-adv-x="372" d="M214 0Q146 0 106 28T65 125Q65 136 66 148T70 174L108 389H28L47 496H127L148 617H277L255 496H390L370 389H237L198 173Q197 168 197 163T196 153Q196 129 209 119T254 109H322L302 0H214Z" />
<glyph unicode="u" horiz-adv-x="569" d="M187 -12Q110 -12 68 30T25 153Q25 182 31 216L81 496H209L161 228Q160 221 159 208T157 186Q157 96 246 96Q299 96 340 133T393 236L439 496H567L480 0H367L370 82Q339 39 292 14T187 -12Z" />
<glyph unicode="v" horiz-adv-x="523" d="M139 0L42 496H175L239 120L434 496H570L296 0H139Z" />
<glyph unicode="w" horiz-adv-x="764" d="M100 0L42 496H168L192 139L355 496H497L534 138L684 496H810L578 0H445L404 371L233 0H100Z" />
<glyph unicode="x" horiz-adv-x="478" d="M-42 0L166 249L43 496H188L263 343L383 496H521L313 249L436 0H292L215 154L96 0H-42Z" />
<glyph unicode="y" horiz-adv-x="552" d="M23 -220L165 6L41 496H178L258 147L464 496H600L159 -220H23Z" />
<glyph unicode="z" horiz-adv-x="451" d="M-24 0L-5 103L308 390H58L77 496H473L454 393L139 106H400L380 0H-24Z" />
<glyph unicode="{" horiz-adv-x="443" d="M254 -173Q187 -173 148 -141T108 -46Q108 -10 117 20T137 78T158 134T167 194Q167 222 148 242T83 268L101 371Q146 376 171 393T206 436T219 499T222 577Q222 649 246 701T316 782T428 811H490L471 705H433Q398 705
379 690T353 650T344 601T343 557Q343 535 341 508T333 451T311 395T270 348T203 320V318Q249 308 269 280T290 213Q290 186 282 157T263 99T244 42T235 -12Q235 -44 252 -55T297 -67H335L317 -173H254Z" />
<glyph unicode="|" horiz-adv-x="245" d="M-3 -100L142 720H270L125 -100H-3Z" />
<glyph unicode="}" horiz-adv-x="442" d="M-23 -173L-3 -67H35Q66 -67 84 -56T111 -24T122 24T125 82Q125 107 127 136T136 193T158 247T199 291T265 318V320Q218 330 198 358T178 425Q178 448 186 477T205 539T224 600T232 650Q232 682 215 693T171 705H133L151
811H214Q281 811 320 779T360 684Q360 650 351 619T331 559T310 502T301 444Q301 416 320 396T385 370L367 267Q308 260 283 231T252 159T246 61Q246 -51 192 -112T40 -173H-23Z" />
<glyph unicode="~" horiz-adv-x="600" d="M383 228Q354 228 333 238T293 261T257 284T214 294Q187 294 168 278T137 229H42Q75 323 126 365T242 408Q271 408 293 398T333 375T369 352T411 342Q437 342 457 359T487 408H583Q551 314 499 271T383 228Z" />
<glyph unicode="&#xa0;" horiz-adv-x="238" />
<glyph unicode="&#xa1;" horiz-adv-x="279" d="M12 -139L111 340H219L149 -139H12ZM182 407Q148 407 124 431T99 490Q99 525 123 549T182 573Q217 573 241 549T265 490Q265 456 241 432T182 407Z" />
<glyph unicode="&#xa2;" horiz-adv-x="578" d="M175 -93L191 -5Q118 11 76 66T34 201Q34 276 66 339T153 446Q181 467 212 481T280 502L297 598H415L398 503Q470 489 511 441T553 316H418Q418 356 391 377T323 399Q280 399 244 375T187 308Q177 287 172 263T166
213Q166 160 195 129T270 97Q311 97 345 118T395 180H529Q503 107 444 58T309 -7L293 -93H175Z" />
<glyph unicode="&#xa3;" horiz-adv-x="596" d="M20 0L32 70Q87 118 116 171T146 291Q146 293 146 295T146 298H33L48 386H135Q132 401 131 417T129 451Q129 516 151 565T210 646T294 695T391 712Q459 712 504 689T572 625T595 532Q595 524 595 515T593 496H476Q477
501 477 506T477 517Q477 556 452 581T380 606Q337 606 308 587T263 535T248 464Q248 444 251 425T258 386H446L431 298H268Q268 297 268 295T268 291Q268 232 240 185T166 102H521L504 0H20Z" />
<glyph unicode="&#xa4;" horiz-adv-x="535" d="M75 81L33 134L102 193Q83 227 83 271Q83 312 97 346T137 408L91 464L152 516L203 454Q253 475 309 475Q336 475 359 469T403 452L478 516L521 464L452 405Q472 370 472 327Q472 286 458 251T417 189L462 134L401
81L352 142Q301 119 245 119Q217 119 193 125T149 144L75 81ZM260 201Q290 201 313 216T350 259T364 320Q364 357 343 375T294 394Q250 394 220 360T190 274Q190 237 210 219T260 201Z" />
<glyph unicode="&#xa5;" horiz-adv-x="627" d="M206 0L233 150H33L48 238H249L251 249L229 314H62L77 402H198L94 700H240L336 367L549 700H693L486 402H605L590 313H424L379 249L377 238H576L561 150H361L334 0H206Z" />
<glyph unicode="&#xa6;" horiz-adv-x="245" d="M84 394L142 720H270L212 394H84ZM-3 -100L55 226H183L125 -100H-3Z" />
<glyph unicode="&#xa7;" horiz-adv-x="596" d="M219 -232Q160 -232 111 -213T33 -155T4 -61Q4 -53 4 -46T6 -30H143Q142 -34 142 -37T142 -45Q142 -64 151 -82T179 -112T231 -124Q264 -124 290 -111T331 -76T346 -26Q346 2 326 19Q312 32 287 42T236 60T196 73Q152
90 116 113T59 169T38 251Q38 286 49 316T79 372T122 417Q108 445 108 477Q108 531 129 574T186 649T271 696T373 712Q432 712 480 693T558 635T588 542Q588 535 588 527T586 510H450Q451 514 451 517T451 523Q451 542 443 560T415 591T361 604Q330 604 304 593T263
559T247 506Q247 476 267 461Q281 450 305 440T354 420T397 405Q435 393 471 371T530 314T554 229Q554 193 543 162T512 107T470 63Q483 40 483 7Q483 -61 450 -115T357 -201T219 -232ZM381 134Q397 150 405 168T414 208Q414 234 398 252T358 284T309 306T265 322Q252
327 238 333T211 346Q195 332 187 313T178 272Q178 246 194 228T234 196T283 174T326 158Q339 154 354 148T381 134Z" />
<glyph unicode="&#xa8;" horiz-adv-x="0" d="M176 560Q141 560 117 584T93 643Q93 678 117 702T176 726Q211 726 235 702T259 643Q259 608 235 584T176 560ZM-46 560Q-81 560 -105 584T-129 643Q-129 678 -105 702T-46 726Q-11 726 13 702T37 643Q37 608 13 584T-46 560Z" />
<glyph unicode="&#xa9;" horiz-adv-x="766" d="M332 -6Q260 -6 205 17T113 82T57 176T38 288Q38 374 69 450T157 584T290 675T458 708Q536 708 592 683T683 615T734 522T751 417Q751 327 719 250T630 116T496 26T332 -6ZM341 40Q422 40 488 68T601 148T675 267T701
413Q701 497 667 552T577 635T451 663Q369 663 302 635T188 555T116 437T90 291Q90 213 121 157T209 70T341 40ZM355 123Q274 123 223 172T172 307Q172 373 195 424T256 510T341 563T436 581Q513 581 562 539T615 422H502Q498 455 476 473T418 492Q380 492 354
475T311 429T287 371T279 313Q279 262 303 237T368 211Q406 211 433 230T478 281H590Q560 209 496 166T355 123Z" />
<glyph unicode="&#xaa;" horiz-adv-x="390" d="M158 346Q116 346 86 371T55 436Q55 477 77 505T137 547T220 561H305Q306 566 306 571T307 581Q307 605 295 619T251 634Q226 634 207 623T176 588H89Q104 627 129 654T189 696T266 710Q330 710 363 680T396 594Q396
586 396 577T393 559L376 464Q375 460 375 457T375 451Q375 438 383 434T407 429L393 354Q344 354 319 367T286 406Q260 376 229 361T158 346ZM192 417Q215 417 235 428T271 458T293 504H216Q188 504 168 490T147 450Q147 434 160 426T192 417Z" />
<glyph unicode="&#xab;" horiz-adv-x="485" d="M38 295L159 470H280L156 295L219 120H97L38 295ZM240 295L361 470H482L358 295L420 120H299L240 295Z" />
<glyph unicode="&#xac;" horiz-adv-x="600" d="M421 201L445 338H60L77 437H590L548 201H421Z" />
<glyph unicode="&#xae;" horiz-adv-x="342" d="M228 425Q189 425 156 444T104 496T84 568Q84 608 103 640T156 692T228 712Q268 712 300 693T351 641T371 568Q371 529 352 497T300 445T228 425ZM161 496Q162 498 168 509T182 533T196 557T202 568Q173 578 173
607Q173 622 183 636T221 651H275V496H247V561H229Q229 561 224 552T212 530T200 507T194 496H161ZM228 448Q261 448 288 464T332 508T348 568Q348 601 332 628T289 672T228 688Q195 688 168 672T125 629T108 568Q108 535 124 508T168 465T228 448ZM228 585H247V628H225Q200
628 200 607Q200 596 208 591T228 585Z" />
<glyph unicode="&#xaf;" horiz-adv-x="0" d="M-131 599L-115 690H259L243 599H-131Z" />
<glyph unicode="&#xb0;" horiz-adv-x="348" d="M230 426Q191 426 159 443T106 493T86 569Q86 613 106 645T158 694T230 712Q292 712 333 674T375 569Q375 525 356 493T304 444T230 426ZM230 508Q255 508 272 525T290 569Q290 597 273 613T230 630Q206 630 189
614T172 569Q172 542 189 525T230 508Z" />
<glyph unicode="&#xb1;" horiz-adv-x="600" d="M229 154L252 282H60L79 389H271L294 516H403L380 389H572L553 282H361L338 154H229ZM11 0L31 112H523L503 0H11Z" />
<glyph unicode="&#xb2;" horiz-adv-x="293" d="M38 347L47 400L148 488Q189 523 219 551T249 606Q249 623 239 631T212 639Q187 639 174 622T156 585H79Q93 646 132 675T226 705Q283 705 305 677T328 616Q328 583 310 556T265 505T212 459L159 415H299L287 347H38Z" />
<glyph unicode="&#xb3;" horiz-adv-x="297" d="M165 342Q115 342 85 365T55 434Q55 440 55 446T57 459H132Q131 457 131 454T131 449Q131 431 143 421T177 410Q208 410 224 428T240 472Q240 491 228 500T195 510Q187 510 178 508T156 498L122 548L230 632H98L110
700H345L334 638L245 569Q278 562 297 539T316 482Q316 443 298 411T246 361T165 342Z" />
<glyph unicode="&#xb4;" horiz-adv-x="0" d="M188 539L204 629L452 751L433 647L188 539Z" />
<glyph unicode="&#xb5;" horiz-adv-x="598" d="M-28 -220L100 496H228L181 228Q179 216 178 206T176 186Q176 96 265 96Q317 96 358 132T412 235L458 496H586L499 0H386L388 81Q358 39 311 14T207 -12Q167 -12 140 6L100 -220H-28Z" />
<glyph unicode="&#xb6;" horiz-adv-x="624" d="M217 -100L285 283H268Q209 283 170 300T107 346T74 406T64 468Q64 533 89 577T155 649T245 688T342 700H646L505 -100H397L521 602H449L325 -100H217Z" />
<glyph unicode="&#xb7;" horiz-adv-x="222" d="M127 255Q92 255 68 279T44 338Q44 373 68 397T127 421Q162 421 186 397T210 338Q210 304 186 280T127 255Z" />
<glyph unicode="&#xb8;" horiz-adv-x="0" d="M-220 -263L-207 -189H-95Q-71 -189 -53 -179T-34 -147Q-34 -118 -82 -118H-143L-119 17H-39L-51 -50Q-4 -48 29 -69T62 -134Q62 -177 40 -205T-16 -248T-89 -263H-220Z" />
<glyph unicode="&#xb9;" horiz-adv-x="286" d="M47 347L59 415H149L185 614L94 594L105 656L233 700H274L223 415H303L291 347H47Z" />
<glyph unicode="&#xba;" horiz-adv-x="392" d="M216 348Q170 348 135 369T81 425T62 503Q62 562 89 609T165 684T272 712Q314 712 343 699T392 663T420 613T429 559Q429 500 401 452T325 376T216 348ZM232 426Q264 426 288 442T326 486T340 547Q340 585 319 609T260
634Q227 634 203 617T165 571T151 510Q151 473 173 450T232 426Z" />
<glyph unicode="&#xbb;" horiz-adv-x="485" d="M144 295L81 470H202L261 295L140 120H19L144 295ZM345 295L283 470H404L463 295L342 120H221L345 295Z" />
<glyph unicode="&#xbc;" horiz-adv-x="745" d="M26 0L670 700H768L124 0H26ZM42 347L54 415H144L180 614L89 594L100 656L228 700H269L218 415H298L286 347H42ZM554 0L565 63H401L412 122L569 353H647L499 132H582L596 213H669L655 132H694L681 63H642L631 0H554Z" />
<glyph unicode="&#xbd;" horiz-adv-x="750" d="M32 0L676 700H774L130 0H32ZM42 347L54 415H144L180 614L89 594L100 656L228 700H269L218 415H298L286 347H42ZM423 0L432 53L533 141Q574 176 604 204T634 259Q634 276 624 284T597 292Q572 292 559 275T541 238H464Q478
299 517 328T611 358Q668 358 690 330T713 269Q713 236 695 209T650 158T597 112L544 68H684L672 0H423Z" />
<glyph unicode="&#xbe;" horiz-adv-x="755" d="M36 0L680 700H778L134 0H36ZM564 0L575 63H411L422 122L579 353H657L509 132H592L606 213H679L665 132H704L691 63H652L641 0H564ZM175 342Q125 342 95 365T65 434Q65 440 65 446T67 459H142Q141 457 141 454T141
449Q141 431 153 421T187 410Q218 410 234 428T250 472Q250 491 238 500T205 510Q197 510 188 508T166 498L132 548L240 632H108L120 700H355L344 638L255 569Q288 562 307 539T326 482Q326 443 308 411T256 361T175 342Z" />
<glyph unicode="&#xbf;" horiz-adv-x="507" d="M190 -156Q101 -156 48 -109T-6 19Q-6 86 19 131T84 204T173 244T269 258L287 338H399L374 173H329Q226 173 173 141T120 34Q120 -4 144 -27T210 -50Q260 -50 293 -23T335 52H456Q447 -4 420 -43T355 -108T274 -144T190
-156ZM365 402Q331 402 307 426T282 485Q282 520 306 544T365 568Q400 568 424 544T448 485Q448 451 424 427T365 402Z" />
<glyph unicode="&#xc0;" horiz-adv-x="681" d="M-31 0L348 700H493L625 0H490L462 162H189L104 0H-31ZM240 260H446L395 556L240 260ZM541 740L334 848L353 952L557 830L541 740Z" />
<glyph unicode="&#xc1;" horiz-adv-x="681" d="M-31 0L348 700H493L625 0H490L462 162H189L104 0H-31ZM240 260H446L395 556L240 260ZM315 740L331 830L579 952L560 848L315 740Z" />
<glyph unicode="&#xc2;" horiz-adv-x="681" d="M-31 0L348 700H493L625 0H490L462 162H189L104 0H-31ZM240 260H446L395 556L240 260ZM283 747L299 839L459 919L591 839L575 747L443 829L283 747Z" />
<glyph unicode="&#xc3;" horiz-adv-x="681" d="M-31 0L348 700H493L625 0H490L462 162H189L104 0H-31ZM240 260H446L395 556L240 260ZM488 752Q467 752 453 759T428 775T404 791T373 798Q337 798 322 753H254Q275 817 311 847T393 877Q421 877 437 866T469 843T508
831Q525 831 538 842T559 876H627Q607 812 570 782T488 752Z" />
<glyph unicode="&#xc4;" horiz-adv-x="681" d="M-31 0L348 700H493L625 0H490L462 162H189L104 0H-31ZM240 260H446L395 556L240 260ZM559 768Q524 768 500 792T476 851Q476 886 500 910T559 934Q594 934 618 910T642 851Q642 816 618 792T559 768ZM337 768Q302
768 278 792T254 851Q254 886 278 910T337 934Q372 934 396 910T420 851Q420 816 396 792T337 768Z" />
<glyph unicode="&#xc5;" horiz-adv-x="681" d="M-31 0L348 700H493L625 0H490L462 162H189L104 0H-31ZM240 260H446L395 556L240 260ZM449 751Q403 751 370 781T336 863Q336 915 369 945T449 975Q497 975 530 945T564 863Q564 811 531 781T449 751ZM449 809Q472
809 487 824T502 863Q502 888 487 902T449 917Q428 917 413 903T398 863Q398 839 413 824T449 809Z" />
<glyph unicode="&#xc6;" horiz-adv-x="925" d="M-31 0L472 700H955L937 599H666L631 405H873L856 306H615L579 101H849L831 0H432L457 138H208L108 0H-31ZM278 237H474L539 602L278 237Z" />
<glyph unicode="&#xc7;" horiz-adv-x="719" d="M331 -12Q254 -12 200 12T112 76T63 167T47 269Q47 361 77 441T163 583T293 678T457 712Q583 712 653 650T724 474H582Q580 532 543 564T437 596Q371 596 322 568T242 493T195 391T179 283Q179 198 224 151T352 103Q421
103 467 133T537 218H679Q639 109 548 49T331 -12ZM177 -263L190 -189H302Q326 -189 344 -179T363 -147Q363 -118 315 -118H254L278 17H358L346 -50Q393 -48 426 -69T459 -134Q459 -177 437 -205T381 -248T308 -263H177Z" />
<glyph unicode="&#xc8;" horiz-adv-x="545" d="M14 0L138 700H577L557 591H246L217 424H482L463 315H198L162 109H473L453 0H14ZM473 740L266 848L285 952L489 830L473 740Z" />
<glyph unicode="&#xc9;" horiz-adv-x="545" d="M14 0L138 700H577L557 591H246L217 424H482L463 315H198L162 109H473L453 0H14ZM247 740L263 830L511 952L492 848L247 740Z" />
<glyph unicode="&#xca;" horiz-adv-x="545" d="M14 0L138 700H577L557 591H246L217 424H482L463 315H198L162 109H473L453 0H14ZM215 747L231 839L391 919L523 839L507 747L375 829L215 747Z" />
<glyph unicode="&#xcb;" horiz-adv-x="545" d="M14 0L138 700H577L557 591H246L217 424H482L463 315H198L162 109H473L453 0H14ZM491 768Q456 768 432 792T408 851Q408 886 432 910T491 934Q526 934 550 910T574 851Q574 816 550 792T491 768ZM269 768Q234 768
210 792T186 851Q186 886 210 910T269 934Q304 934 328 910T352 851Q352 816 328 792T269 768Z" />
<glyph unicode="&#xcc;" horiz-adv-x="244" d="M14 0L138 700H266L142 0H14ZM322 740L115 848L134 952L338 830L322 740Z" />
<glyph unicode="&#xcd;" horiz-adv-x="244" d="M14 0L138 700H266L142 0H14ZM96 740L112 830L360 952L341 848L96 740Z" />
<glyph unicode="&#xce;" horiz-adv-x="244" d="M14 0L138 700H266L142 0H14ZM320 747L336 839L496 919L628 839L612 747L480 829L320 747Z" />
<glyph unicode="&#xcf;" horiz-adv-x="244" d="M14 0L138 700H266L142 0H14ZM596 768Q561 768 537 792T513 851Q513 886 537 910T596 934Q631 934 655 910T679 851Q679 816 655 792T596 768ZM374 768Q339 768 315 792T291 851Q291 886 315 910T374 934Q409 934
433 910T457 851Q457 816 433 792T374 768Z" />
<glyph unicode="&#xd0;" horiz-adv-x="703" d="M73 295H-1L18 405H93L144 700H384Q489 700 556 665T656 567T689 415Q689 293 636 200T487 53Q389 0 261 0H21L73 295ZM274 110Q364 110 427 146T525 248Q558 314 558 404Q558 498 510 544T359 591H254L221 405H397L378
295H201L169 110H274Z" />
<glyph unicode="&#xd1;" horiz-adv-x="701" d="M14 0L138 700H266L508 211L595 700H723L599 0H471L228 488L142 0H14ZM498 752Q477 752 463 759T438 775T414 791T383 798Q347 798 332 753H264Q285 817 321 847T403 877Q431 877 447 866T479 843T518 831Q535 831
548 842T569 876H637Q617 812 580 782T498 752Z" />
<glyph unicode="&#xd2;" horiz-adv-x="784" d="M351 -12Q279 -12 223 12T128 79T69 176T49 290Q49 378 81 454T171 589T305 679T469 712Q545 712 602 687T696 618T752 521T771 411Q771 323 739 246T649 111T515 21T351 -12ZM367 104Q424 104 473 127T559 190T618
285T639 400Q639 460 617 504T554 573T454 597Q397 597 347 574T260 510T202 416T181 301Q181 241 203 197T268 128T367 104ZM592 740L385 848L404 952L608 830L592 740Z" />
<glyph unicode="&#xd3;" horiz-adv-x="784" d="M351 -12Q279 -12 223 12T128 79T69 176T49 290Q49 378 81 454T171 589T305 679T469 712Q545 712 602 687T696 618T752 521T771 411Q771 323 739 246T649 111T515 21T351 -12ZM367 104Q424 104 473 127T559 190T618
285T639 400Q639 460 617 504T554 573T454 597Q397 597 347 574T260 510T202 416T181 301Q181 241 203 197T268 128T367 104ZM366 740L382 830L630 952L611 848L366 740Z" />
<glyph unicode="&#xd4;" horiz-adv-x="784" d="M351 -12Q279 -12 223 12T128 79T69 176T49 290Q49 378 81 454T171 589T305 679T469 712Q545 712 602 687T696 618T752 521T771 411Q771 323 739 246T649 111T515 21T351 -12ZM367 104Q424 104 473 127T559 190T618
285T639 400Q639 460 617 504T554 573T454 597Q397 597 347 574T260 510T202 416T181 301Q181 241 203 197T268 128T367 104ZM334 747L350 839L510 919L642 839L626 747L494 829L334 747Z" />
<glyph unicode="&#xd5;" horiz-adv-x="784" d="M351 -12Q279 -12 223 12T128 79T69 176T49 290Q49 378 81 454T171 589T305 679T469 712Q545 712 602 687T696 618T752 521T771 411Q771 323 739 246T649 111T515 21T351 -12ZM367 104Q424 104 473 127T559 190T618
285T639 400Q639 460 617 504T554 573T454 597Q397 597 347 574T260 510T202 416T181 301Q181 241 203 197T268 128T367 104ZM539 752Q518 752 504 759T479 775T455 791T424 798Q388 798 373 753H305Q326 817 362 847T444 877Q472 877 488 866T520 843T559 831Q576
831 589 842T610 876H678Q658 812 621 782T539 752Z" />
<glyph unicode="&#xd6;" horiz-adv-x="784" d="M351 -12Q279 -12 223 12T128 79T69 176T49 290Q49 378 81 454T171 589T305 679T469 712Q545 712 602 687T696 618T752 521T771 411Q771 323 739 246T649 111T515 21T351 -12ZM367 104Q424 104 473 127T559 190T618
285T639 400Q639 460 617 504T554 573T454 597Q397 597 347 574T260 510T202 416T181 301Q181 241 203 197T268 128T367 104ZM610 768Q575 768 551 792T527 851Q527 886 551 910T610 934Q645 934 669 910T693 851Q693 816 669 792T610 768ZM388 768Q353 768 329
792T305 851Q305 886 329 910T388 934Q423 934 447 910T471 851Q471 816 447 792T388 768Z" />
<glyph unicode="&#xd7;" horiz-adv-x="600" d="M147 89L85 164L231 290L131 412L219 487L320 364L468 491L530 415L382 289L483 167L394 92L294 215L147 89Z" />
<glyph unicode="&#xd8;" horiz-adv-x="766" d="M346 -12Q289 -12 240 5T153 52L99 0H-23L95 115Q71 151 58 195T45 290Q45 379 77 456T168 590T301 680T464 712Q519 712 567 697T652 652L702 700H824L711 592Q738 555 752 509T766 411Q766 323 734 246T644 111T510
21T346 -12ZM362 103Q419 103 468 126T554 190T613 285T634 400Q634 428 630 452T615 498L244 141Q293 103 362 103ZM193 209L561 565Q539 581 511 589T449 597Q392 597 343 574T256 510T198 416T177 301Q177 276 181 253T193 209Z" />
<glyph unicode="&#xd9;" horiz-adv-x="666" d="M279 -12Q171 -12 110 43T48 201Q48 232 54 268L130 700H258L182 268Q180 256 179 245T177 223Q177 164 210 135T302 106Q371 106 418 146T479 268L556 700H684L608 268Q594 189 560 135T480 49T382 3T279 -12ZM533
740L326 848L345 952L549 830L533 740Z" />
<glyph unicode="&#xda;" horiz-adv-x="666" d="M279 -12Q171 -12 110 43T48 201Q48 232 54 268L130 700H258L182 268Q180 256 179 245T177 223Q177 164 210 135T302 106Q371 106 418 146T479 268L556 700H684L608 268Q594 189 560 135T480 49T382 3T279 -12ZM307
740L323 830L571 952L552 848L307 740Z" />
<glyph unicode="&#xdb;" horiz-adv-x="666" d="M279 -12Q171 -12 110 43T48 201Q48 232 54 268L130 700H258L182 268Q180 256 179 245T177 223Q177 164 210 135T302 106Q371 106 418 146T479 268L556 700H684L608 268Q594 189 560 135T480 49T382 3T279 -12ZM275
747L291 839L451 919L583 839L567 747L435 829L275 747Z" />
<glyph unicode="&#xdc;" horiz-adv-x="666" d="M279 -12Q171 -12 110 43T48 201Q48 232 54 268L130 700H258L182 268Q180 256 179 245T177 223Q177 164 210 135T302 106Q371 106 418 146T479 268L556 700H684L608 268Q594 189 560 135T480 49T382 3T279 -12ZM551
768Q516 768 492 792T468 851Q468 886 492 910T551 934Q586 934 610 910T634 851Q634 816 610 792T551 768ZM329 768Q294 768 270 792T246 851Q246 886 270 910T329 934Q364 934 388 910T412 851Q412 816 388 792T329 768Z" />
<glyph unicode="&#xdd;" horiz-adv-x="599" d="M185 0L235 281L74 700H219L322 409L528 700H671L363 281L313 0H185ZM274 740L290 830L538 952L519 848L274 740Z" />
<glyph unicode="&#xde;" horiz-adv-x="590" d="M15 0L138 700H266L242 565H373Q436 565 484 544T560 483T588 382Q588 302 549 247T445 164T298 136H167L143 0H15ZM185 239H309Q378 239 417 275T456 377Q456 417 431 438T348 460H224L185 239Z" />
<glyph unicode="&#xdf;" horiz-adv-x="670" d="M409 -10Q314 -10 264 40T219 175H340Q337 134 358 110T420 85Q461 85 486 106T511 165Q511 188 494 205T432 238Q365 263 333 289T301 355Q301 386 317 408T357 447Q383 465 406 481T445 515T461 559Q461 590 436
607T363 625Q298 625 262 592T215 499L127 0H-1L89 509Q100 570 135 620T231 701T381 732Q447 732 494 712T567 657T593 580Q593 544 577 519T537 475Q514 457 490 443T449 415T433 382Q433 371 442 362T471 343T525 321Q585 299 612 267T639 180Q639 125 611 83T531
15T409 -10Z" />
<glyph unicode="&#xe0;" horiz-adv-x="549" d="M151 -12Q111 -12 78 4T25 49T5 117Q5 175 37 214T122 274T240 295H362Q363 303 363 309T364 323Q364 358 347 379T285 400Q250 400 222 383T178 333H53Q74 389 110 428T196 487T306 508Q367 508 408 488T470 431T492
342Q492 331 491 319T487 292L463 157Q462 153 462 147T461 138Q461 120 473 113T507 106L488 0Q417 0 381 18T334 73Q310 45 282 26T222 -2T151 -12ZM200 90Q233 90 262 105T313 148T344 213H234Q208 213 186 205T150 179T136 137Q136 113 154 102T200 90ZM438
539L231 647L250 751L454 629L438 539Z" />
<glyph unicode="&#xe1;" horiz-adv-x="549" d="M151 -12Q111 -12 78 4T25 49T5 117Q5 175 37 214T122 274T240 295H362Q363 303 363 309T364 323Q364 358 347 379T285 400Q250 400 222 383T178 333H53Q74 389 110 428T196 487T306 508Q367 508 408 488T470 431T492
342Q492 331 491 319T487 292L463 157Q462 153 462 147T461 138Q461 120 473 113T507 106L488 0Q417 0 381 18T334 73Q310 45 282 26T222 -2T151 -12ZM200 90Q233 90 262 105T313 148T344 213H234Q208 213 186 205T150 179T136 137Q136 113 154 102T200 90ZM212
539L228 629L476 751L457 647L212 539Z" />
<glyph unicode="&#xe2;" horiz-adv-x="549" d="M151 -12Q111 -12 78 4T25 49T5 117Q5 175 37 214T122 274T240 295H362Q363 303 363 309T364 323Q364 358 347 379T285 400Q250 400 222 383T178 333H53Q74 389 110 428T196 487T306 508Q367 508 408 488T470 431T492
342Q492 331 491 319T487 292L463 157Q462 153 462 147T461 138Q461 120 473 113T507 106L488 0Q417 0 381 18T334 73Q310 45 282 26T222 -2T151 -12ZM200 90Q233 90 262 105T313 148T344 213H234Q208 213 186 205T150 179T136 137Q136 113 154 102T200 90ZM182
554L198 646L358 726L490 646L474 554L342 636L182 554Z" />
<glyph unicode="&#xe3;" horiz-adv-x="549" d="M151 -12Q111 -12 78 4T25 49T5 117Q5 175 37 214T122 274T240 295H362Q363 303 363 309T364 323Q364 358 347 379T285 400Q250 400 222 383T178 333H53Q74 389 110 428T196 487T306 508Q367 508 408 488T470 431T492
342Q492 331 491 319T487 292L463 157Q462 153 462 147T461 138Q461 120 473 113T507 106L488 0Q417 0 381 18T334 73Q310 45 282 26T222 -2T151 -12ZM200 90Q233 90 262 105T313 148T344 213H234Q208 213 186 205T150 179T136 137Q136 113 154 102T200 90ZM391
579Q370 579 356 586T331 602T307 618T276 625Q240 625 225 580H157Q178 644 214 674T296 704Q324 704 340 693T372 670T411 658Q428 658 441 669T462 703H530Q510 639 473 609T391 579Z" />
<glyph unicode="&#xe4;" horiz-adv-x="549" d="M151 -12Q111 -12 78 4T25 49T5 117Q5 175 37 214T122 274T240 295H362Q363 303 363 309T364 323Q364 358 347 379T285 400Q250 400 222 383T178 333H53Q74 389 110 428T196 487T306 508Q367 508 408 488T470 431T492
342Q492 331 491 319T487 292L463 157Q462 153 462 147T461 138Q461 120 473 113T507 106L488 0Q417 0 381 18T334 73Q310 45 282 26T222 -2T151 -12ZM200 90Q233 90 262 105T313 148T344 213H234Q208 213 186 205T150 179T136 137Q136 113 154 102T200 90ZM455
560Q420 560 396 584T372 643Q372 678 396 702T455 726Q490 726 514 702T538 643Q538 608 514 584T455 560ZM233 560Q198 560 174 584T150 643Q150 678 174 702T233 726Q268 726 292 702T316 643Q316 608 292 584T233 560Z" />
<glyph unicode="&#xe5;" horiz-adv-x="549" d="M151 -12Q111 -12 78 4T25 49T5 117Q5 175 37 214T122 274T240 295H362Q363 303 363 309T364 323Q364 358 347 379T285 400Q250 400 222 383T178 333H53Q74 389 110 428T196 487T306 508Q367 508 408 488T470 431T492
342Q492 331 491 319T487 292L463 157Q462 153 462 147T461 138Q461 120 473 113T507 106L488 0Q417 0 381 18T334 73Q310 45 282 26T222 -2T151 -12ZM200 90Q233 90 262 105T313 148T344 213H234Q208 213 186 205T150 179T136 137Q136 113 154 102T200 90ZM345
545Q299 545 266 575T232 657Q232 709 265 739T345 769Q393 769 426 739T460 657Q460 605 427 575T345 545ZM345 603Q368 603 383 618T398 657Q398 682 383 696T345 711Q324 711 309 697T294 657Q294 633 309 618T345 603Z" />
<glyph unicode="&#xe6;" horiz-adv-x="907" d="M180 -12Q124 -12 85 4T26 49T5 116Q5 164 26 197T83 252T162 283T247 293H387Q390 305 390 314T391 329Q391 367 368 385T307 404Q267 404 235 386T189 331H64Q78 379 106 412T171 467T248 498T325 508Q385 508
427 491T492 438Q531 471 580 489T685 508Q752 508 798 482T869 412T894 311Q894 287 890 262T879 217H503Q502 213 502 210T502 202Q501 151 531 122T610 93Q650 93 679 110T728 156H858Q830 97 786 60T691 6T593 -12Q527 -12 479 15T405 91Q366 44 307 16T180
-12ZM214 88Q249 88 281 102T336 142T364 201L366 213H247Q201 213 173 194T144 140Q144 115 163 102T214 88ZM520 297H766Q767 301 767 304T767 308Q767 352 740 378T667 404Q620 404 580 377T520 297Z" />
<glyph unicode="&#xe7;" horiz-adv-x="558" d="M241 -12Q172 -12 124 16T50 92T24 201Q24 266 47 321T112 419T210 484T332 508Q428 508 485 457T543 316H408Q408 356 381 377T313 399Q274 399 245 382T196 337T166 277T156 213Q156 160 185 129T260 97Q301 97
335 118T385 180H519Q495 113 450 71T350 8T241 -12ZM94 -263L107 -189H219Q243 -189 261 -179T280 -147Q280 -118 232 -118H171L195 17H275L263 -50Q310 -48 343 -69T376 -134Q376 -177 354 -205T298 -248T225 -263H94Z" />
<glyph unicode="&#xe8;" horiz-adv-x="556" d="M240 -12Q141 -12 83 45T24 199Q24 263 46 319T110 417T207 484T331 508Q396 508 443 484T516 415T542 311Q542 287 538 262T527 217H151Q150 213 150 209T150 200Q150 150 180 122T258 93Q296 93 325 110T374 156H504Q477
99 434 62T341 7T240 -12ZM167 297H414Q415 301 415 304T415 308Q416 352 388 378T314 404Q268 404 227 378T167 297ZM442 539L235 647L254 751L458 629L442 539Z" />
<glyph unicode="&#xe9;" horiz-adv-x="556" d="M240 -12Q141 -12 83 45T24 199Q24 263 46 319T110 417T207 484T331 508Q396 508 443 484T516 415T542 311Q542 287 538 262T527 217H151Q150 213 150 209T150 200Q150 150 180 122T258 93Q296 93 325 110T374 156H504Q477
99 434 62T341 7T240 -12ZM167 297H414Q415 301 415 304T415 308Q416 352 388 378T314 404Q268 404 227 378T167 297ZM216 539L232 629L480 751L461 647L216 539Z" />
<glyph unicode="&#xea;" horiz-adv-x="556" d="M240 -12Q141 -12 83 45T24 199Q24 263 46 319T110 417T207 484T331 508Q396 508 443 484T516 415T542 311Q542 287 538 262T527 217H151Q150 213 150 209T150 200Q150 150 180 122T258 93Q296 93 325 110T374 156H504Q477
99 434 62T341 7T240 -12ZM167 297H414Q415 301 415 304T415 308Q416 352 388 378T314 404Q268 404 227 378T167 297ZM186 554L202 646L362 726L494 646L478 554L346 636L186 554Z" />
<glyph unicode="&#xeb;" horiz-adv-x="556" d="M240 -12Q141 -12 83 45T24 199Q24 263 46 319T110 417T207 484T331 508Q396 508 443 484T516 415T542 311Q542 287 538 262T527 217H151Q150 213 150 209T150 200Q150 150 180 122T258 93Q296 93 325 110T374 156H504Q477
99 434 62T341 7T240 -12ZM167 297H414Q415 301 415 304T415 308Q416 352 388 378T314 404Q268 404 227 378T167 297ZM459 560Q424 560 400 584T376 643Q376 678 400 702T459 726Q494 726 518 702T542 643Q542 608 518 584T459 560ZM237 560Q202 560 178 584T154
643Q154 678 178 702T237 726Q272 726 296 702T320 643Q320 608 296 584T237 560Z" />
<glyph unicode="&#xec;" horiz-adv-x="219" d="M2 0L89 496H217L130 0H2ZM528 539L321 647L340 751L544 629L528 539Z" />
<glyph unicode="&#xed;" horiz-adv-x="219" d="M2 0L89 496H217L130 0H2ZM302 539L318 629L566 751L547 647L302 539Z" />
<glyph unicode="&#xee;" horiz-adv-x="219" d="M2 0L89 496H217L130 0H2ZM272 554L288 646L448 726L580 646L564 554L432 636L272 554Z" />
<glyph unicode="&#xef;" horiz-adv-x="219" d="M2 0L89 496H217L130 0H2ZM521 560Q488 560 466 584T444 643Q444 678 466 702T521 726Q554 726 576 702T599 643Q599 608 577 584T521 560ZM343 560Q310 560 288 584T265 643Q265 678 287 702T343 726Q376 726 398
702T420 643Q420 608 398 584T343 560Z" />
<glyph unicode="&#xf0;" horiz-adv-x="596" d="M264 -12Q204 -12 160 8T86 61T41 135T26 217Q26 278 49 330T112 421T207 481T323 503Q365 503 400 491T459 451Q453 484 443 515T418 577L287 537L301 614L382 639Q371 656 358 671T331 700H451Q459 693 465 685T479
669L609 709L595 632L520 609Q552 552 567 490T583 367Q583 274 557 203T485 85T383 13T264 -12ZM278 97Q317 97 347 113T398 156T429 213T440 272Q440 331 406 362T320 394Q280 394 250 379T199 338T168 282T158 224Q158 167 191 132T278 97Z" />
<glyph unicode="&#xf1;" horiz-adv-x="569" d="M2 0L89 496H202L199 414Q230 457 277 482T382 508Q459 508 501 466T544 343Q544 329 543 313T538 280L488 0H360L408 268Q410 276 411 289T412 310Q412 400 323 400Q288 400 257 383T205 335T176 260L130 0H2ZM402
579Q381 579 367 586T342 602T318 618T287 625Q251 625 236 580H168Q189 644 225 674T307 704Q335 704 351 693T383 670T422 658Q439 658 452 669T473 703H541Q521 639 484 609T402 579Z" />
<glyph unicode="&#xf2;" horiz-adv-x="575" d="M246 -12Q179 -12 130 17T53 97T25 209Q25 272 48 326T112 422T207 485T326 508Q385 508 427 489T497 437T537 367T550 289Q550 226 527 171T463 75T366 11T246 -12ZM268 99Q314 99 349 122T403 185T423 272Q423
325 392 361T308 397Q261 397 226 373T172 308T152 220Q152 168 184 134T268 99ZM452 539L245 647L264 751L468 629L452 539Z" />
<glyph unicode="&#xf3;" horiz-adv-x="575" d="M246 -12Q179 -12 130 17T53 97T25 209Q25 272 48 326T112 422T207 485T326 508Q385 508 427 489T497 437T537 367T550 289Q550 226 527 171T463 75T366 11T246 -12ZM268 99Q314 99 349 122T403 185T423 272Q423
325 392 361T308 397Q261 397 226 373T172 308T152 220Q152 168 184 134T268 99ZM226 539L242 629L490 751L471 647L226 539Z" />
<glyph unicode="&#xf4;" horiz-adv-x="575" d="M246 -12Q179 -12 130 17T53 97T25 209Q25 272 48 326T112 422T207 485T326 508Q385 508 427 489T497 437T537 367T550 289Q550 226 527 171T463 75T366 11T246 -12ZM268 99Q314 99 349 122T403 185T423 272Q423
325 392 361T308 397Q261 397 226 373T172 308T152 220Q152 168 184 134T268 99ZM196 554L212 646L372 726L504 646L488 554L356 636L196 554Z" />
<glyph unicode="&#xf5;" horiz-adv-x="575" d="M246 -12Q179 -12 130 17T53 97T25 209Q25 272 48 326T112 422T207 485T326 508Q385 508 427 489T497 437T537 367T550 289Q550 226 527 171T463 75T366 11T246 -12ZM268 99Q314 99 349 122T403 185T423 272Q423
325 392 361T308 397Q261 397 226 373T172 308T152 220Q152 168 184 134T268 99ZM405 579Q384 579 370 586T345 602T321 618T290 625Q254 625 239 580H171Q192 644 228 674T310 704Q338 704 354 693T386 670T425 658Q442 658 455 669T476 703H544Q524 639 487 609T405
579Z" />
<glyph unicode="&#xf6;" horiz-adv-x="575" d="M246 -12Q179 -12 130 17T53 97T25 209Q25 272 48 326T112 422T207 485T326 508Q385 508 427 489T497 437T537 367T550 289Q550 226 527 171T463 75T366 11T246 -12ZM268 99Q314 99 349 122T403 185T423 272Q423
325 392 361T308 397Q261 397 226 373T172 308T152 220Q152 168 184 134T268 99ZM469 560Q434 560 410 584T386 643Q386 678 410 702T469 726Q504 726 528 702T552 643Q552 608 528 584T469 560ZM247 560Q212 560 188 584T164 643Q164 678 188 702T247 726Q282
726 306 702T330 643Q330 608 306 584T247 560Z" />
<glyph unicode="&#xf7;" horiz-adv-x="600" d="M84 236L102 343H532L513 236H84ZM280 22Q243 22 220 46T197 104Q197 141 220 164T280 188Q317 188 339 165T362 104Q362 70 340 46T280 22ZM337 391Q300 391 277 415T254 473Q254 509 277 533T337 557Q374 557 396
533T419 473Q419 439 397 415T337 391Z" />
<glyph unicode="&#xf8;" horiz-adv-x="548" d="M232 -12Q192 -12 158 -1T98 29L67 0H-34L49 80Q11 135 11 209Q11 272 34 326T98 422T193 485T312 508Q356 508 390 497T451 467L481 496H582L499 416Q518 388 527 355T536 289Q536 226 513 171T449 75T352 11T232
-12ZM254 99Q289 99 317 112T366 150T398 205T409 272Q409 298 401 322L189 117Q203 109 219 104T254 99ZM146 173L359 378Q331 397 294 397Q259 397 230 383T181 344T149 287T138 220Q138 195 146 173Z" />
<glyph unicode="&#xf9;" horiz-adv-x="569" d="M187 -12Q110 -12 68 30T25 153Q25 182 31 216L81 496H209L161 228Q160 221 159 208T157 186Q157 96 246 96Q299 96 340 133T393 236L439 496H567L480 0H367L370 82Q339 39 292 14T187 -12ZM449 539L242 647L261
751L465 629L449 539Z" />
<glyph unicode="&#xfa;" horiz-adv-x="569" d="M187 -12Q110 -12 68 30T25 153Q25 182 31 216L81 496H209L161 228Q160 221 159 208T157 186Q157 96 246 96Q299 96 340 133T393 236L439 496H567L480 0H367L370 82Q339 39 292 14T187 -12ZM223 539L239 629L487
751L468 647L223 539Z" />
<glyph unicode="&#xfb;" horiz-adv-x="569" d="M187 -12Q110 -12 68 30T25 153Q25 182 31 216L81 496H209L161 228Q160 221 159 208T157 186Q157 96 246 96Q299 96 340 133T393 236L439 496H567L480 0H367L370 82Q339 39 292 14T187 -12ZM193 554L209 646L369
726L501 646L485 554L353 636L193 554Z" />
<glyph unicode="&#xfc;" horiz-adv-x="569" d="M187 -12Q110 -12 68 30T25 153Q25 182 31 216L81 496H209L161 228Q160 221 159 208T157 186Q157 96 246 96Q299 96 340 133T393 236L439 496H567L480 0H367L370 82Q339 39 292 14T187 -12ZM466 560Q431 560 407
584T383 643Q383 678 407 702T466 726Q501 726 525 702T549 643Q549 608 525 584T466 560ZM244 560Q209 560 185 584T161 643Q161 678 185 702T244 726Q279 726 303 702T327 643Q327 608 303 584T244 560Z" />
<glyph unicode="&#xfd;" horiz-adv-x="552" d="M23 -220L165 6L41 496H178L258 147L464 496H600L159 -220H23ZM214 539L230 629L478 751L459 647L214 539Z" />
<glyph unicode="&#xfe;" horiz-adv-x="605" d="M-36 -220L125 700H253L206 433Q235 464 277 486T379 508Q429 508 466 491T529 443T568 374T581 294Q581 230 560 175T500 77T409 12T294 -12Q240 -12 200 11T142 68L92 -220H-36ZM288 100Q336 100 372 123T429 186T449
272Q449 325 417 360T330 396Q276 396 240 370T186 303T168 220Q168 168 201 134T288 100Z" />
<glyph unicode="&#xff;" horiz-adv-x="552" d="M23 -220L165 6L41 496H178L258 147L464 496H600L159 -220H23ZM457 560Q422 560 398 584T374 643Q374 678 398 702T457 726Q492 726 516 702T540 643Q540 608 516 584T457 560ZM235 560Q200 560 176 584T152 643Q152
678 176 702T235 726Q270 726 294 702T318 643Q318 608 294 584T235 560Z" />
<glyph unicode="&#x2013;" horiz-adv-x="629" d="M43 236L61 343H601L582 236H43Z" />
<glyph unicode="&#x2014;" horiz-adv-x="849" d="M43 236L61 343H821L802 236H43Z" />
<glyph unicode="&#x2018;" horiz-adv-x="244" d="M57 454L202 700H289L192 454H57Z" />
<glyph unicode="&#x2019;" horiz-adv-x="244" d="M71 454L169 700H304L159 454H71Z" />
<glyph unicode="&#x201a;" horiz-adv-x="220" d="M-61 -113L37 133H172L26 -113H-61Z" />
<glyph unicode="&#x201c;" horiz-adv-x="441" d="M254 454L399 700H486L389 454H254ZM57 454L202 700H289L192 454H57Z" />
<glyph unicode="&#x201d;" horiz-adv-x="441" d="M268 454L365 700H500L355 454H268ZM71 454L168 700H303L158 454H71Z" />
<glyph unicode="&#x201e;" horiz-adv-x="429" d="M147 -113L246 133H380L235 -113H147ZM-52 -113L46 133H181L35 -113H-52Z" />
<glyph unicode="&#x2022;" horiz-adv-x="367" d="M198 198Q161 198 130 216T81 265T63 333Q63 371 81 402T129 451T198 469Q236 469 267 451T316 402T334 333Q334 295 316 265T267 216T198 198Z" />
<glyph unicode="&#x2039;" horiz-adv-x="284" d="M97 120L38 295L159 470H280L156 295L219 120H97Z" />
<glyph unicode="&#x203a;" horiz-adv-x="283" d="M19 120L144 295L81 470H202L261 295L140 120H19Z" />
</font>
</defs>
</svg>
