<?xml version="1.0" standalone="no"?>
<!DOCTYPE svg PUBLIC "-//W3C//DTD SVG 1.1//EN" "http://www.w3.org/Graphics/SVG/1.1/DTD/svg11.dtd">
<svg xmlns="http://www.w3.org/2000/svg">
<defs >
<font id="RethinkSans" horiz-adv-x="561" ><font-face
    font-family="Rethink Sans"
    units-per-em="1000"
    panose-1="0 0 0 0 0 0 0 0 0 0"
    ascent="992"
    descent="-310"
    alphabetic="0" />
<glyph unicode=" " horiz-adv-x="286" />
<glyph unicode="!" horiz-adv-x="250" d="M71 194L151 700H242L142 194H71ZM91 -5Q66 -5 50 11T33 52Q33 76 49 92T91 109Q115 109 131 93T148 52Q148 28 132 12T91 -5Z" />
<glyph unicode="&quot;" horiz-adv-x="371" d="M236 476L333 699H427L296 476H236ZM77 476L174 699H268L137 476H77Z" />
<glyph unicode="#" horiz-adv-x="814" d="M100 0L177 197H36L49 272H206L270 435H120L133 509H299L376 706H455L379 509H593L670 706H750L673 509H811L799 435H644L580 272H727L713 197H551L474 0H394L471 197H257L180 0H100ZM286 272H500L564 435H350L286 272Z" />
<glyph unicode="$" horiz-adv-x="591" d="M199 -87L213 -8Q133 5 86 52T39 170Q39 179 40 189T43 210H131Q130 203 129 197T128 183Q128 140 154 109T226 65L273 333Q266 335 260 337T249 342Q183 366 151 407T118 502Q118 565 147 610T227 681T340 711L354 791H423L408
709Q480 699 523 656T566 549Q566 542 566 534T563 518H476Q477 523 477 528T477 537Q477 570 457 597T395 636L353 396Q370 390 376 388T387 384Q448 361 490 320T532 211Q532 141 498 92T406 16T281 -12L268 -87H199ZM293 59Q366 63 404 101T442 201Q442 246
412 270T338 311L293 59ZM288 420L327 639Q272 631 240 598T207 515Q207 479 229 458T288 420Z" />
<glyph unicode="%" horiz-adv-x="774" d="M95 0L625 700H708L179 0H95ZM226 375Q166 375 128 412T89 514Q89 568 114 612T183 684Q227 711 279 711Q338 711 376 674T415 572Q415 518 390 474T322 402Q279 375 226 375ZM234 438Q265 438 290 456T330 503T345 566Q345
608 324 628T270 649Q239 649 214 631T174 584T159 521Q159 479 181 459T234 438ZM531 -12Q491 -12 460 4T412 52T394 127Q394 181 419 225T488 297Q532 324 584 324Q644 324 682 288T720 186Q720 132 695 87T627 15Q605 2 581 -5T531 -12ZM540 51Q571 51 595 69T635
116T650 179Q650 221 629 241T576 262Q545 262 520 244T480 197T465 134Q465 92 487 72T540 51Z" />
<glyph unicode="&amp;" horiz-adv-x="673" d="M206 -12Q146 -12 106 10T46 69T25 152Q25 189 40 229T90 308T179 382L186 387L181 394Q164 420 154 446T144 503Q144 532 156 568T196 637T267 691T372 712Q425 712 462 694T520 643T540 564Q540 555 539 544T535
522H453Q455 530 455 537T456 552Q456 581 444 600T411 630T358 640Q320 640 295 627T254 593T233 551T226 514Q226 473 253 435T319 350L439 207L583 404H670L483 154L613 -1H509L429 95L423 87Q378 44 326 16T206 -12ZM223 61Q270 61 308 81T380 138L387 145L228
333L220 329Q174 302 141 261T108 168Q108 125 137 93T223 61Z" />
<glyph unicode="&apos;" horiz-adv-x="213" d="M78 477L174 700H268L138 477H78Z" />
<glyph unicode="(" horiz-adv-x="373" d="M178 -145Q124 -83 88 8T51 215Q51 326 88 435T192 642Q225 690 264 732T347 811H433L432 803Q339 725 273 630T171 432Q154 380 145 329T136 226Q136 120 171 28T267 -137L265 -145H178Z" />
<glyph unicode=")" horiz-adv-x="373" d="M-30 -145L-29 -137Q64 -59 130 36T232 234Q249 286 258 337T267 440Q267 546 232 638T136 803L138 811H224Q278 749 314 658T351 451Q351 340 315 231T212 25Q178 -24 139 -66T56 -145H-30Z" />
<glyph unicode="*" horiz-adv-x="474" d="M221 356L245 493L115 425L94 476L224 545L118 613L157 664L263 596L287 733H346L322 596L454 664L474 613L343 545L450 476L412 425L304 493L280 356H221Z" />
<glyph unicode="+" horiz-adv-x="600" d="M231 72L264 255H73L85 326H276L308 508H384L352 326H542L530 255H339L307 72H231Z" />
<glyph unicode="," horiz-adv-x="178" d="M-64 -119L33 102H120L-6 -119H-64Z" />
<glyph unicode="-" horiz-adv-x="514" d="M61 255L73 326H469L457 255H61Z" />
<glyph unicode="." horiz-adv-x="196" d="M64 -5Q39 -5 23 11T6 52Q6 76 22 92T64 109Q89 109 105 93T121 52Q121 28 105 12T64 -5Z" />
<glyph unicode="/" horiz-adv-x="391" d="M-32 -95L370 764H453L50 -95H-32Z" />
<glyph unicode="0" horiz-adv-x="600" d="M255 -12Q179 -12 133 19T65 105T44 231Q44 285 54 349T88 477T151 594T248 680T383 712Q459 712 505 682T573 598T594 472Q594 420 584 356T551 228T489 109T393 21T255 -12ZM268 63Q321 63 361 91T429 164T474 262T499
368T507 460Q507 543 474 590T370 637Q315 637 274 609T206 536T162 438T138 334T130 242Q130 157 163 110T268 63Z" />
<glyph unicode="1" horiz-adv-x="600" d="M45 0L57 69H272L367 604L145 547L155 606L421 700H465L353 69H531L519 0H45Z" />
<glyph unicode="2" horiz-adv-x="600" d="M29 0L42 73L305 303Q333 328 363 354T419 409T461 468T477 530Q477 576 450 608T367 640Q302 640 258 598T202 492H121Q133 559 169 608T260 684T381 712Q437 712 477 691T540 632T562 540Q562 499 548 464T508 398T450
338T382 278L141 70H504L491 0H29Z" />
<glyph unicode="3" horiz-adv-x="600" d="M257 -12Q157 -12 101 38T44 176Q44 181 44 183T44 190H127Q127 189 127 188T127 184Q127 131 164 96T270 60Q334 60 376 88T439 158T460 243Q460 299 424 328T323 357Q304 357 285 352T245 336L202 397L484 631H153L165
700H601L589 634L333 419Q385 424 433 407T511 350T542 249Q542 200 524 154T469 70T380 10T257 -12Z" />
<glyph unicode="4" horiz-adv-x="600" d="M342 0L369 150H25L36 215L365 700H450L129 224H386L421 423H500L465 224H567L554 150H452L425 0H342Z" />
<glyph unicode="5" horiz-adv-x="600" d="M264 -12Q192 -12 144 15T71 88T47 184Q47 186 47 187T47 189H130Q131 147 151 118T203 75T274 60Q338 60 381 91T447 169T470 266Q470 328 434 369T336 410Q270 410 227 380T163 316H83L211 700H578L565 627H262L184
414Q211 440 253 460T354 481Q397 481 433 467T496 425T537 362T552 280Q552 195 514 129T410 26T264 -12Z" />
<glyph unicode="6" horiz-adv-x="600" d="M282 -12Q218 -12 177 9T113 66T81 145T71 230Q71 349 99 439T175 589T281 681T397 712Q446 712 480 696T534 651T562 589T569 520H494Q494 573 468 606T386 639Q326 639 281 600T204 493T154 336Q187 384 236 416T354
448Q401 448 436 432T494 388T530 326T542 253Q542 176 506 116T411 22T282 -12ZM290 62Q343 62 381 87T439 153T460 240Q460 298 426 336T331 375Q282 375 243 352T181 288T158 198Q158 137 193 100T290 62Z" />
<glyph unicode="7" horiz-adv-x="600" d="M113 0L521 628H117L130 700H622L611 637L204 0H113Z" />
<glyph unicode="8" horiz-adv-x="600" d="M261 -12Q227 -12 190 -3T122 27T70 82T50 166Q50 224 76 266T142 335T225 373Q180 389 154 424T128 504Q128 563 159 610T248 684T379 712Q469 712 519 668T569 550Q569 511 555 481T518 430T470 395T422 373Q481 356
505 314T530 221Q530 158 497 105T403 20T261 -12ZM272 62Q318 62 358 80T422 133T447 218Q447 280 408 306T314 333Q286 333 255 325T197 298T152 250T135 176Q135 121 173 92T272 62ZM334 403Q371 403 405 418T461 463T483 540Q483 590 455 615T367 640Q324 640
289 624T234 577T213 505Q213 468 230 446T275 413T334 403Z" />
<glyph unicode="9" horiz-adv-x="600" d="M239 -12Q190 -12 156 4T102 49T74 111T67 180H142Q142 127 168 94T250 61Q310 61 355 100T433 207T482 364Q449 316 400 284T282 252Q235 252 200 268T142 312T106 375T94 447Q94 525 130 584T226 678T354 712Q418 712
459 691T523 634T555 555T565 470Q565 352 537 262T461 111T356 19T239 -12ZM305 325Q355 325 394 348T455 412T478 502Q478 564 443 601T346 638Q293 638 255 613T197 548T176 460Q176 402 210 364T305 325Z" />
<glyph unicode=":" horiz-adv-x="199" d="M134 394Q109 394 93 410T76 451Q76 475 92 491T134 508Q159 508 175 492T191 451Q191 427 175 411T134 394ZM64 -5Q39 -5 23 11T6 52Q6 76 22 92T64 109Q89 109 105 93T121 52Q121 28 105 12T64 -5Z" />
<glyph unicode=";" horiz-adv-x="225" d="M-46 -119L51 102H138L12 -119H-46ZM160 393Q135 393 119 409T102 450Q102 474 118 490T160 507Q185 507 201 491T217 450Q217 426 201 410T160 393Z" />
<glyph unicode="&lt;" horiz-adv-x="600" d="M350 137L146 367L432 598H537L251 367L456 137H350Z" />
<glyph unicode="=" horiz-adv-x="600" d="M85 151L97 223H496L483 151H85ZM122 359L134 431H532L520 359H122Z" />
<glyph unicode="&gt;" horiz-adv-x="600" d="M106 137L392 367L187 598H293L496 367L211 137H106Z" />
<glyph unicode="?" horiz-adv-x="516" d="M137 196L162 357H191Q262 357 317 373T403 427Q434 464 434 530Q434 580 402 610T315 641Q251 641 208 606T153 512H74Q84 572 119 617T209 687Q260 712 327 712Q413 712 464 665T516 538Q516 461 480 408T379 327Q347
313 310 306T231 299L209 196H137ZM153 -5Q128 -5 112 11T95 52Q95 76 111 92T153 109Q178 109 194 93T210 52Q210 28 194 12T153 -5Z" />
<glyph unicode="@" horiz-adv-x="1034" d="M439 -212Q324 -212 239 -170T106 -49T59 133Q59 216 85 293T159 436T274 550T422 626T595 654Q704 654 789 614T923 501T972 324Q972 275 958 219T916 114T842 33T734 2Q691 2 663 22T626 80Q596 50 555 25T455 0Q400
0 361 22T301 82T280 172Q280 223 298 270T349 354T429 413T533 435Q578 435 612 419T666 370L676 425H756L707 147Q706 143 706 138T705 129Q705 104 719 89T761 73Q800 73 827 98T871 162T895 242T903 316Q903 402 864 464T753 559T585 593Q489 593 407 557T262
458T164 315T129 147Q129 56 170 -11T284 -114T450 -150Q500 -150 547 -141T638 -113L648 -173Q602 -192 546 -202T439 -212ZM480 72Q532 72 569 97T627 164T648 250Q648 301 618 332T531 364Q480 364 442 338T384 272T363 187Q363 134 395 103T480 72Z" />
<glyph unicode="A" horiz-adv-x="664" d="M-14 0L368 700H457L590 0H503L470 180H172L76 0H-14ZM207 246H458L394 600L207 246Z" />
<glyph unicode="B" horiz-adv-x="609" d="M31 0L155 700H396Q493 700 538 656T583 548Q583 508 565 473T516 413T445 377Q482 365 506 342T543 289T556 225Q556 160 525 109T435 29T295 0H31ZM128 70H282Q374 70 423 109T472 223Q472 279 435 309T327 339H175L128
70ZM187 406H338Q384 406 419 420T475 463T495 531Q495 573 469 601T374 630H226L187 406Z" />
<glyph unicode="C" horiz-adv-x="722" d="M339 -12Q261 -12 208 12T122 77T74 167T59 268Q59 360 88 440T172 582T301 677T463 712Q583 712 649 655T718 494H623Q621 561 578 599T451 638Q382 638 327 609T231 530T169 414T147 275Q147 174 201 118T351 62Q435
62 490 100T572 203H667Q628 101 543 45T339 -12Z" />
<glyph unicode="D" horiz-adv-x="701" d="M154 700H369Q475 700 542 667T643 571T676 417Q676 334 654 267T591 150T496 67T379 17T246 0H31L154 700ZM257 70Q345 70 408 97T511 173T570 282T589 411Q589 518 535 574T355 630H226L127 70H257Z" />
<glyph unicode="E" horiz-adv-x="542" d="M30 0L154 700H559L547 631H226L186 404H463L451 336H174L126 69H447L435 0H30Z" />
<glyph unicode="F" horiz-adv-x="530" d="M30 0L154 700H570L558 631H226L184 395H465L453 327H172L114 0H30Z" />
<glyph unicode="G" horiz-adv-x="761" d="M333 -12Q260 -12 209 13T125 81T77 175T61 279Q61 372 90 450T173 588T301 679T466 712Q585 712 656 655T733 498H636Q633 561 587 598T457 635Q374 635 316 603T220 519T166 406T149 284Q149 183 202 123T349 63Q461
63 529 128T626 308H374L385 374H724L658 0H581L594 115Q545 54 485 21T333 -12Z" />
<glyph unicode="H" horiz-adv-x="680" d="M31 0L155 700H239L187 405H550L602 700H686L562 0H478L538 336H175L115 0H31Z" />
<glyph unicode="I" horiz-adv-x="233" d="M31 0L154 700H238L115 0H31Z" />
<glyph unicode="J" horiz-adv-x="486" d="M178 -12Q102 -12 59 28T15 141Q15 152 16 163T19 186H104Q101 170 101 153Q101 114 122 89T191 63Q247 63 277 96T315 172L407 700H491L399 172Q384 88 324 38T178 -12Z" />
<glyph unicode="K" horiz-adv-x="589" d="M31 0L154 700H238L183 383L530 700H636L327 421L517 0H420L259 360L163 273L115 0H31Z" />
<glyph unicode="L" horiz-adv-x="526" d="M31 0L154 700H238L127 67H453L441 0H31Z" />
<glyph unicode="M" horiz-adv-x="848" d="M31 0L154 700H252L418 212L754 700H853L730 0H646L742 550L430 100H367L212 549L115 0H31Z" />
<glyph unicode="N" horiz-adv-x="690" d="M31 0L154 700H237L512 133L611 700H695L572 0H488L215 567L115 0H31Z" />
<glyph unicode="O" horiz-adv-x="790" d="M351 -12Q275 -12 220 14T129 85T76 181T59 286Q59 375 91 452T181 587T314 679T476 712Q552 712 607 687T697 618T750 522T768 415Q768 324 735 247T643 111T510 21T351 -12ZM363 62Q429 62 486 89T588 164T656 275T681
411Q681 478 655 529T580 608T464 637Q398 637 341 611T239 537T171 427T146 291Q146 224 172 173T247 92T363 62Z" />
<glyph unicode="P" horiz-adv-x="583" d="M31 0L154 700H384Q448 700 494 679T566 619T592 525Q592 448 555 396T454 318T313 292H167L115 0H31ZM179 363H323Q409 363 456 401T504 519Q504 567 473 598T370 630H226L179 363Z" />
<glyph unicode="Q" horiz-adv-x="795" d="M353 -12Q277 -12 222 14T131 85T78 181T61 286Q61 375 93 452T183 587T316 679T478 712Q554 712 609 687T699 618T752 522T770 415Q770 323 735 244T640 106L696 41L637 -11L578 56Q529 24 472 6T353 -12ZM148 291Q148
224 174 173T249 92T365 62Q411 62 453 75T531 113L443 215L503 267L590 164Q634 211 658 274T683 411Q683 478 657 529T582 608T466 637Q400 637 343 611T241 537T173 427T148 291Z" />
<glyph unicode="R" horiz-adv-x="593" d="M30 0L154 700H361Q426 700 471 681T540 625T564 537Q564 477 542 434T477 364T371 326L514 0H410L285 310H169L114 0H30ZM181 381H302Q389 381 433 415T478 529Q478 559 465 582T423 617T346 630H225L181 381Z" />
<glyph unicode="S" horiz-adv-x="591" d="M269 -12Q199 -12 147 11T67 75T39 170Q39 179 40 189T43 210H131Q130 203 129 197T128 183Q128 129 168 94T278 59Q358 59 400 98T442 201Q442 234 426 255T382 291T320 317T249 342Q183 366 151 407T118 502Q118 565
149 612T236 686T366 712Q458 712 512 666T566 549Q566 542 566 534T563 518H476Q477 523 477 527T477 537Q477 576 447 608T354 640Q288 640 248 605T207 515Q207 477 232 455Q258 431 298 417T387 384Q448 361 490 320T532 211Q532 144 499 94T407 16T269 -12Z"
/>
<glyph unicode="T" horiz-adv-x="559" d="M194 0L305 633H97L109 700H610L598 633H389L278 0H194Z" />
<glyph unicode="U" horiz-adv-x="667" d="M281 -12Q176 -12 120 42T63 190Q63 222 69 258L148 700H232L153 258Q150 243 149 230T147 203Q147 130 187 97T295 64Q373 64 429 110T504 258L583 700H667L589 258Q575 179 542 127T465 44T373 1T281 -12Z" />
<glyph unicode="V" horiz-adv-x="669" d="M102 700H193L306 92L636 700H727L339 0H241L102 700Z" />
<glyph unicode="W" horiz-adv-x="968" d="M225 0L99 700H185L287 79L448 383L393 700H479L515 452L639 700H725L558 383L611 79L933 700H1019L645 0H549L492 319L321 0H225Z" />
<glyph unicode="X" horiz-adv-x="596" d="M-20 0L268 376L131 700H225L330 451L515 700H610L362 377L520 0H426L299 300L76 0H-20Z" />
<glyph unicode="Y" horiz-adv-x="579" d="M198 0L245 266L93 700H189L301 346L539 700H633L329 266L282 0H198Z" />
<glyph unicode="Z" horiz-adv-x="535" d="M-6 0L6 66L449 627H109L123 700H560L549 634L104 73H454L441 0H-6Z" />
<glyph unicode="[" horiz-adv-x="308" d="M4 -151L174 811H348L335 742H240L95 -81H190L178 -151H4Z" />
<glyph unicode="\" horiz-adv-x="391" d="M219 -95L119 764H202L301 -95H219Z" />
<glyph unicode="]" horiz-adv-x="308" d="M-11 -151L2 -82H97L242 741H147L159 811H333L163 -151H-11Z" />
<glyph unicode="^" horiz-adv-x="620" d="M17 178L344 700H422L564 178H478L366 597L103 178H17Z" />
<glyph unicode="_" horiz-adv-x="641" d="M-5 -115L8 -36H532L519 -115H-5Z" />
<glyph unicode="`" horiz-adv-x="0" d="M415 557L226 674L239 747L426 620L415 557Z" />
<glyph unicode="a" horiz-adv-x="563" d="M186 -12Q141 -12 105 3T48 47T26 121Q26 182 60 221T151 280T273 299H406Q408 312 409 321T410 339Q410 387 382 412T306 437Q260 437 219 414T160 341H73Q90 397 127 434T213 489T317 508Q370 508 410 491T472 440T495
352Q495 338 494 329T491 305L464 153Q462 142 461 133T460 116Q460 97 469 86T505 74L492 0Q439 0 410 23T377 95Q361 69 335 44T272 4T186 -12ZM211 59Q261 59 299 85T362 151T394 234H268Q229 234 195 224T138 192T116 131Q116 93 143 76T211 59Z" />
<glyph unicode="b" horiz-adv-x="619" d="M290 -12Q231 -12 186 17T124 84L101 0H25L148 700H232L183 419Q213 454 258 481T372 508Q419 508 457 493T521 448T562 381T576 295Q576 229 555 173T495 76T404 11T290 -12ZM294 61Q352 61 395 89T464 168T489 283Q489
349 452 392T350 435Q293 435 248 405T178 324T152 209Q152 142 190 102T294 61Z" />
<glyph unicode="c" horiz-adv-x="569" d="M250 -12Q180 -12 134 18T66 97T43 199Q43 265 65 321T129 419T224 484T341 508Q431 508 484 461T538 334H452Q452 385 416 410T329 436Q279 436 242 416T180 361T143 287T130 208Q130 137 169 98T263 59Q314 59 358 85T422
162H508Q486 102 445 64T352 7T250 -12Z" />
<glyph unicode="d" horiz-adv-x="620" d="M247 -12Q193 -12 155 7T92 59T56 130T44 207Q44 282 68 338T134 432T225 489T326 508Q392 508 434 482T496 413L546 700H630L507 0H430L437 82Q408 46 362 17T247 -12ZM271 61Q321 61 358 82T419 137T456 212T468 291Q468
356 431 395T329 435Q279 435 242 416T180 364T143 293T131 215Q131 149 168 105T271 61Z" />
<glyph unicode="e" horiz-adv-x="568" d="M246 -12Q154 -12 99 45T43 198Q43 273 68 331T136 428T231 488T337 508Q410 508 453 480T516 408T536 319Q536 299 532 274T523 229H127Q126 221 126 214T125 199Q125 128 165 94T259 59Q311 59 350 83T412 148H495Q475
102 439 66T354 9T246 -12ZM140 294H452Q453 300 453 305T454 316Q454 373 419 405T326 437Q266 437 213 401T140 294Z" />
<glyph unicode="f" horiz-adv-x="334" d="M52 0L127 425H53L65 496H139L151 562Q164 634 206 667T318 700H367L354 628H318Q280 628 261 613T235 560L223 496H346L333 425H211L136 0H52Z" />
<glyph unicode="g" horiz-adv-x="535" d="M185 -232Q131 -232 83 -216T6 -168T-24 -88Q-24 -47 0 -13T67 37Q46 48 36 68T25 109Q25 147 48 177T103 224Q87 246 80 272T76 332Q81 387 109 426T184 487T288 508Q330 508 366 496H550L538 425H452Q463 405 467 382T470
332Q465 275 435 236T359 177T257 156Q229 156 205 162T160 179Q140 176 127 164T113 133Q113 89 186 89H274Q348 89 395 57T442 -41Q442 -101 410 -143T321 -209T185 -232ZM195 -162Q239 -162 276 -152T335 -118T357 -58Q357 -25 334 -5T266 15H181Q130 15 95
-8T60 -79Q60 -121 100 -141T195 -162ZM261 226Q313 226 349 256T389 332Q393 378 363 408T280 438Q228 438 194 408T156 332Q152 286 179 256T261 226Z" />
<glyph unicode="h" horiz-adv-x="573" d="M26 0L149 700H233L182 411Q214 456 263 482T368 508Q442 508 485 470T528 352Q528 323 522 290L471 0H387L436 281Q438 295 439 307T441 331Q441 384 415 410T336 436Q272 436 221 390T155 257L110 0H26Z" />
<glyph unicode="i" horiz-adv-x="241" d="M35 0L122 496H206L119 0H35ZM194 606Q169 606 153 622T136 663Q136 688 152 704T194 720Q218 720 235 704T252 663Q252 638 235 622T194 606Z" />
<glyph unicode="j" horiz-adv-x="242" d="M-116 -220L-103 -148H-65Q-28 -148 -9 -133T17 -80L119 496H203L101 -82Q89 -154 47 -187T-65 -220H-116ZM192 606Q167 606 151 622T134 663Q134 688 150 704T192 720Q216 720 232 704T249 663Q249 638 233 622T192 606Z" />
<glyph unicode="k" horiz-adv-x="512" d="M25 0L149 700H233L160 287L400 496H511L244 273L453 0H351L155 261L109 0H25Z" />
<glyph unicode="l" horiz-adv-x="223" d="M25 0L149 700H233L109 0H25Z" />
<glyph unicode="m" horiz-adv-x="885" d="M26 0L113 496H188L181 415Q210 458 253 483T346 508Q401 508 441 483T496 407Q528 454 577 481T679 508Q743 508 777 483T826 422T840 351Q840 323 834 290L783 0H699L748 281Q750 295 751 307T753 331Q753 384 728 410T659
436Q622 436 588 416T529 360T495 275L446 0H363L412 281Q414 294 415 306T416 328Q416 382 392 409T322 436Q286 436 251 415T191 355T155 257L110 0H26Z" />
<glyph unicode="n" horiz-adv-x="573" d="M26 0L113 496H189L179 406Q211 454 261 481T368 508Q442 508 485 467T528 348Q528 334 527 320T522 290L471 0H387L436 281Q438 294 439 306T441 329Q441 436 336 436Q293 436 256 415T192 356T157 266L110 0H26Z" />
<glyph unicode="o" horiz-adv-x="593" d="M255 -12Q193 -12 145 16T70 92T43 204Q43 270 66 325T129 422T222 485T337 508Q384 508 423 493T490 449T533 382T549 295Q549 231 527 175T465 77T372 12T255 -12ZM266 60Q323 60 367 90T437 172T463 289Q463 359 423
397T326 436Q271 436 227 406T157 325T131 207Q131 140 168 100T266 60Z" />
<glyph unicode="p" horiz-adv-x="620" d="M-14 -220L113 496H191L183 414Q214 453 259 480T372 508Q419 508 456 493T521 449T562 382T577 295Q577 229 556 173T496 76T405 11T290 -12Q233 -12 189 14T125 84L70 -220H-14ZM295 61Q353 61 396 89T465 168T490 283Q490
349 453 392T351 435Q294 435 249 405T178 324T152 209Q152 142 191 102T295 61Z" />
<glyph unicode="q" horiz-adv-x="621" d="M385 -220L437 82Q408 46 362 17T247 -12Q193 -12 155 7T92 59T56 130T44 207Q44 282 68 338T134 432T225 489T326 508Q392 508 434 482T496 413L519 496H595L469 -220H385ZM271 61Q321 61 358 82T419 137T456 212T468
291Q468 356 431 395T329 435Q279 435 242 416T180 364T143 293T131 215Q131 149 168 105T271 61Z" />
<glyph unicode="r" horiz-adv-x="369" d="M26 0L113 496H190L181 408Q213 454 265 481T385 508L370 420H347Q287 420 248 401T187 347T157 267L110 0H26Z" />
<glyph unicode="s" horiz-adv-x="504" d="M220 -12Q158 -12 114 9T48 70T30 164H115Q113 122 140 91T232 59Q285 59 317 82T349 148Q349 181 320 196T241 221Q222 225 204 231T169 244Q134 258 111 284T87 350Q87 395 113 431T185 487T288 508Q367 508 414 469T458
356H374Q376 393 351 415T279 437Q233 437 204 416T174 363Q174 333 202 318T279 292Q314 285 350 271T412 231T437 159Q437 109 410 70T335 10T220 -12Z" />
<glyph unicode="t" horiz-adv-x="370" d="M205 0Q143 0 109 24T75 108Q75 118 76 129T79 154L127 425H50L63 496H140L161 615H246L224 496H371L358 425H212L163 154Q162 146 162 139T161 126Q161 95 177 84T231 72H296L283 0H205Z" />
<glyph unicode="u" horiz-adv-x="573" d="M205 -12Q131 -12 88 29T45 148Q45 176 51 206L102 496H186L137 215Q135 202 134 190T132 167Q132 60 237 60Q300 60 351 104T416 230L463 496H547L460 0H384L394 90Q362 42 312 15T205 -12Z" />
<glyph unicode="v" horiz-adv-x="530" d="M171 0L63 496H150L235 80L465 496H554L270 0H171Z" />
<glyph unicode="w" horiz-adv-x="745" d="M122 0L63 496H148L184 107L369 496H464L511 107L685 496H769L537 0H451L401 409L207 0H122Z" />
<glyph unicode="x" horiz-adv-x="499" d="M-24 0L194 251L67 496H154L258 291L433 496H523L306 245L432 0H346L242 205L67 0H-24Z" />
<glyph unicode="y" horiz-adv-x="555" d="M41 -220L192 19L63 496H152L251 110L492 496H580L129 -220H41Z" />
<glyph unicode="z" horiz-adv-x="464" d="M-4 0L9 69L357 426H87L100 496H466L453 427L104 70H384L371 0H-4Z" />
<glyph unicode="{" horiz-adv-x="424" d="M249 -152Q190 -152 155 -124T120 -39Q120 -5 129 25T150 84T172 143T181 207Q181 236 163 261T95 296L107 364Q159 375 186 397T223 450T234 517T235 593Q235 648 251 697T308 779T419 811H472L460 739H422Q383 739 362
725T331 686T319 630T317 564Q317 531 314 500T303 442T278 393T237 355T175 331V329Q222 317 242 289T263 220Q263 191 254 159T234 95T214 34T205 -19Q205 -51 223 -65T277 -80H315L302 -152H249Z" />
<glyph unicode="|" horiz-adv-x="233" d="M13 -100L158 720H242L97 -100H13Z" />
<glyph unicode="}" horiz-adv-x="425" d="M-18 -152L-5 -80H33Q68 -80 88 -62T119 -15T133 49T137 118Q137 152 142 181T158 235T185 277T225 309T280 329V331Q232 342 211 370T190 439Q190 476 199 508T219 568T240 624T249 678Q249 714 228 726T177 739H139L151
811H204Q264 811 298 783T333 698Q333 662 324 631T303 571T281 513T272 452Q272 422 291 398T359 363L347 295Q285 283 258 250T224 168T217 62Q217 -43 168 -97T35 -152H-18Z" />
<glyph unicode="~" horiz-adv-x="600" d="M382 249Q354 249 335 259T299 282T266 305T225 315Q199 315 178 297T146 250H83Q109 322 150 356T244 391Q271 391 291 381T327 358T360 335T401 325Q427 325 448 343T480 391H543Q518 319 476 284T382 249Z" />
<glyph unicode="&#xa0;" horiz-adv-x="286" />
<glyph unicode="&#xa1;" horiz-adv-x="250" d="M19 -143L119 363H190L110 -143H19ZM170 448Q146 448 130 464T113 505Q113 529 129 545T170 562Q195 562 211 546T228 505Q228 481 212 465T170 448Z" />
<glyph unicode="&#xa2;" horiz-adv-x="569" d="M193 -101L209 -9Q134 4 89 59T43 199Q43 280 77 346T169 454Q198 474 230 487T300 505L316 600H398L381 505Q454 495 495 450T538 334H452Q452 385 416 410T329 436Q274 436 229 407T157 326Q144 300 137 271T130
208Q130 137 169 98T263 59Q314 59 358 85T422 162H508Q483 94 425 48T290 -9L274 -101H193Z" />
<glyph unicode="&#xa3;" horiz-adv-x="594" d="M41 0L50 49Q104 100 135 153T166 277Q166 285 166 293T164 310H49L60 369H154Q150 390 147 411T144 456Q144 523 165 571T223 651T303 697T393 712Q457 712 498 689T561 627T582 539Q582 531 582 523T580 507H503Q504
513 504 518T504 531Q504 580 475 611T387 642Q335 642 298 619T242 555T222 462Q222 438 225 415T234 369H427L417 310H244Q245 302 245 295T245 280Q245 216 215 164T137 69H502L490 0H41Z" />
<glyph unicode="&#xa4;" horiz-adv-x="532" d="M75 92L44 130L117 192Q97 229 97 272Q97 314 111 349T151 410L104 466L148 504L197 445Q246 473 306 473Q334 473 358 465T401 441L474 504L506 466L433 405Q453 370 453 327Q453 286 439 251T399 188L446 130L402
92L354 151Q303 121 244 121Q215 121 191 130T148 154L75 92ZM255 186Q289 186 315 204T357 253T373 321Q373 365 349 387T294 409Q245 409 211 371T177 273Q177 230 200 208T255 186Z" />
<glyph unicode="&#xa5;" horiz-adv-x="598" d="M213 0L243 167H43L54 228H254L261 266L243 318H70L80 379H221L109 700H204L316 344L554 700H649L424 379H564L554 318H381L345 266L338 228H538L527 167H327L297 0H213Z" />
<glyph unicode="&#xa6;" horiz-adv-x="233" d="M99 387L158 720H242L183 387H99ZM13 -100L72 233H156L97 -100H13Z" />
<glyph unicode="&#xa7;" horiz-adv-x="596" d="M211 -232Q150 -232 108 -212T43 -155T20 -71Q20 -63 21 -55T23 -38H111Q110 -42 110 -47T109 -57Q109 -86 122 -109T163 -146T229 -160Q270 -160 303 -143T357 -96T378 -25Q378 12 346 35Q333 45 307 56T251 77T198
95Q164 107 131 126T77 175T55 252Q55 273 61 302T84 365T138 428Q124 454 124 488Q124 530 141 569T192 641T273 693T382 712Q443 712 485 692T550 635T573 551Q573 543 573 535T570 518H482Q483 523 483 528T484 537Q484 567 471 590T431 626T364 640Q324 640
290 623T236 576T215 505Q215 470 243 448Q256 438 283 427T341 404T395 385Q430 373 462 354T516 305T538 227Q538 202 531 171T506 110T454 52Q468 24 468 -8Q468 -71 435 -122T343 -202T211 -232ZM403 104Q426 123 437 149T448 206Q448 237 434 257T394 290T334
316T261 342Q239 350 222 358T190 376Q168 357 157 332T145 274Q145 243 159 224T199 190T259 165T332 138Q354 131 371 122T403 104Z" />
<glyph unicode="&#xa8;" horiz-adv-x="0" d="M162 606Q137 606 121 622T104 664Q104 688 120 704T162 720Q186 720 203 704T220 664Q220 639 203 623T162 606ZM-15 606Q-40 606 -56 622T-73 664Q-73 688 -57 704T-15 720Q9 720 26 704T43 664Q43 639 26 623T-15 606Z" />
<glyph unicode="&#xa9;" horiz-adv-x="794" d="M347 -4Q269 -4 214 21T124 89T72 183T55 287Q55 375 86 450T175 583T307 672T471 704Q547 704 602 680T692 614T745 521T762 415Q762 327 731 251T643 118T511 28T347 -4ZM353 32Q436 32 504 61T621 143T696 265T722
412Q722 501 687 557T593 641T465 669Q384 669 316 640T199 559T122 439T95 290Q95 201 131 144T227 60T353 32ZM367 119Q290 119 239 166T187 300Q187 357 206 408T261 499T345 560T450 583Q524 583 573 544T627 430H551Q545 475 515 498T439 522Q393 522 360
502T305 448T273 378T262 306Q262 243 294 211T378 179Q425 179 463 202T523 270H599Q568 200 505 160T367 119Z" />
<glyph unicode="&#xaa;" horiz-adv-x="438" d="M198 346Q151 346 119 369T86 439Q86 482 110 509T173 550T259 564H352Q354 573 354 579T354 592Q354 626 335 643T282 660Q250 660 221 644T179 593H119Q131 632 156 658T217 697T289 710Q345 710 379 684T414 601Q414
591 414 585T411 568L392 462Q391 454 390 448T389 436Q389 423 395 415T421 406L412 355Q375 355 355 371T331 421Q315 393 282 370T198 346ZM215 396Q250 396 277 414T321 460T343 518H255Q214 518 182 502T149 446Q149 420 168 408T215 396Z" />
<glyph unicode="&#xab;" horiz-adv-x="453" d="M48 295L176 470H259L128 295L198 120H114L48 295ZM226 295L354 470H437L306 295L375 120H292L226 295Z" />
<glyph unicode="&#xac;" horiz-adv-x="600" d="M457 223L482 365H66L78 432H577L540 223H457Z" />
<glyph unicode="&#xae;" horiz-adv-x="372" d="M243 425Q204 425 171 444T119 496T99 568Q99 608 118 640T171 692T243 712Q283 712 315 693T366 641T386 568Q386 529 367 497T315 445T243 425ZM176 496Q177 498 183 509T197 533T211 557T217 568Q188 578 188
607Q188 622 198 636T236 651H290V496H262V561H244Q244 561 239 552T227 530T215 507T209 496H176ZM243 448Q276 448 303 464T347 508T363 568Q363 601 347 628T304 672T243 688Q210 688 183 672T140 629T123 568Q123 535 139 508T183 465T243 448ZM243 585H262V628H240Q215
628 215 607Q215 596 223 591T243 585Z" />
<glyph unicode="&#xaf;" horiz-adv-x="0" d="M-106 632L-94 695H253L241 632H-106Z" />
<glyph unicode="&#xb0;" horiz-adv-x="348" d="M231 444Q196 444 166 460T118 507T100 577Q100 617 117 647T165 695T232 712Q286 712 325 676T364 577Q364 538 346 508T298 461T231 444ZM231 506Q256 506 277 524T298 578Q298 614 278 632T232 650Q208 650 187
632T165 578Q165 542 186 524T231 506Z" />
<glyph unicode="&#xb1;" horiz-adv-x="600" d="M241 125L266 266H66L79 337H278L303 478H379L354 337H554L541 266H341L316 125H241ZM19 0L33 73H507L494 0H19Z" />
<glyph unicode="&#xb2;" horiz-adv-x="311" d="M51 347L59 394L173 492Q208 522 238 551T268 609Q268 626 257 638T223 651Q195 651 179 633T157 589H94Q106 645 144 675T234 705Q285 705 308 679T332 617Q332 586 316 561T276 514T226 470L146 402H303L293 347H51Z" />
<glyph unicode="&#xb3;" horiz-adv-x="320" d="M177 342Q127 342 98 365T69 434Q69 440 69 445T71 457H134Q133 453 133 450T133 444Q133 423 147 410T187 397Q223 397 242 419T262 472Q262 495 248 506T208 517Q198 517 189 515T169 507L141 549L266 645H115L125
700H355L345 647L242 566Q285 562 305 538T325 481Q325 449 309 417T260 364T177 342Z" />
<glyph unicode="&#xb4;" horiz-adv-x="0" d="M206 551L217 620L450 747L437 668L206 551Z" />
<glyph unicode="&#xb5;" horiz-adv-x="584" d="M-14 -220L113 496H197L148 215Q146 202 145 190T143 167Q143 60 248 60Q310 60 360 104T427 230L474 496H558L471 0H395L405 89Q373 42 323 15T216 -12Q151 -12 113 23L70 -220H-14Z" />
<glyph unicode="&#xb6;" horiz-adv-x="590" d="M225 -100L295 295H285Q224 295 185 313T122 359T90 418T80 476Q80 542 105 585T171 653T260 689T356 700H596L455 -100H381L511 634H428L299 -100H225Z" />
<glyph unicode="&#xb7;" horiz-adv-x="196" d="M115 285Q90 285 74 301T57 342Q57 367 73 383T115 399Q140 399 156 383T172 342Q172 318 156 302T115 285Z" />
<glyph unicode="&#xb8;" horiz-adv-x="0" d="M53 -259L62 -206H154Q191 -206 211 -192T231 -149Q231 -113 170 -113H121L144 17H200L186 -63Q237 -62 268 -81T300 -140Q300 -177 281 -203T231 -244T161 -259H53Z" />
<glyph unicode="&#xb9;" horiz-adv-x="316" d="M59 347L69 402H164L204 628L108 607L117 656L244 700H278L225 402H308L298 347H59Z" />
<glyph unicode="&#xba;" horiz-adv-x="410" d="M226 348Q183 348 150 367T97 421T78 499Q78 560 105 608T179 684T283 712Q316 712 343 702T390 671T421 624T432 563Q432 502 405 454T332 377T226 348ZM234 398Q274 398 305 419T354 476T372 559Q372 608 344 635T276
662Q237 662 206 641T157 584T139 501Q139 455 165 427T234 398Z" />
<glyph unicode="&#xbb;" horiz-adv-x="452" d="M162 295L93 470H176L242 295L114 120H31L162 295ZM340 295L271 470H354L420 295L292 120H209L340 295Z" />
<glyph unicode="&#xbc;" horiz-adv-x="759" d="M54 0L697 700H768L124 0H54ZM57 347L67 402H162L202 628L106 607L115 657L242 700H276L223 402H306L296 347H57ZM570 0L582 66H420L429 117L590 353H654L499 122H596L612 213H672L656 122H697L687 66H646L634 0H570Z" />
<glyph unicode="&#xbd;" horiz-adv-x="765" d="M54 0L697 700H768L124 0H54ZM57 347L67 402H162L202 628L106 607L115 657L242 700H276L223 402H306L296 347H57ZM434 0L442 47L556 145Q591 175 621 204T651 262Q651 279 640 291T606 304Q578 304 562 286T540 242H477Q489
298 527 328T617 358Q668 358 691 332T715 270Q715 239 699 214T659 167T609 123L529 55H686L676 0H434Z" />
<glyph unicode="&#xbe;" horiz-adv-x="758" d="M53 0L696 700H767L123 0H53ZM569 0L581 66H419L428 117L589 353H653L498 122H595L611 213H671L655 122H696L686 66H645L633 0H569ZM183 342Q133 342 104 365T75 434Q75 440 75 445T77 457H140Q139 453 139 450T139
444Q139 423 153 410T193 397Q229 397 248 419T268 472Q268 495 254 506T214 517Q204 517 195 515T175 507L147 549L272 645H121L131 700H361L351 647L248 566Q291 562 311 538T331 481Q331 449 315 417T266 364T183 342Z" />
<glyph unicode="&#xbf;" horiz-adv-x="516" d="M198 -164Q112 -164 61 -117T9 10Q9 79 34 125T102 198T194 237T294 249L316 352H388L363 191H334Q209 191 150 148T91 18Q91 -32 123 -62T210 -93Q274 -93 317 -58T372 36H451Q443 -15 418 -52T358 -114T281 -151T198
-164ZM372 439Q347 439 331 455T315 496Q315 520 331 536T372 553Q397 553 413 537T430 496Q430 472 414 456T372 439Z" />
<glyph unicode="&#xc0;" horiz-adv-x="664" d="M-14 0L368 700H457L590 0H503L470 180H172L76 0H-14ZM207 246H458L394 600L207 246ZM524 741L335 858L348 931L535 804L524 741Z" />
<glyph unicode="&#xc1;" horiz-adv-x="664" d="M-14 0L368 700H457L590 0H503L470 180H172L76 0H-14ZM207 246H458L394 600L207 246ZM314 741L325 804L558 931L545 858L314 741Z" />
<glyph unicode="&#xc2;" horiz-adv-x="664" d="M-14 0L368 700H457L590 0H503L470 180H172L76 0H-14ZM207 246H458L394 600L207 246ZM285 755L297 821L448 902L571 821L559 755L437 839L285 755Z" />
<glyph unicode="&#xc3;" horiz-adv-x="664" d="M-14 0L368 700H457L590 0H503L470 180H172L76 0H-14ZM207 246H458L394 600L207 246ZM477 756Q456 756 444 763T421 779T399 796T370 803Q335 803 320 758H271Q287 809 316 834T384 859Q411 859 426 848T454 824T491
812Q507 812 521 823T542 857H591Q576 808 546 782T477 756Z" />
<glyph unicode="&#xc4;" horiz-adv-x="664" d="M-14 0L368 700H457L590 0H503L470 180H172L76 0H-14ZM207 246H458L394 600L207 246ZM523 775Q498 775 482 791T465 833Q465 857 481 873T523 889Q547 889 564 873T581 833Q581 808 564 792T523 775ZM346 775Q321
775 305 791T288 833Q288 857 304 873T346 889Q370 889 387 873T404 833Q404 808 387 792T346 775Z" />
<glyph unicode="&#xc5;" horiz-adv-x="664" d="M-14 0L368 700H457L590 0H503L470 180H172L76 0H-14ZM207 246H458L394 600L207 246ZM441 761Q398 761 367 788T336 864Q336 912 367 939T441 967Q485 967 515 940T546 864Q546 816 516 789T441 761ZM441 804Q465
804 481 820T498 864Q498 891 482 907T441 923Q417 923 401 907T384 864Q384 837 400 821T441 804Z" />
<glyph unicode="&#xc6;" horiz-adv-x="917" d="M-14 0L509 700H934L922 633H633L589 386H848L837 320H578L534 67H822L810 0H437L465 159H197L78 0H-14ZM246 226H477L549 631L246 226Z" />
<glyph unicode="&#xc7;" horiz-adv-x="722" d="M339 -12Q261 -12 208 12T122 77T74 167T59 268Q59 360 88 440T172 582T301 677T463 712Q583 712 649 655T718 494H623Q621 561 578 599T451 638Q382 638 327 609T231 530T169 414T147 275Q147 174 201 118T351 62Q435
62 490 100T572 203H667Q628 101 543 45T339 -12ZM202 -259L211 -206H303Q340 -206 360 -192T380 -149Q380 -113 319 -113H270L293 17H349L335 -63Q386 -62 417 -81T449 -140Q449 -177 430 -203T380 -244T310 -259H202Z" />
<glyph unicode="&#xc8;" horiz-adv-x="542" d="M30 0L154 700H559L547 631H226L186 404H463L451 336H174L126 69H447L435 0H30ZM463 741L274 858L287 931L474 804L463 741Z" />
<glyph unicode="&#xc9;" horiz-adv-x="542" d="M30 0L154 700H559L547 631H226L186 404H463L451 336H174L126 69H447L435 0H30ZM253 741L264 804L497 931L484 858L253 741Z" />
<glyph unicode="&#xca;" horiz-adv-x="542" d="M30 0L154 700H559L547 631H226L186 404H463L451 336H174L126 69H447L435 0H30ZM224 755L236 821L387 902L510 821L498 755L376 839L224 755Z" />
<glyph unicode="&#xcb;" horiz-adv-x="542" d="M30 0L154 700H559L547 631H226L186 404H463L451 336H174L126 69H447L435 0H30ZM462 775Q437 775 421 791T404 833Q404 857 420 873T462 889Q486 889 503 873T520 833Q520 808 503 792T462 775ZM285 775Q260 775
244 791T227 833Q227 857 243 873T285 889Q309 889 326 873T343 833Q343 808 326 792T285 775Z" />
<glyph unicode="&#xcc;" horiz-adv-x="233" d="M31 0L154 700H238L115 0H31ZM309 741L120 858L133 931L320 804L309 741Z" />
<glyph unicode="&#xcd;" horiz-adv-x="233" d="M31 0L154 700H238L115 0H31ZM99 741L110 804L343 931L330 858L99 741Z" />
<glyph unicode="&#xce;" horiz-adv-x="233" d="M31 0L154 700H238L115 0H31ZM326 755L338 821L489 902L612 821L600 755L478 839L326 755Z" />
<glyph unicode="&#xcf;" horiz-adv-x="233" d="M31 0L154 700H238L115 0H31ZM564 775Q539 775 523 791T506 833Q506 857 522 873T564 889Q588 889 605 873T622 833Q622 808 605 792T564 775ZM387 775Q362 775 346 791T329 833Q329 857 345 873T387 889Q411 889
428 873T445 833Q445 808 428 792T387 775Z" />
<glyph unicode="&#xd0;" horiz-adv-x="716" d="M101 311H14L27 387H114L169 700H384Q490 700 557 667T658 571T691 417Q691 294 638 200T489 53Q391 0 261 0H46L101 311ZM272 70Q377 70 451 112T565 231Q604 308 604 411Q604 518 550 574T370 630H241L198 387H399L386
311H185L143 70H272Z" />
<glyph unicode="&#xd1;" horiz-adv-x="690" d="M31 0L154 700H237L512 133L611 700H695L572 0H488L215 567L115 0H31ZM490 756Q469 756 457 763T434 779T412 796T383 803Q348 803 333 758H284Q300 809 329 834T397 859Q424 859 439 848T467 824T504 812Q520 812
534 823T555 857H604Q589 808 559 782T490 756Z" />
<glyph unicode="&#xd2;" horiz-adv-x="790" d="M351 -12Q275 -12 220 14T129 85T76 181T59 286Q59 375 91 452T181 587T314 679T476 712Q552 712 607 687T697 618T750 522T768 415Q768 324 735 247T643 111T510 21T351 -12ZM363 62Q429 62 486 89T588 164T656
275T681 411Q681 478 655 529T580 608T464 637Q398 637 341 611T239 537T171 427T146 291Q146 224 172 173T247 92T363 62ZM588 741L399 858L412 931L599 804L588 741Z" />
<glyph unicode="&#xd3;" horiz-adv-x="790" d="M351 -12Q275 -12 220 14T129 85T76 181T59 286Q59 375 91 452T181 587T314 679T476 712Q552 712 607 687T697 618T750 522T768 415Q768 324 735 247T643 111T510 21T351 -12ZM363 62Q429 62 486 89T588 164T656
275T681 411Q681 478 655 529T580 608T464 637Q398 637 341 611T239 537T171 427T146 291Q146 224 172 173T247 92T363 62ZM378 741L389 804L622 931L609 858L378 741Z" />
<glyph unicode="&#xd4;" horiz-adv-x="790" d="M351 -12Q275 -12 220 14T129 85T76 181T59 286Q59 375 91 452T181 587T314 679T476 712Q552 712 607 687T697 618T750 522T768 415Q768 324 735 247T643 111T510 21T351 -12ZM363 62Q429 62 486 89T588 164T656
275T681 411Q681 478 655 529T580 608T464 637Q398 637 341 611T239 537T171 427T146 291Q146 224 172 173T247 92T363 62ZM349 755L361 821L512 902L635 821L623 755L501 839L349 755Z" />
<glyph unicode="&#xd5;" horiz-adv-x="790" d="M351 -12Q275 -12 220 14T129 85T76 181T59 286Q59 375 91 452T181 587T314 679T476 712Q552 712 607 687T697 618T750 522T768 415Q768 324 735 247T643 111T510 21T351 -12ZM363 62Q429 62 486 89T588 164T656
275T681 411Q681 478 655 529T580 608T464 637Q398 637 341 611T239 537T171 427T146 291Q146 224 172 173T247 92T363 62ZM541 756Q520 756 508 763T485 779T463 796T434 803Q399 803 384 758H335Q351 809 380 834T448 859Q475 859 490 848T518 824T555 812Q571
812 585 823T606 857H655Q640 808 610 782T541 756Z" />
<glyph unicode="&#xd6;" horiz-adv-x="790" d="M351 -12Q275 -12 220 14T129 85T76 181T59 286Q59 375 91 452T181 587T314 679T476 712Q552 712 607 687T697 618T750 522T768 415Q768 324 735 247T643 111T510 21T351 -12ZM363 62Q429 62 486 89T588 164T656
275T681 411Q681 478 655 529T580 608T464 637Q398 637 341 611T239 537T171 427T146 291Q146 224 172 173T247 92T363 62ZM587 775Q562 775 546 791T529 833Q529 857 545 873T587 889Q611 889 628 873T645 833Q645 808 628 792T587 775ZM410 775Q385 775 369 791T352
833Q352 857 368 873T410 889Q434 889 451 873T468 833Q468 808 451 792T410 775Z" />
<glyph unicode="&#xd7;" horiz-adv-x="600" d="M141 106L99 156L257 291L151 420L209 468L316 339L475 476L516 426L356 289L463 160L405 112L299 241L141 106Z" />
<glyph unicode="&#xd8;" horiz-adv-x="787" d="M349 -12Q289 -12 239 7T150 61L85 0H-5L109 108Q84 144 71 189T57 286Q57 373 89 450T179 586T312 678T475 712Q535 712 585 693T674 640L738 700H827L715 594Q740 558 753 513T767 415Q767 327 735 250T645 114T512
22T349 -12ZM361 62Q426 62 483 88T585 163T655 274T680 411Q680 446 673 477T651 534L211 118Q270 62 361 62ZM173 168L613 582Q584 610 547 623T463 637Q394 637 336 609T235 533T168 423T144 291Q144 256 151 225T173 168Z" />
<glyph unicode="&#xd9;" horiz-adv-x="667" d="M281 -12Q176 -12 120 42T63 190Q63 222 69 258L148 700H232L153 258Q150 243 149 230T147 203Q147 130 187 97T295 64Q373 64 429 110T504 258L583 700H667L589 258Q575 179 542 127T465 44T373 1T281 -12ZM526
741L337 858L350 931L537 804L526 741Z" />
<glyph unicode="&#xda;" horiz-adv-x="667" d="M281 -12Q176 -12 120 42T63 190Q63 222 69 258L148 700H232L153 258Q150 243 149 230T147 203Q147 130 187 97T295 64Q373 64 429 110T504 258L583 700H667L589 258Q575 179 542 127T465 44T373 1T281 -12ZM316
741L327 804L560 931L547 858L316 741Z" />
<glyph unicode="&#xdb;" horiz-adv-x="667" d="M281 -12Q176 -12 120 42T63 190Q63 222 69 258L148 700H232L153 258Q150 243 149 230T147 203Q147 130 187 97T295 64Q373 64 429 110T504 258L583 700H667L589 258Q575 179 542 127T465 44T373 1T281 -12ZM287
755L299 821L450 902L573 821L561 755L439 839L287 755Z" />
<glyph unicode="&#xdc;" horiz-adv-x="667" d="M281 -12Q176 -12 120 42T63 190Q63 222 69 258L148 700H232L153 258Q150 243 149 230T147 203Q147 130 187 97T295 64Q373 64 429 110T504 258L583 700H667L589 258Q575 179 542 127T465 44T373 1T281 -12ZM525
775Q500 775 484 791T467 833Q467 857 483 873T525 889Q549 889 566 873T583 833Q583 808 566 792T525 775ZM348 775Q323 775 307 791T290 833Q290 857 306 873T348 889Q372 889 389 873T406 833Q406 808 389 792T348 775Z" />
<glyph unicode="&#xdd;" horiz-adv-x="579" d="M198 0L245 266L93 700H189L301 346L539 700H633L329 266L282 0H198ZM272 741L283 804L516 931L503 858L272 741Z" />
<glyph unicode="&#xde;" horiz-adv-x="582" d="M31 0L154 700H238L213 554H359Q431 554 476 532T544 471T566 383Q566 307 529 255T429 175T287 147H141L115 0H31ZM153 217H298Q384 217 431 261T479 382Q479 432 448 458T345 484H201L153 217Z" />
<glyph unicode="&#xdf;" horiz-adv-x="669" d="M397 -10Q310 -10 263 39T223 169H307Q302 118 328 87T407 56Q459 56 491 85T524 163Q524 191 504 210T438 246Q372 269 342 294T311 360Q311 393 330 417T385 463Q413 480 437 496T476 532T491 581Q491 617 461
639T374 661Q298 661 256 621T202 512L111 0H27L120 520Q131 583 165 630T256 705T387 732Q450 732 492 714T555 664T577 593Q577 552 559 525T514 478Q488 459 461 444T416 413T398 377Q398 358 416 345T457 322T499 307Q558 286 584 255T610 172Q610 119 583
78T507 13T397 -10Z" />
<glyph unicode="&#xe0;" horiz-adv-x="563" d="M186 -12Q141 -12 105 3T48 47T26 121Q26 182 60 221T151 280T273 299H406Q408 312 409 321T410 339Q410 387 382 412T306 437Q260 437 219 414T160 341H73Q90 397 127 434T213 489T317 508Q370 508 410 491T472
440T495 352Q495 338 494 329T491 305L464 153Q462 142 461 133T460 116Q460 97 469 86T505 74L492 0Q439 0 410 23T377 95Q361 69 335 44T272 4T186 -12ZM211 59Q261 59 299 85T362 151T394 234H268Q229 234 195 224T138 192T116 131Q116 93 143 76T211 59ZM442
557L253 674L266 747L453 620L442 557Z" />
<glyph unicode="&#xe1;" horiz-adv-x="563" d="M186 -12Q141 -12 105 3T48 47T26 121Q26 182 60 221T151 280T273 299H406Q408 312 409 321T410 339Q410 387 382 412T306 437Q260 437 219 414T160 341H73Q90 397 127 434T213 489T317 508Q370 508 410 491T472
440T495 352Q495 338 494 329T491 305L464 153Q462 142 461 133T460 116Q460 97 469 86T505 74L492 0Q439 0 410 23T377 95Q361 69 335 44T272 4T186 -12ZM211 59Q261 59 299 85T362 151T394 234H268Q229 234 195 224T138 192T116 131Q116 93 143 76T211 59ZM232
551L243 620L476 747L463 668L232 551Z" />
<glyph unicode="&#xe2;" horiz-adv-x="563" d="M186 -12Q141 -12 105 3T48 47T26 121Q26 182 60 221T151 280T273 299H406Q408 312 409 321T410 339Q410 387 382 412T306 437Q260 437 219 414T160 341H73Q90 397 127 434T213 489T317 508Q370 508 410 491T472
440T495 352Q495 338 494 329T491 305L464 153Q462 142 461 133T460 116Q460 97 469 86T505 74L492 0Q439 0 410 23T377 95Q361 69 335 44T272 4T186 -12ZM211 59Q261 59 299 85T362 151T394 234H268Q229 234 195 224T138 192T116 131Q116 93 143 76T211 59ZM205
580L217 652L368 733L491 652L479 580L357 664L205 580Z" />
<glyph unicode="&#xe3;" horiz-adv-x="563" d="M186 -12Q141 -12 105 3T48 47T26 121Q26 182 60 221T151 280T273 299H406Q408 312 409 321T410 339Q410 387 382 412T306 437Q260 437 219 414T160 341H73Q90 397 127 434T213 489T317 508Q370 508 410 491T472
440T495 352Q495 338 494 329T491 305L464 153Q462 142 461 133T460 116Q460 97 469 86T505 74L492 0Q439 0 410 23T377 95Q361 69 335 44T272 4T186 -12ZM211 59Q261 59 299 85T362 151T394 234H268Q229 234 195 224T138 192T116 131Q116 93 143 76T211 59ZM400
602Q379 602 367 609T344 625T322 642T293 649Q258 649 243 604H194Q210 655 239 680T307 705Q334 705 349 694T377 670T414 658Q430 658 444 669T465 703H514Q499 654 469 628T400 602Z" />
<glyph unicode="&#xe4;" horiz-adv-x="563" d="M186 -12Q141 -12 105 3T48 47T26 121Q26 182 60 221T151 280T273 299H406Q408 312 409 321T410 339Q410 387 382 412T306 437Q260 437 219 414T160 341H73Q90 397 127 434T213 489T317 508Q370 508 410 491T472
440T495 352Q495 338 494 329T491 305L464 153Q462 142 461 133T460 116Q460 97 469 86T505 74L492 0Q439 0 410 23T377 95Q361 69 335 44T272 4T186 -12ZM211 59Q261 59 299 85T362 151T394 234H268Q229 234 195 224T138 192T116 131Q116 93 143 76T211 59ZM443
606Q418 606 402 622T385 664Q385 688 401 704T443 720Q467 720 484 704T501 664Q501 639 484 623T443 606ZM266 606Q241 606 225 622T208 664Q208 688 224 704T266 720Q290 720 307 704T324 664Q324 639 307 623T266 606Z" />
<glyph unicode="&#xe5;" horiz-adv-x="563" d="M186 -12Q141 -12 105 3T48 47T26 121Q26 182 60 221T151 280T273 299H406Q408 312 409 321T410 339Q410 387 382 412T306 437Q260 437 219 414T160 341H73Q90 397 127 434T213 489T317 508Q370 508 410 491T472
440T495 352Q495 338 494 329T491 305L464 153Q462 142 461 133T460 116Q460 97 469 86T505 74L492 0Q439 0 410 23T377 95Q361 69 335 44T272 4T186 -12ZM211 59Q261 59 299 85T362 151T394 234H268Q229 234 195 224T138 192T116 131Q116 93 143 76T211 59ZM355
557Q312 557 281 584T250 660Q250 708 281 735T355 763Q399 763 429 736T460 660Q460 612 430 585T355 557ZM355 600Q379 600 395 616T412 660Q412 687 396 703T355 719Q331 719 315 703T298 660Q298 633 314 617T355 600Z" />
<glyph unicode="&#xe6;" horiz-adv-x="926" d="M189 -12Q134 -12 98 5T44 52T26 118Q26 168 47 202T104 258T182 289T264 299H414Q416 310 417 320T418 339Q418 387 391 412T315 437Q266 437 226 413T168 341H82Q95 387 122 419T184 470T257 499T327 508Q392 508
433 485T490 418Q529 460 583 484T699 508Q771 508 814 479T876 407T895 319Q895 299 891 274T882 229H487Q486 222 485 215T484 199Q484 129 524 94T618 59Q670 59 709 83T774 148H857Q833 98 795 62T708 7T605 -12Q537 -12 488 20T418 109Q384 59 324 24T189
-12ZM210 59Q261 59 301 83T367 143T397 209L401 234H259Q195 234 155 208T115 131Q115 99 140 79T210 59ZM499 294H811Q812 300 812 305T813 316Q813 373 778 405T685 437Q624 437 572 401T499 294Z" />
<glyph unicode="&#xe7;" horiz-adv-x="569" d="M250 -12Q180 -12 134 18T66 97T43 199Q43 265 65 321T129 419T224 484T341 508Q431 508 484 461T538 334H452Q452 385 416 410T329 436Q279 436 242 416T180 361T143 287T130 208Q130 137 169 98T263 59Q314 59
358 85T422 162H508Q486 102 445 64T352 7T250 -12ZM122 -259L131 -206H223Q260 -206 280 -192T300 -149Q300 -113 239 -113H190L213 17H269L255 -63Q306 -62 337 -81T369 -140Q369 -177 350 -203T300 -244T230 -259H122Z" />
<glyph unicode="&#xe8;" horiz-adv-x="568" d="M246 -12Q154 -12 99 45T43 198Q43 273 68 331T136 428T231 488T337 508Q410 508 453 480T516 408T536 319Q536 299 532 274T523 229H127Q126 221 126 214T125 199Q125 128 165 94T259 59Q311 59 350 83T412 148H495Q475
102 439 66T354 9T246 -12ZM140 294H452Q453 300 453 305T454 316Q454 373 419 405T326 437Q266 437 213 401T140 294ZM444 557L255 674L268 747L455 620L444 557Z" />
<glyph unicode="&#xe9;" horiz-adv-x="568" d="M246 -12Q154 -12 99 45T43 198Q43 273 68 331T136 428T231 488T337 508Q410 508 453 480T516 408T536 319Q536 299 532 274T523 229H127Q126 221 126 214T125 199Q125 128 165 94T259 59Q311 59 350 83T412 148H495Q475
102 439 66T354 9T246 -12ZM140 294H452Q453 300 453 305T454 316Q454 373 419 405T326 437Q266 437 213 401T140 294ZM234 551L245 620L478 747L465 668L234 551Z" />
<glyph unicode="&#xea;" horiz-adv-x="568" d="M246 -12Q154 -12 99 45T43 198Q43 273 68 331T136 428T231 488T337 508Q410 508 453 480T516 408T536 319Q536 299 532 274T523 229H127Q126 221 126 214T125 199Q125 128 165 94T259 59Q311 59 350 83T412 148H495Q475
102 439 66T354 9T246 -12ZM140 294H452Q453 300 453 305T454 316Q454 373 419 405T326 437Q266 437 213 401T140 294ZM207 580L219 652L370 733L493 652L481 580L359 664L207 580Z" />
<glyph unicode="&#xeb;" horiz-adv-x="568" d="M246 -12Q154 -12 99 45T43 198Q43 273 68 331T136 428T231 488T337 508Q410 508 453 480T516 408T536 319Q536 299 532 274T523 229H127Q126 221 126 214T125 199Q125 128 165 94T259 59Q311 59 350 83T412 148H495Q475
102 439 66T354 9T246 -12ZM140 294H452Q453 300 453 305T454 316Q454 373 419 405T326 437Q266 437 213 401T140 294ZM445 606Q420 606 404 622T387 664Q387 688 403 704T445 720Q469 720 486 704T503 664Q503 639 486 623T445 606ZM268 606Q243 606 227 622T210
664Q210 688 226 704T268 720Q292 720 309 704T326 664Q326 639 309 623T268 606Z" />
<glyph unicode="&#xec;" horiz-adv-x="223" d="M26 0L113 496H197L110 0H26ZM272 557L83 674L96 747L283 620L272 557Z" />
<glyph unicode="&#xed;" horiz-adv-x="223" d="M26 0L113 496H197L110 0H26ZM62 551L73 620L306 747L293 668L62 551Z" />
<glyph unicode="&#xee;" horiz-adv-x="223" d="M26 0L113 496H197L110 0H26ZM291 580L303 652L454 733L577 652L565 580L443 664L291 580Z" />
<glyph unicode="&#xef;" horiz-adv-x="223" d="M26 0L113 496H197L110 0H26ZM529 606Q504 606 488 622T471 664Q471 688 487 704T529 720Q553 720 570 704T587 664Q587 639 570 623T529 606ZM352 606Q327 606 311 622T294 664Q294 688 310 704T352 720Q376 720
393 704T410 664Q410 639 393 623T352 606Z" />
<glyph unicode="&#xf0;" horiz-adv-x="616" d="M271 -12Q213 -12 171 7T100 59T58 132T44 213Q44 275 67 328T132 422T226 484T341 507Q391 507 436 489T506 424Q498 470 482 513T439 598L296 551L307 608L408 641Q395 656 382 671T353 700H437Q447 691 455 682T472
662L612 708L601 651L504 619Q543 561 562 495T582 359Q582 272 558 203T490 86T390 13T271 -12ZM280 59Q328 59 366 79T432 133T473 205T487 283Q487 357 443 396T336 436Q294 436 257 419T192 373T147 304T131 220Q131 148 172 104T280 59Z" />
<glyph unicode="&#xf1;" horiz-adv-x="573" d="M26 0L113 496H189L179 406Q211 454 261 481T368 508Q442 508 485 467T528 348Q528 334 527 320T522 290L471 0H387L436 281Q438 294 439 306T441 329Q441 436 336 436Q293 436 256 415T192 356T157 266L110 0H26ZM405
602Q384 602 372 609T349 625T327 642T298 649Q263 649 248 604H199Q215 655 244 680T312 705Q339 705 354 694T382 670T419 658Q435 658 449 669T470 703H519Q504 654 474 628T405 602Z" />
<glyph unicode="&#xf2;" horiz-adv-x="593" d="M255 -12Q193 -12 145 16T70 92T43 204Q43 270 66 325T129 422T222 485T337 508Q384 508 423 493T490 449T533 382T549 295Q549 231 527 175T465 77T372 12T255 -12ZM266 60Q323 60 367 90T437 172T463 289Q463 359
423 397T326 436Q271 436 227 406T157 325T131 207Q131 140 168 100T266 60ZM457 557L268 674L281 747L468 620L457 557Z" />
<glyph unicode="&#xf3;" horiz-adv-x="593" d="M255 -12Q193 -12 145 16T70 92T43 204Q43 270 66 325T129 422T222 485T337 508Q384 508 423 493T490 449T533 382T549 295Q549 231 527 175T465 77T372 12T255 -12ZM266 60Q323 60 367 90T437 172T463 289Q463 359
423 397T326 436Q271 436 227 406T157 325T131 207Q131 140 168 100T266 60ZM247 551L258 620L491 747L478 668L247 551Z" />
<glyph unicode="&#xf4;" horiz-adv-x="593" d="M255 -12Q193 -12 145 16T70 92T43 204Q43 270 66 325T129 422T222 485T337 508Q384 508 423 493T490 449T533 382T549 295Q549 231 527 175T465 77T372 12T255 -12ZM266 60Q323 60 367 90T437 172T463 289Q463 359
423 397T326 436Q271 436 227 406T157 325T131 207Q131 140 168 100T266 60ZM220 580L232 652L383 733L506 652L494 580L372 664L220 580Z" />
<glyph unicode="&#xf5;" horiz-adv-x="593" d="M255 -12Q193 -12 145 16T70 92T43 204Q43 270 66 325T129 422T222 485T337 508Q384 508 423 493T490 449T533 382T549 295Q549 231 527 175T465 77T372 12T255 -12ZM266 60Q323 60 367 90T437 172T463 289Q463 359
423 397T326 436Q271 436 227 406T157 325T131 207Q131 140 168 100T266 60ZM415 602Q394 602 382 609T359 625T337 642T308 649Q273 649 258 604H209Q225 655 254 680T322 705Q349 705 364 694T392 670T429 658Q445 658 459 669T480 703H529Q514 654 484 628T415
602Z" />
<glyph unicode="&#xf6;" horiz-adv-x="593" d="M255 -12Q193 -12 145 16T70 92T43 204Q43 270 66 325T129 422T222 485T337 508Q384 508 423 493T490 449T533 382T549 295Q549 231 527 175T465 77T372 12T255 -12ZM266 60Q323 60 367 90T437 172T463 289Q463 359
423 397T326 436Q271 436 227 406T157 325T131 207Q131 140 168 100T266 60ZM458 606Q433 606 417 622T400 664Q400 688 416 704T458 720Q482 720 499 704T516 664Q516 639 499 623T458 606ZM281 606Q256 606 240 622T223 664Q223 688 239 704T281 720Q305 720
322 704T339 664Q339 639 322 623T281 606Z" />
<glyph unicode="&#xf7;" horiz-adv-x="600" d="M103 255L115 326H513L501 255H103ZM284 90Q259 90 243 107T226 148Q226 172 242 188T284 205Q309 205 325 189T341 148Q341 124 325 107T284 90ZM334 377Q309 377 293 393T276 434Q276 458 292 474T334 491Q358
491 374 475T391 434Q391 410 375 394T334 377Z" />
<glyph unicode="&#xf8;" horiz-adv-x="596" d="M257 -12Q215 -12 180 1T117 37L79 0H-1L81 78Q45 134 45 204Q45 269 67 324T130 420T223 485T338 508Q380 508 415 496T480 460L518 496H597L516 419Q533 393 542 362T551 295Q551 231 529 175T466 77T372 12T257
-12ZM268 58Q319 58 356 79T417 134T454 209T466 289Q466 329 453 358L175 92Q194 75 217 67T268 58ZM143 138L421 404Q384 438 328 438Q278 438 241 417T179 362T142 287T130 207Q130 168 143 138Z" />
<glyph unicode="&#xf9;" horiz-adv-x="573" d="M205 -12Q131 -12 88 29T45 148Q45 176 51 206L102 496H186L137 215Q135 202 134 190T132 167Q132 60 237 60Q300 60 351 104T416 230L463 496H547L460 0H384L394 90Q362 42 312 15T205 -12ZM447 557L258 674L271
747L458 620L447 557Z" />
<glyph unicode="&#xfa;" horiz-adv-x="573" d="M205 -12Q131 -12 88 29T45 148Q45 176 51 206L102 496H186L137 215Q135 202 134 190T132 167Q132 60 237 60Q300 60 351 104T416 230L463 496H547L460 0H384L394 90Q362 42 312 15T205 -12ZM237 551L248 620L481
747L468 668L237 551Z" />
<glyph unicode="&#xfb;" horiz-adv-x="573" d="M205 -12Q131 -12 88 29T45 148Q45 176 51 206L102 496H186L137 215Q135 202 134 190T132 167Q132 60 237 60Q300 60 351 104T416 230L463 496H547L460 0H384L394 90Q362 42 312 15T205 -12ZM210 580L222 652L373
733L496 652L484 580L362 664L210 580Z" />
<glyph unicode="&#xfc;" horiz-adv-x="573" d="M205 -12Q131 -12 88 29T45 148Q45 176 51 206L102 496H186L137 215Q135 202 134 190T132 167Q132 60 237 60Q300 60 351 104T416 230L463 496H547L460 0H384L394 90Q362 42 312 15T205 -12ZM448 606Q423 606 407
622T390 664Q390 688 406 704T448 720Q472 720 489 704T506 664Q506 639 489 623T448 606ZM271 606Q246 606 230 622T213 664Q213 688 229 704T271 720Q295 720 312 704T329 664Q329 639 312 623T271 606Z" />
<glyph unicode="&#xfd;" horiz-adv-x="555" d="M41 -220L192 19L63 496H152L251 110L492 496H580L129 -220H41ZM228 551L239 620L472 747L459 668L228 551Z" />
<glyph unicode="&#xfe;" horiz-adv-x="620" d="M-14 -220L148 700H233L184 419Q214 454 259 481T372 508Q419 508 456 493T521 449T562 382T577 295Q577 229 556 173T496 76T405 11T290 -12Q233 -12 189 14T125 84L70 -220H-14ZM295 61Q353 61 396 89T465 168T490
283Q490 349 453 392T351 435Q294 435 249 405T178 324T152 209Q152 142 191 102T295 61Z" />
<glyph unicode="&#xff;" horiz-adv-x="555" d="M41 -220L192 19L63 496H152L251 110L492 496H580L129 -220H41ZM439 606Q414 606 398 622T381 664Q381 688 397 704T439 720Q463 720 480 704T497 664Q497 639 480 623T439 606ZM262 606Q237 606 221 622T204 664Q204
688 220 704T262 720Q286 720 303 704T320 664Q320 639 303 623T262 606Z" />
<glyph unicode="&#x2013;" horiz-adv-x="642" d="M61 255L73 326H597L584 255H61Z" />
<glyph unicode="&#x2014;" horiz-adv-x="847" d="M61 255L73 326H801L789 255H61Z" />
<glyph unicode="&#x2018;" horiz-adv-x="213" d="M65 477L196 700H256L159 477H65Z" />
<glyph unicode="&#x2019;" horiz-adv-x="213" d="M78 477L174 700H268L138 477H78Z" />
<glyph unicode="&#x201a;" horiz-adv-x="184" d="M-65 -122L32 102H126L-5 -122H-65Z" />
<glyph unicode="&#x201c;" horiz-adv-x="372" d="M224 477L355 700H415L319 477H224ZM65 477L196 700H256L159 477H65Z" />
<glyph unicode="&#x201d;" horiz-adv-x="371" d="M236 476L333 699H427L296 476H236ZM77 476L174 699H268L137 476H77Z" />
<glyph unicode="&#x201e;" horiz-adv-x="353" d="M105 -122L201 102H295L165 -122H105ZM-65 -122L32 102H126L-5 -122H-65Z" />
<glyph unicode="&#x2022;" horiz-adv-x="347" d="M188 213Q155 213 128 229T85 273T68 333Q68 367 84 394T128 437T188 454Q222 454 249 438T293 395T309 333Q309 300 293 273T250 229T188 213Z" />
<glyph unicode="&#x2039;" horiz-adv-x="275" d="M114 120L48 295L176 470H259L128 295L198 120H114Z" />
<glyph unicode="&#x203a;" horiz-adv-x="274" d="M31 120L162 295L93 470H176L242 295L114 120H31Z" />
</font>
</defs>
</svg>
